<svg width="120" height="93" viewBox="0 0 120 93" fill="none" xmlns="http://www.w3.org/2000/svg">
<path d="M98.4101 8.84912H22.841V84.1509H98.4101V8.84912Z" fill="white"/>
<path d="M46.2935 14.0425H28.0527V16.6391H46.2935V14.0425Z" fill="#010101"/>
<path d="M54.111 14.0425H51.5052V16.6391H54.111V14.0425Z" fill="#010101"/>
<path d="M72.3519 14.0425H59.3227V16.6391H72.3519V14.0425Z" fill="#010101"/>
<path d="M93.1985 14.0425H74.9577V16.6391H93.1985V14.0425Z" fill="#010101"/>
<path d="M30.6585 16.6392H28.0527V19.2358H30.6585V16.6392Z" fill="#010101"/>
<path d="M46.2935 16.6392H43.6877V19.2358H46.2935V16.6392Z" fill="#010101"/>
<path d="M51.5052 16.6392H48.8994V19.2358H51.5052V16.6392Z" fill="#010101"/>
<path d="M69.746 16.6392H56.7169V19.2358H69.746V16.6392Z" fill="#010101"/>
<path d="M77.5635 16.6392H74.9577V19.2358H77.5635V16.6392Z" fill="#010101"/>
<path d="M93.1985 16.6392H90.5927V19.2358H93.1985V16.6392Z" fill="#010101"/>
<path d="M30.6585 19.2354H28.0527V21.832H30.6585V19.2354Z" fill="#010101"/>
<path d="M41.0818 19.2354H33.2643V21.832H41.0818V19.2354Z" fill="#010101"/>
<path d="M46.2935 19.2354H43.6877V21.832H46.2935V19.2354Z" fill="#010101"/>
<path d="M61.9285 19.2354H48.8994V21.832H61.9285V19.2354Z" fill="#010101"/>
<path d="M67.1402 19.2354H64.5344V21.832H67.1402V19.2354Z" fill="#010101"/>
<path d="M77.5635 19.2354H74.9577V21.832H77.5635V19.2354Z" fill="#010101"/>
<path d="M87.9868 19.2354H80.1693V21.832H87.9868V19.2354Z" fill="#010101"/>
<path d="M93.1985 19.2354H90.5927V21.832H93.1985V19.2354Z" fill="#010101"/>
<path d="M30.6585 21.832H28.0527V24.4286H30.6585V21.832Z" fill="#010101"/>
<path d="M41.0818 21.832H33.2643V24.4286H41.0818V21.832Z" fill="#010101"/>
<path d="M46.2935 21.832H43.6877V24.4286H46.2935V21.832Z" fill="#010101"/>
<path d="M59.3227 21.832H51.5052V24.4286H59.3227V21.832Z" fill="#010101"/>
<path d="M69.746 21.832H64.5344V24.4286H69.746V21.832Z" fill="#010101"/>
<path d="M77.5635 21.832H74.9577V24.4286H77.5635V21.832Z" fill="#010101"/>
<path d="M87.9868 21.832H80.1693V24.4286H87.9868V21.832Z" fill="#010101"/>
<path d="M93.1985 21.832H90.5927V24.4286H93.1985V21.832Z" fill="#010101"/>
<path d="M30.6585 24.4287H28.0527V27.0253H30.6585V24.4287Z" fill="#010101"/>
<path d="M41.0818 24.4287H33.2643V27.0253H41.0818V24.4287Z" fill="#010101"/>
<path d="M46.2935 24.4287H43.6877V27.0253H46.2935V24.4287Z" fill="#010101"/>
<path d="M51.5052 24.4287H48.8994V27.0253H51.5052V24.4287Z" fill="#010101"/>
<path d="M64.5344 24.4287H61.9285V27.0253H64.5344V24.4287Z" fill="#010101"/>
<path d="M72.3519 24.4287H67.1402V27.0253H72.3519V24.4287Z" fill="#010101"/>
<path d="M77.5635 24.4287H74.9577V27.0253H77.5635V24.4287Z" fill="#010101"/>
<path d="M87.9868 24.4287H80.1693V27.0253H87.9868V24.4287Z" fill="#010101"/>
<path d="M93.1985 24.4287H90.5927V27.0253H93.1985V24.4287Z" fill="#010101"/>
<path d="M30.6585 27.0254H28.0527V29.622H30.6585V27.0254Z" fill="#010101"/>
<path d="M46.2935 27.0254H43.6877V29.622H46.2935V27.0254Z" fill="#010101"/>
<path d="M54.111 27.0254H48.8994V29.622H54.111V27.0254Z" fill="#010101"/>
<path d="M59.3227 27.0254H56.7169V29.622H59.3227V27.0254Z" fill="#010101"/>
<path d="M72.3519 27.0254H64.5344V29.622H72.3519V27.0254Z" fill="#010101"/>
<path d="M77.5635 27.0254H74.9577V29.622H77.5635V27.0254Z" fill="#010101"/>
<path d="M93.1985 27.0254H90.5927V29.622H93.1985V27.0254Z" fill="#010101"/>
<path d="M46.2935 29.6221H28.0527V32.2187H46.2935V29.6221Z" fill="#010101"/>
<path d="M51.5052 29.6221H48.8994V32.2187H51.5052V29.6221Z" fill="#010101"/>
<path d="M56.7169 29.6221H54.111V32.2187H56.7169V29.6221Z" fill="#010101"/>
<path d="M61.9285 29.6221H59.3227V32.2187H61.9285V29.6221Z" fill="#010101"/>
<path d="M67.1402 29.6221H64.5344V32.2187H67.1402V29.6221Z" fill="#010101"/>
<path d="M72.3518 29.6221H69.746V32.2187H72.3518V29.6221Z" fill="#010101"/>
<path d="M93.1985 29.6221H74.9577V32.2187H93.1985V29.6221Z" fill="#010101"/>
<path d="M54.111 32.2188H48.8994V34.8154H54.111V32.2188Z" fill="#010101"/>
<path d="M61.9285 32.2188H59.3227V34.8154H61.9285V32.2188Z" fill="#010101"/>
<path d="M69.746 32.2188H64.5344V34.8154H69.746V32.2188Z" fill="#010101"/>
<path d="M33.2643 34.8154H28.0527V37.412H33.2643V34.8154Z" fill="#010101"/>
<path d="M38.476 34.8154H35.8702V37.412H38.476V34.8154Z" fill="#010101"/>
<path d="M48.8993 34.8154H43.6877V37.412H48.8993V34.8154Z" fill="#010101"/>
<path d="M56.7169 34.8154H54.111V37.412H56.7169V34.8154Z" fill="#010101"/>
<path d="M67.1402 34.8154H59.3227V37.412H67.1402V34.8154Z" fill="#010101"/>
<path d="M72.3518 34.8154H69.746V37.412H72.3518V34.8154Z" fill="#010101"/>
<path d="M82.7752 34.8154H74.9577V37.412H82.7752V34.8154Z" fill="#010101"/>
<path d="M90.5926 34.8154H85.381V37.412H90.5926V34.8154Z" fill="#010101"/>
<path d="M41.0818 37.4116H38.476V40.0082H41.0818V37.4116Z" fill="#010101"/>
<path d="M51.5052 37.4116H46.2935V40.0082H51.5052V37.4116Z" fill="#010101"/>
<path d="M59.3227 37.4116H54.111V40.0082H59.3227V37.4116Z" fill="#010101"/>
<path d="M77.5635 37.4116H69.746V40.0082H77.5635V37.4116Z" fill="#010101"/>
<path d="M93.1985 37.4116H90.5927V40.0082H93.1985V37.4116Z" fill="#010101"/>
<path d="M35.8702 40.0083H30.6585V42.6049H35.8702V40.0083Z" fill="#010101"/>
<path d="M41.0818 40.0083H38.476V42.6049H41.0818V40.0083Z" fill="#010101"/>
<path d="M46.2935 40.0083H43.6877V42.6049H46.2935V40.0083Z" fill="#010101"/>
<path d="M56.7169 40.0083H51.5052V42.6049H56.7169V40.0083Z" fill="#010101"/>
<path d="M82.7752 40.0083H77.5635V42.6049H82.7752V40.0083Z" fill="#010101"/>
<path d="M93.1985 40.0083H87.9868V42.6049H93.1985V40.0083Z" fill="#010101"/>
<path d="M30.6585 42.605H28.0527V45.2016H30.6585V42.605Z" fill="#010101"/>
<path d="M41.0818 42.605H38.476V45.2016H41.0818V42.605Z" fill="#010101"/>
<path d="M51.5052 42.605H48.8994V45.2016H51.5052V42.605Z" fill="#010101"/>
<path d="M64.5344 42.605H59.3227V45.2016H64.5344V42.605Z" fill="#010101"/>
<path d="M74.9576 42.605H69.746V45.2016H74.9576V42.605Z" fill="#010101"/>
<path d="M38.476 45.2017H33.2643V47.7983H38.476V45.2017Z" fill="#010101"/>
<path d="M46.2935 45.2017H43.6877V47.7983H46.2935V45.2017Z" fill="#010101"/>
<path d="M51.5052 45.2017H48.8994V47.7983H51.5052V45.2017Z" fill="#010101"/>
<path d="M64.5344 45.2017H59.3227V47.7983H64.5344V45.2017Z" fill="#010101"/>
<path d="M77.5635 45.2017H67.1402V47.7983H77.5635V45.2017Z" fill="#010101"/>
<path d="M85.381 45.2017H82.7752V47.7983H85.381V45.2017Z" fill="#010101"/>
<path d="M93.1985 45.2017H87.9868V47.7983H93.1985V45.2017Z" fill="#010101"/>
<path d="M43.6877 47.7983H30.6585V50.395H43.6877V47.7983Z" fill="#010101"/>
<path d="M56.7169 47.7983H48.8994V50.395H56.7169V47.7983Z" fill="#010101"/>
<path d="M64.5344 47.7983H59.3227V50.395H64.5344V47.7983Z" fill="#010101"/>
<path d="M80.1693 47.7983H69.746V50.395H80.1693V47.7983Z" fill="#010101"/>
<path d="M87.9868 47.7983H82.7752V50.395H87.9868V47.7983Z" fill="#010101"/>
<path d="M93.1985 47.7983H90.5927V50.395H93.1985V47.7983Z" fill="#010101"/>
<path d="M30.6585 50.395H28.0527V52.9916H30.6585V50.395Z" fill="#010101"/>
<path d="M35.8702 50.395H33.2643V52.9916H35.8702V50.395Z" fill="#010101"/>
<path d="M41.0818 50.395H38.476V52.9916H41.0818V50.395Z" fill="#010101"/>
<path d="M54.111 50.395H43.6877V52.9916H54.111V50.395Z" fill="#010101"/>
<path d="M59.3227 50.395H56.7169V52.9916H59.3227V50.395Z" fill="#010101"/>
<path d="M67.1402 50.395H64.5344V52.9916H67.1402V50.395Z" fill="#010101"/>
<path d="M72.3518 50.395H69.746V52.9916H72.3518V50.395Z" fill="#010101"/>
<path d="M82.7752 50.395H77.5635V52.9916H82.7752V50.395Z" fill="#010101"/>
<path d="M87.9868 50.395H85.381V52.9916H87.9868V50.395Z" fill="#010101"/>
<path d="M93.1985 50.395H90.5927V52.9916H93.1985V50.395Z" fill="#010101"/>
<path d="M33.2643 52.9917H30.6585V55.5883H33.2643V52.9917Z" fill="#010101"/>
<path d="M43.6877 52.9917H41.0818V55.5883H43.6877V52.9917Z" fill="#010101"/>
<path d="M48.8993 52.9917H46.2935V55.5883H48.8993V52.9917Z" fill="#010101"/>
<path d="M56.7169 52.9917H54.111V55.5883H56.7169V52.9917Z" fill="#010101"/>
<path d="M64.5344 52.9917H61.9285V55.5883H64.5344V52.9917Z" fill="#010101"/>
<path d="M77.5635 52.9917H72.3518V55.5883H77.5635V52.9917Z" fill="#010101"/>
<path d="M82.7752 52.9917H80.1693V55.5883H82.7752V52.9917Z" fill="#010101"/>
<path d="M90.5926 52.9917H87.9868V55.5883H90.5926V52.9917Z" fill="#010101"/>
<path d="M33.2643 55.5884H28.0527V58.185H33.2643V55.5884Z" fill="#010101"/>
<path d="M41.0818 55.5884H38.476V58.185H41.0818V55.5884Z" fill="#010101"/>
<path d="M46.2935 55.5884H43.6877V58.185H46.2935V55.5884Z" fill="#010101"/>
<path d="M56.7169 55.5884H48.8994V58.185H56.7169V55.5884Z" fill="#010101"/>
<path d="M61.9285 55.5884H59.3227V58.185H61.9285V55.5884Z" fill="#010101"/>
<path d="M87.9868 55.5884H69.746V58.185H87.9868V55.5884Z" fill="#010101"/>
<path d="M51.5052 58.1846H48.8994V60.7812H51.5052V58.1846Z" fill="#010101"/>
<path d="M61.9285 58.1846H56.7169V60.7812H61.9285V58.1846Z" fill="#010101"/>
<path d="M67.1402 58.1846H64.5344V60.7812H67.1402V58.1846Z" fill="#010101"/>
<path d="M72.3518 58.1846H69.746V60.7812H72.3518V58.1846Z" fill="#010101"/>
<path d="M85.381 58.1846H80.1693V60.7812H85.381V58.1846Z" fill="#010101"/>
<path d="M93.1985 58.1846H90.5927V60.7812H93.1985V58.1846Z" fill="#010101"/>
<path d="M46.2935 60.7812H28.0527V63.3779H46.2935V60.7812Z" fill="#010101"/>
<path d="M54.111 60.7812H48.8994V63.3779H54.111V60.7812Z" fill="#010101"/>
<path d="M64.5344 60.7812H61.9285V63.3779H64.5344V60.7812Z" fill="#010101"/>
<path d="M72.3519 60.7812H67.1402V63.3779H72.3519V60.7812Z" fill="#010101"/>
<path d="M77.5635 60.7812H74.9577V63.3779H77.5635V60.7812Z" fill="#010101"/>
<path d="M85.381 60.7812H80.1693V63.3779H85.381V60.7812Z" fill="#010101"/>
<path d="M93.1985 60.7812H87.9868V63.3779H93.1985V60.7812Z" fill="#010101"/>
<path d="M30.6585 63.3779H28.0527V65.9745H30.6585V63.3779Z" fill="#010101"/>
<path d="M46.2935 63.3779H43.6877V65.9745H46.2935V63.3779Z" fill="#010101"/>
<path d="M61.9285 63.3779H51.5052V65.9745H61.9285V63.3779Z" fill="#010101"/>
<path d="M67.1402 63.3779H64.5344V65.9745H67.1402V63.3779Z" fill="#010101"/>
<path d="M72.3518 63.3779H69.746V65.9745H72.3518V63.3779Z" fill="#010101"/>
<path d="M87.9868 63.3779H80.1693V65.9745H87.9868V63.3779Z" fill="#010101"/>
<path d="M93.1985 63.3779H90.5927V65.9745H93.1985V63.3779Z" fill="#010101"/>
<path d="M30.6585 65.9746H28.0527V68.5712H30.6585V65.9746Z" fill="#010101"/>
<path d="M41.0818 65.9746H33.2643V68.5712H41.0818V65.9746Z" fill="#010101"/>
<path d="M46.2935 65.9746H43.6877V68.5712H46.2935V65.9746Z" fill="#010101"/>
<path d="M54.111 65.9746H51.5052V68.5712H54.111V65.9746Z" fill="#010101"/>
<path d="M59.3227 65.9746H56.7169V68.5712H59.3227V65.9746Z" fill="#010101"/>
<path d="M67.1402 65.9746H61.9285V68.5712H67.1402V65.9746Z" fill="#010101"/>
<path d="M85.381 65.9746H69.746V68.5712H85.381V65.9746Z" fill="#010101"/>
<path d="M90.5926 65.9746H87.9868V68.5712H90.5926V65.9746Z" fill="#010101"/>
<path d="M30.6585 68.5713H28.0527V71.1679H30.6585V68.5713Z" fill="#010101"/>
<path d="M41.0818 68.5713H33.2643V71.1679H41.0818V68.5713Z" fill="#010101"/>
<path d="M46.2935 68.5713H43.6877V71.1679H46.2935V68.5713Z" fill="#010101"/>
<path d="M51.5052 68.5713H48.8994V71.1679H51.5052V68.5713Z" fill="#010101"/>
<path d="M56.7169 68.5713H54.111V71.1679H56.7169V68.5713Z" fill="#010101"/>
<path d="M69.746 68.5713H59.3227V71.1679H69.746V68.5713Z" fill="#010101"/>
<path d="M87.9868 68.5713H77.5635V71.1679H87.9868V68.5713Z" fill="#010101"/>
<path d="M30.6585 71.168H28.0527V73.7646H30.6585V71.168Z" fill="#010101"/>
<path d="M41.0818 71.168H33.2643V73.7646H41.0818V71.168Z" fill="#010101"/>
<path d="M46.2935 71.168H43.6877V73.7646H46.2935V71.168Z" fill="#010101"/>
<path d="M56.7169 71.168H54.111V73.7646H56.7169V71.168Z" fill="#010101"/>
<path d="M69.746 71.168H64.5344V73.7646H69.746V71.168Z" fill="#010101"/>
<path d="M82.7752 71.168H77.5635V73.7646H82.7752V71.168Z" fill="#010101"/>
<path d="M87.9868 71.168H85.381V73.7646H87.9868V71.168Z" fill="#010101"/>
<path d="M93.1985 71.168H90.5927V73.7646H93.1985V71.168Z" fill="#010101"/>
<path d="M30.6585 73.7646H28.0527V76.3613H30.6585V73.7646Z" fill="#010101"/>
<path d="M46.2935 73.7646H43.6877V76.3613H46.2935V73.7646Z" fill="#010101"/>
<path d="M51.5052 73.7646H48.8994V76.3613H51.5052V73.7646Z" fill="#010101"/>
<path d="M56.7169 73.7646H54.111V76.3613H56.7169V73.7646Z" fill="#010101"/>
<path d="M64.5344 73.7646H61.9285V76.3613H64.5344V73.7646Z" fill="#010101"/>
<path d="M72.3518 73.7646H69.746V76.3613H72.3518V73.7646Z" fill="#010101"/>
<path d="M77.5635 73.7646H74.9577V76.3613H77.5635V73.7646Z" fill="#010101"/>
<path d="M85.381 73.7646H82.7752V76.3613H85.381V73.7646Z" fill="#010101"/>
<path d="M46.2935 76.3608H28.0527V78.9575H46.2935V76.3608Z" fill="#010101"/>
<path d="M56.7169 76.3608H48.8994V78.9575H56.7169V76.3608Z" fill="#010101"/>
<path d="M64.5344 76.3608H59.3227V78.9575H64.5344V76.3608Z" fill="#010101"/>
<path d="M74.9577 76.3608H67.1402V78.9575H74.9577V76.3608Z" fill="#010101"/>
<path d="M80.1693 76.3608H77.5635V78.9575H80.1693V76.3608Z" fill="#010101"/>
<path d="M93.1985 76.3608H87.9868V78.9575H93.1985V76.3608Z" fill="#010101"/>
</svg>
