<?xml version="1.0" encoding="UTF-8"?>
<svg id="Layer_1" xmlns="http://www.w3.org/2000/svg" version="1.1" viewBox="0 0 1275.6 992.1">
  <!-- Generator: Adobe Illustrator 29.5.0, SVG Export Plug-In . SVG Version: 2.1.0 Build 137)  -->
  <defs>
    <style>
      .st0 {
        fill: #fff;
      }

      .st1 {
        fill: #010101;
      }
    </style>
  </defs>
  <rect class="st0" x="242.8" y="94.4" width="803.3" height="803.3"/>
  <rect class="st1" x="298.2" y="149.8" width="193.9" height="27.7"/>
  <rect class="st1" x="547.5" y="149.8" width="27.7" height="27.7"/>
  <rect class="st1" x="630.6" y="149.8" width="138.5" height="27.7"/>
  <rect class="st1" x="796.8" y="149.8" width="193.9" height="27.7"/>
  <rect class="st1" x="298.2" y="177.5" width="27.7" height="27.7"/>
  <rect class="st1" x="464.4" y="177.5" width="27.7" height="27.7"/>
  <rect class="st1" x="519.8" y="177.5" width="27.7" height="27.7"/>
  <rect class="st1" x="602.9" y="177.5" width="138.5" height="27.7"/>
  <rect class="st1" x="796.8" y="177.5" width="27.7" height="27.7"/>
  <rect class="st1" x="963" y="177.5" width="27.7" height="27.7"/>
  <rect class="st1" x="298.2" y="205.2" width="27.7" height="27.7"/>
  <rect class="st1" x="353.6" y="205.2" width="83.1" height="27.7"/>
  <rect class="st1" x="464.4" y="205.2" width="27.7" height="27.7"/>
  <rect class="st1" x="519.8" y="205.2" width="138.5" height="27.7"/>
  <rect class="st1" x="686" y="205.2" width="27.7" height="27.7"/>
  <rect class="st1" x="796.8" y="205.2" width="27.7" height="27.7"/>
  <rect class="st1" x="852.2" y="205.2" width="83.1" height="27.7"/>
  <rect class="st1" x="963" y="205.2" width="27.7" height="27.7"/>
  <rect class="st1" x="298.2" y="232.9" width="27.7" height="27.7"/>
  <rect class="st1" x="353.6" y="232.9" width="83.1" height="27.7"/>
  <rect class="st1" x="464.4" y="232.9" width="27.7" height="27.7"/>
  <rect class="st1" x="547.5" y="232.9" width="83.1" height="27.7"/>
  <rect class="st1" x="686" y="232.9" width="55.4" height="27.7"/>
  <rect class="st1" x="796.8" y="232.9" width="27.7" height="27.7"/>
  <rect class="st1" x="852.2" y="232.9" width="83.1" height="27.7"/>
  <rect class="st1" x="963" y="232.9" width="27.7" height="27.7"/>
  <rect class="st1" x="298.2" y="260.6" width="27.7" height="27.7"/>
  <rect class="st1" x="353.6" y="260.6" width="83.1" height="27.7"/>
  <rect class="st1" x="464.4" y="260.6" width="27.7" height="27.7"/>
  <rect class="st1" x="519.8" y="260.6" width="27.7" height="27.7"/>
  <rect class="st1" x="658.3" y="260.6" width="27.7" height="27.7"/>
  <rect class="st1" x="713.7" y="260.6" width="55.4" height="27.7"/>
  <rect class="st1" x="796.8" y="260.6" width="27.7" height="27.7"/>
  <rect class="st1" x="852.2" y="260.6" width="83.1" height="27.7"/>
  <rect class="st1" x="963" y="260.6" width="27.7" height="27.7"/>
  <rect class="st1" x="298.2" y="288.3" width="27.7" height="27.7"/>
  <rect class="st1" x="464.4" y="288.3" width="27.7" height="27.7"/>
  <rect class="st1" x="519.8" y="288.3" width="55.4" height="27.7"/>
  <rect class="st1" x="602.9" y="288.3" width="27.7" height="27.7"/>
  <rect class="st1" x="686" y="288.3" width="83.1" height="27.7"/>
  <rect class="st1" x="796.8" y="288.3" width="27.7" height="27.7"/>
  <rect class="st1" x="963" y="288.3" width="27.7" height="27.7"/>
  <rect class="st1" x="298.2" y="316" width="193.9" height="27.7"/>
  <rect class="st1" x="519.8" y="316" width="27.7" height="27.7"/>
  <rect class="st1" x="575.2" y="316" width="27.7" height="27.7"/>
  <rect class="st1" x="630.6" y="316" width="27.7" height="27.7"/>
  <rect class="st1" x="686" y="316" width="27.7" height="27.7"/>
  <rect class="st1" x="741.4" y="316" width="27.7" height="27.7"/>
  <rect class="st1" x="796.8" y="316" width="193.9" height="27.7"/>
  <rect class="st1" x="519.8" y="343.7" width="55.4" height="27.7"/>
  <rect class="st1" x="630.6" y="343.7" width="27.7" height="27.7"/>
  <rect class="st1" x="686" y="343.7" width="55.4" height="27.7"/>
  <rect class="st1" x="298.2" y="371.4" width="55.4" height="27.7"/>
  <rect class="st1" x="381.3" y="371.4" width="27.7" height="27.7"/>
  <rect class="st1" x="464.4" y="371.4" width="55.4" height="27.7"/>
  <rect class="st1" x="575.2" y="371.4" width="27.7" height="27.7"/>
  <rect class="st1" x="630.6" y="371.4" width="83.1" height="27.7"/>
  <rect class="st1" x="741.4" y="371.4" width="27.7" height="27.7"/>
  <rect class="st1" x="796.8" y="371.4" width="83.1" height="27.7"/>
  <rect class="st1" x="907.6" y="371.4" width="55.4" height="27.7"/>
  <rect class="st1" x="409" y="399.1" width="27.7" height="27.7"/>
  <rect class="st1" x="492.1" y="399.1" width="55.4" height="27.7"/>
  <rect class="st1" x="575.2" y="399.1" width="55.4" height="27.7"/>
  <rect class="st1" x="741.4" y="399.1" width="83.1" height="27.7"/>
  <rect class="st1" x="963" y="399.1" width="27.7" height="27.7"/>
  <rect class="st1" x="325.9" y="426.8" width="55.4" height="27.7"/>
  <rect class="st1" x="409" y="426.8" width="27.7" height="27.7"/>
  <rect class="st1" x="464.4" y="426.8" width="27.7" height="27.7"/>
  <rect class="st1" x="547.5" y="426.8" width="55.4" height="27.7"/>
  <rect class="st1" x="824.5" y="426.8" width="55.4" height="27.7"/>
  <rect class="st1" x="935.3" y="426.8" width="55.4" height="27.7"/>
  <rect class="st1" x="298.2" y="454.5" width="27.7" height="27.7"/>
  <rect class="st1" x="409" y="454.5" width="27.7" height="27.7"/>
  <rect class="st1" x="519.8" y="454.5" width="27.7" height="27.7"/>
  <rect class="st1" x="630.6" y="454.5" width="55.4" height="27.7"/>
  <rect class="st1" x="741.4" y="454.5" width="55.4" height="27.7"/>
  <rect class="st1" x="353.6" y="482.2" width="55.4" height="27.7"/>
  <rect class="st1" x="464.4" y="482.2" width="27.7" height="27.7"/>
  <rect class="st1" x="519.8" y="482.2" width="27.7" height="27.7"/>
  <rect class="st1" x="630.6" y="482.2" width="55.4" height="27.7"/>
  <rect class="st1" x="713.7" y="482.2" width="110.8" height="27.7"/>
  <rect class="st1" x="879.9" y="482.2" width="27.7" height="27.7"/>
  <rect class="st1" x="935.3" y="482.2" width="55.4" height="27.7"/>
  <rect class="st1" x="325.9" y="509.9" width="138.5" height="27.7"/>
  <rect class="st1" x="519.8" y="509.9" width="83.1" height="27.7"/>
  <rect class="st1" x="630.6" y="509.9" width="55.4" height="27.7"/>
  <rect class="st1" x="741.4" y="509.9" width="110.8" height="27.7"/>
  <rect class="st1" x="879.9" y="509.9" width="55.4" height="27.7"/>
  <rect class="st1" x="963" y="509.9" width="27.7" height="27.7"/>
  <rect class="st1" x="298.2" y="537.6" width="27.7" height="27.7"/>
  <rect class="st1" x="353.6" y="537.6" width="27.7" height="27.7"/>
  <rect class="st1" x="409" y="537.6" width="27.7" height="27.7"/>
  <rect class="st1" x="464.4" y="537.6" width="110.8" height="27.7"/>
  <rect class="st1" x="602.9" y="537.6" width="27.7" height="27.7"/>
  <rect class="st1" x="686" y="537.6" width="27.7" height="27.7"/>
  <rect class="st1" x="741.4" y="537.6" width="27.7" height="27.7"/>
  <rect class="st1" x="824.5" y="537.6" width="55.4" height="27.7"/>
  <rect class="st1" x="907.6" y="537.6" width="27.7" height="27.7"/>
  <rect class="st1" x="963" y="537.6" width="27.7" height="27.7"/>
  <rect class="st1" x="325.9" y="565.3" width="27.7" height="27.7"/>
  <rect class="st1" x="436.7" y="565.3" width="27.7" height="27.7"/>
  <rect class="st1" x="492.1" y="565.3" width="27.7" height="27.7"/>
  <rect class="st1" x="575.2" y="565.3" width="27.7" height="27.7"/>
  <rect class="st1" x="658.3" y="565.3" width="27.7" height="27.7"/>
  <rect class="st1" x="769.1" y="565.3" width="55.4" height="27.7"/>
  <rect class="st1" x="852.2" y="565.3" width="27.7" height="27.7"/>
  <rect class="st1" x="935.3" y="565.3" width="27.7" height="27.7"/>
  <rect class="st1" x="298.2" y="593" width="55.4" height="27.7"/>
  <rect class="st1" x="409" y="593" width="27.7" height="27.7"/>
  <rect class="st1" x="464.4" y="593" width="27.7" height="27.7"/>
  <rect class="st1" x="519.8" y="593" width="83.1" height="27.7"/>
  <rect class="st1" x="630.6" y="593" width="27.7" height="27.7"/>
  <rect class="st1" x="741.4" y="593" width="193.9" height="27.7"/>
  <rect class="st1" x="519.8" y="620.7" width="27.7" height="27.7"/>
  <rect class="st1" x="602.9" y="620.7" width="55.4" height="27.7"/>
  <rect class="st1" x="686" y="620.7" width="27.7" height="27.7"/>
  <rect class="st1" x="741.4" y="620.7" width="27.7" height="27.7"/>
  <rect class="st1" x="852.2" y="620.7" width="55.4" height="27.7"/>
  <rect class="st1" x="963" y="620.7" width="27.7" height="27.7"/>
  <rect class="st1" x="298.2" y="648.4" width="193.9" height="27.7"/>
  <rect class="st1" x="519.8" y="648.4" width="55.4" height="27.7"/>
  <rect class="st1" x="658.3" y="648.4" width="27.7" height="27.7"/>
  <rect class="st1" x="713.7" y="648.4" width="55.4" height="27.7"/>
  <rect class="st1" x="796.8" y="648.4" width="27.7" height="27.7"/>
  <rect class="st1" x="852.2" y="648.4" width="55.4" height="27.7"/>
  <rect class="st1" x="935.3" y="648.4" width="55.4" height="27.7"/>
  <rect class="st1" x="298.2" y="676.1" width="27.7" height="27.7"/>
  <rect class="st1" x="464.4" y="676.1" width="27.7" height="27.7"/>
  <rect class="st1" x="547.5" y="676.1" width="110.8" height="27.7"/>
  <rect class="st1" x="686" y="676.1" width="27.7" height="27.7"/>
  <rect class="st1" x="741.4" y="676.1" width="27.7" height="27.7"/>
  <rect class="st1" x="852.2" y="676.1" width="83.1" height="27.7"/>
  <rect class="st1" x="963" y="676.1" width="27.7" height="27.7"/>
  <rect class="st1" x="298.2" y="703.8" width="27.7" height="27.7"/>
  <rect class="st1" x="353.6" y="703.8" width="83.1" height="27.7"/>
  <rect class="st1" x="464.4" y="703.8" width="27.7" height="27.7"/>
  <rect class="st1" x="547.5" y="703.8" width="27.7" height="27.7"/>
  <rect class="st1" x="602.9" y="703.8" width="27.7" height="27.7"/>
  <rect class="st1" x="658.3" y="703.8" width="55.4" height="27.7"/>
  <rect class="st1" x="741.4" y="703.8" width="166.2" height="27.7"/>
  <rect class="st1" x="935.3" y="703.8" width="27.7" height="27.7"/>
  <rect class="st1" x="298.2" y="731.5" width="27.7" height="27.7"/>
  <rect class="st1" x="353.6" y="731.5" width="83.1" height="27.7"/>
  <rect class="st1" x="464.4" y="731.5" width="27.7" height="27.7"/>
  <rect class="st1" x="519.8" y="731.5" width="27.7" height="27.7"/>
  <rect class="st1" x="575.2" y="731.5" width="27.7" height="27.7"/>
  <rect class="st1" x="630.6" y="731.5" width="110.8" height="27.7"/>
  <rect class="st1" x="824.5" y="731.5" width="110.8" height="27.7"/>
  <rect class="st1" x="298.2" y="759.2" width="27.7" height="27.7"/>
  <rect class="st1" x="353.6" y="759.2" width="83.1" height="27.7"/>
  <rect class="st1" x="464.4" y="759.2" width="27.7" height="27.7"/>
  <rect class="st1" x="575.2" y="759.2" width="27.7" height="27.7"/>
  <rect class="st1" x="686" y="759.2" width="55.4" height="27.7"/>
  <rect class="st1" x="824.5" y="759.2" width="55.4" height="27.7"/>
  <rect class="st1" x="907.6" y="759.2" width="27.7" height="27.7"/>
  <rect class="st1" x="963" y="759.2" width="27.7" height="27.7"/>
  <rect class="st1" x="298.2" y="786.9" width="27.7" height="27.7"/>
  <rect class="st1" x="464.4" y="786.9" width="27.7" height="27.7"/>
  <rect class="st1" x="519.8" y="786.9" width="27.7" height="27.7"/>
  <rect class="st1" x="575.2" y="786.9" width="27.7" height="27.7"/>
  <rect class="st1" x="658.3" y="786.9" width="27.7" height="27.7"/>
  <rect class="st1" x="741.4" y="786.9" width="27.7" height="27.7"/>
  <rect class="st1" x="796.8" y="786.9" width="27.7" height="27.7"/>
  <rect class="st1" x="879.9" y="786.9" width="27.7" height="27.7"/>
  <rect class="st1" x="298.2" y="814.6" width="193.9" height="27.7"/>
  <rect class="st1" x="519.8" y="814.6" width="83.1" height="27.7"/>
  <rect class="st1" x="630.6" y="814.6" width="55.4" height="27.7"/>
  <rect class="st1" x="713.7" y="814.6" width="83.1" height="27.7"/>
  <rect class="st1" x="824.5" y="814.6" width="27.7" height="27.7"/>
  <rect class="st1" x="935.3" y="814.6" width="55.4" height="27.7"/>
</svg>