<svg width="401" height="301" viewBox="0 0 401 301" fill="none" xmlns="http://www.w3.org/2000/svg">
<mask id="mask0_315_35459" style="mask-type:alpha" maskUnits="userSpaceOnUse" x="23" y="19" width="355" height="263">
<path d="M219.384 23.857C302.067 1.61799 349.355 60.389 366.754 113.611C384.154 166.832 389.063 263.585 321.854 278.46C254.646 293.335 216.504 239.744 125.294 255.633C34.0839 271.521 -12.6011 116.436 55.6009 58.629C123.803 0.821991 136.701 46.096 219.384 23.857Z" fill="white"/>
</mask>
<g mask="url(#mask0_315_35459)">
<path d="M219.384 23.857C302.067 1.61799 349.355 60.389 366.754 113.611C384.154 166.832 389.063 263.585 321.854 278.46C254.646 293.335 216.504 239.744 125.294 255.633C34.0839 271.521 -12.6011 116.436 55.6009 58.629C123.803 0.821991 136.701 46.096 219.384 23.857Z" fill="#F2F5FF"/>
<path d="M172.072 16.945C177.324 85.087 200.581 106.652 244.2 121.01C287.819 135.369 325.19 125.085 368.082 91.198" stroke="white" stroke-width="1.327"/>
<path d="M200.001 19.935C209.478 68.772 182.221 118.759 118.377 121.428C22.6107 125.43 91.7987 52.763 124.47 81.731C157.141 110.698 154.481 173.42 103.505 216.41C90.1797 227.647 76.1277 236.68 61.3477 243.511" stroke="white" stroke-width="1.327"/>
<path d="M22.6113 216.271C58.8543 222.759 102.744 239.204 111.223 293.523M394.046 128.33C331.407 190.804 287.683 208.968 262.872 182.822C225.655 143.603 296.743 112.72 307.229 147.771C317.714 182.822 261.655 210.64 187.02 223.012M317.714 36.3C269.215 37.734 225.322 34.952 186.036 27.953" stroke="white" stroke-width="1.327"/>
<path d="M256.376 0.664001C256.376 36.016 276.82 64.674 302.039 64.674C316.882 64.674 330.07 54.747 338.41 39.37M394.045 168.923C357.409 204.611 333.696 244.982 322.906 290.035M22.6113 138.793C134.589 161.399 228.133 213.532 303.243 295.192" stroke="white" stroke-width="1.327"/>
<path d="M76.4073 -2.73999C31.6453 6.41001 15.0963 25.494 26.7573 54.512C44.2513 98.038 108.717 180.346 22.6113 194.622" stroke="white" stroke-width="1.327"/>
<path fill-rule="evenodd" clip-rule="evenodd" d="M260.288 32.305L377.877 188.22C377.033 229.792 362.879 269.379 321.854 278.459C254.646 293.335 216.504 239.744 125.294 255.632C119.863 256.578 114.591 256.918 109.491 256.709L56.1629 185.996C56.0414 185.835 55.9529 185.651 55.9024 185.456C55.8519 185.261 55.8404 185.057 55.8685 184.858C55.8967 184.658 55.9639 184.466 56.0664 184.292C56.1689 184.118 56.3047 183.966 56.4659 183.845L134.652 124.977C132.887 123.487 131.294 121.804 129.904 119.959C119.666 106.384 122.388 87.083 135.983 76.847C149.577 66.611 168.897 69.317 179.134 82.892C180.526 84.7352 181.706 86.7286 182.654 88.835L258.135 32.003C258.461 31.7577 258.87 31.6518 259.274 31.7084C259.678 31.765 260.042 31.9796 260.288 32.305ZM145.727 90.26C140.237 94.393 139.138 102.188 143.272 107.67C145.212 110.248 148.081 111.969 151.269 112.466L165.563 101.703C165.963 98.5031 165.099 95.2732 163.154 92.701C159.019 87.219 151.217 86.126 145.727 90.26Z" fill="#727272"/>
<mask id="mask1_315_35459" style="mask-type:alpha" maskUnits="userSpaceOnUse" x="58" y="28" width="419" height="435">
<path d="M259.493 28.27L58.8162 185.05C58.7364 185.112 58.6695 185.19 58.6196 185.278C58.5697 185.366 58.5376 185.463 58.5253 185.563C58.5129 185.664 58.5205 185.766 58.5476 185.863C58.5747 185.961 58.6208 186.052 58.6832 186.132L274.36 462.18C274.486 462.341 274.671 462.446 274.874 462.471C275.077 462.495 275.281 462.439 275.442 462.313L476.119 305.532C476.199 305.47 476.266 305.392 476.316 305.304C476.365 305.216 476.397 305.119 476.41 305.018C476.422 304.918 476.414 304.816 476.387 304.718C476.36 304.621 476.314 304.53 476.251 304.45L260.575 28.402C260.513 28.3222 260.436 28.2554 260.347 28.2054C260.259 28.1555 260.162 28.1235 260.062 28.1111C259.961 28.0987 259.859 28.1063 259.762 28.1334C259.664 28.1605 259.573 28.2066 259.493 28.269V28.27Z" fill="white"/>
</mask>
<g mask="url(#mask1_315_35459)">
<path d="M259.493 28.27L58.8162 185.05C58.7364 185.112 58.6695 185.19 58.6196 185.278C58.5697 185.366 58.5376 185.463 58.5253 185.563C58.5129 185.664 58.5205 185.766 58.5476 185.863C58.5747 185.961 58.6208 186.052 58.6832 186.132L274.36 462.18C274.486 462.341 274.671 462.446 274.874 462.471C275.077 462.495 275.281 462.439 275.442 462.313L476.119 305.532C476.199 305.47 476.266 305.392 476.316 305.304C476.365 305.216 476.397 305.119 476.41 305.018C476.422 304.918 476.414 304.816 476.387 304.718C476.36 304.621 476.314 304.53 476.251 304.45L260.575 28.402C260.513 28.3222 260.436 28.2554 260.347 28.2054C260.259 28.1555 260.162 28.1235 260.062 28.1111C259.961 28.0987 259.859 28.1063 259.762 28.1334C259.664 28.1605 259.573 28.2066 259.493 28.269V28.27Z" fill="#DBB58F"/>
<path fill-rule="evenodd" clip-rule="evenodd" d="M135.982 78.685C149.45 68.163 168.86 70.503 179.336 83.911C181.58 86.7769 183.295 90.02 184.401 93.488L201.678 79.99C209.67 73.746 221.212 75.164 227.457 83.158L234.568 92.259C235.119 92.9643 235.526 93.7713 235.765 94.6339C236.005 95.4965 236.072 96.3977 235.963 97.2862C235.854 98.1747 235.571 99.033 235.13 99.8121C234.689 100.591 234.099 101.276 233.394 101.827L134.402 179.166C133.697 179.717 132.889 180.124 132.027 180.363C131.164 180.602 130.263 180.669 129.374 180.56C128.486 180.451 127.628 180.167 126.849 179.727C126.07 179.286 125.385 178.696 124.834 177.99L117.723 168.889C111.478 160.895 112.894 149.354 120.886 143.11L138.632 129.246C135.535 127.334 132.803 124.885 130.565 122.014C120.089 108.606 122.514 89.207 135.982 78.685ZM145.961 91.94C140.522 96.19 139.543 104.024 143.774 109.439C148.004 114.854 155.843 115.799 161.282 111.55C166.721 107.3 167.7 99.466 163.47 94.051C159.239 88.636 151.4 87.69 145.961 91.94Z" fill="#DBB58F"/>
</g>
<path fill-rule="evenodd" clip-rule="evenodd" d="M82.8099 166.103C82.9711 165.977 83.1756 165.921 83.3785 165.945C83.5814 165.97 83.7661 166.075 83.8919 166.236L299.566 442.281C299.692 442.442 299.748 442.647 299.723 442.85C299.699 443.052 299.594 443.237 299.433 443.363L298.826 443.837C298.746 443.899 298.655 443.946 298.557 443.973C298.46 444 298.358 444.007 298.257 443.995C298.157 443.983 298.06 443.951 297.972 443.901C297.884 443.851 297.806 443.784 297.744 443.704L82.0699 167.66C82.0075 167.58 81.9614 167.489 81.9343 167.391C81.9072 167.294 81.8996 167.192 81.912 167.091C81.9244 166.991 81.9564 166.894 82.0063 166.806C82.0563 166.718 82.1231 166.64 82.2029 166.578L82.8099 166.103ZM108.315 146.177C108.476 146.051 108.681 145.995 108.883 146.019C109.086 146.044 109.271 146.149 109.397 146.31L325.07 422.355C325.132 422.435 325.179 422.526 325.206 422.623C325.233 422.721 325.241 422.823 325.228 422.923C325.216 423.024 325.184 423.121 325.134 423.209C325.084 423.297 325.018 423.375 324.938 423.437L324.331 423.911C324.251 423.973 324.16 424.02 324.062 424.047C323.965 424.074 323.863 424.081 323.762 424.069C323.662 424.057 323.565 424.025 323.477 423.975C323.389 423.925 323.311 423.858 323.249 423.778L107.575 147.734C107.513 147.654 107.466 147.563 107.439 147.465C107.412 147.368 107.405 147.266 107.417 147.165C107.429 147.065 107.461 146.968 107.511 146.88C107.561 146.792 107.628 146.714 107.708 146.652L108.315 146.177ZM133.82 126.251C133.981 126.125 134.186 126.069 134.388 126.093C134.591 126.118 134.776 126.223 134.902 126.384L350.575 402.429C350.637 402.509 350.684 402.6 350.711 402.697C350.738 402.795 350.746 402.897 350.733 402.997C350.721 403.098 350.689 403.195 350.639 403.283C350.589 403.371 350.523 403.449 350.443 403.511L349.836 403.985C349.756 404.047 349.665 404.094 349.567 404.121C349.47 404.148 349.368 404.155 349.267 404.143C349.167 404.131 349.07 404.099 348.982 404.049C348.894 403.999 348.816 403.932 348.754 403.852L133.08 127.808C133.018 127.728 132.971 127.637 132.944 127.539C132.917 127.442 132.91 127.34 132.922 127.239C132.934 127.139 132.966 127.042 133.016 126.954C133.066 126.866 133.133 126.788 133.213 126.726L133.82 126.251ZM159.325 106.325C159.486 106.199 159.691 106.143 159.893 106.167C160.096 106.192 160.281 106.297 160.407 106.458L376.08 382.503C376.142 382.583 376.189 382.674 376.216 382.771C376.243 382.869 376.251 382.971 376.238 383.071C376.226 383.172 376.194 383.269 376.144 383.357C376.094 383.445 376.028 383.523 375.948 383.585L375.34 384.059C375.26 384.121 375.169 384.167 375.072 384.194C374.974 384.221 374.872 384.229 374.772 384.216C374.672 384.204 374.575 384.172 374.487 384.122C374.398 384.072 374.321 384.006 374.259 383.926L158.585 107.882C158.523 107.802 158.476 107.711 158.449 107.613C158.422 107.516 158.415 107.414 158.427 107.313C158.439 107.213 158.471 107.116 158.521 107.028C158.571 106.94 158.638 106.862 158.718 106.8L159.325 106.325ZM184.83 86.399C184.991 86.2732 185.196 86.2165 185.398 86.2415C185.601 86.2664 185.786 86.3709 185.912 86.532L401.585 362.577C401.647 362.657 401.694 362.748 401.721 362.845C401.748 362.943 401.756 363.045 401.743 363.145C401.731 363.246 401.699 363.343 401.649 363.431C401.599 363.519 401.533 363.597 401.453 363.659L400.845 364.133C400.765 364.195 400.674 364.241 400.577 364.268C400.479 364.295 400.377 364.303 400.277 364.29C400.177 364.278 400.08 364.246 399.992 364.196C399.904 364.146 399.826 364.08 399.764 364L184.09 87.956C184.028 87.8763 183.981 87.785 183.954 87.6875C183.927 87.5899 183.92 87.4879 183.932 87.3874C183.944 87.2869 183.976 87.1898 184.026 87.1017C184.076 87.0136 184.143 86.9363 184.223 86.874L184.83 86.399ZM210.335 66.473C210.415 66.4106 210.506 66.3645 210.604 66.3374C210.701 66.3103 210.803 66.3027 210.904 66.3151C211.004 66.3274 211.101 66.3595 211.189 66.4094C211.277 66.4593 211.355 66.5261 211.417 66.606L427.09 342.651C427.152 342.731 427.199 342.822 427.226 342.919C427.253 343.017 427.261 343.119 427.248 343.219C427.236 343.32 427.204 343.417 427.154 343.505C427.104 343.593 427.038 343.671 426.958 343.733L426.35 344.207C426.27 344.269 426.179 344.315 426.082 344.342C425.984 344.369 425.882 344.377 425.782 344.364C425.682 344.352 425.585 344.32 425.497 344.27C425.409 344.22 425.331 344.154 425.269 344.074L209.595 68.029C209.533 67.9493 209.487 67.8581 209.46 67.7607C209.433 67.6632 209.425 67.5613 209.437 67.461C209.45 67.3606 209.482 67.2636 209.532 67.1756C209.582 67.0876 209.648 67.0103 209.728 66.948L210.335 66.473ZM235.84 46.547C236.001 46.4212 236.206 46.3645 236.408 46.3895C236.611 46.4144 236.796 46.5189 236.922 46.68L452.595 322.725C452.657 322.805 452.704 322.896 452.731 322.993C452.758 323.091 452.766 323.193 452.753 323.293C452.741 323.394 452.709 323.491 452.659 323.579C452.609 323.667 452.543 323.745 452.463 323.807L451.855 324.281C451.775 324.343 451.684 324.389 451.587 324.416C451.489 324.443 451.387 324.451 451.287 324.438C451.187 324.426 451.09 324.394 451.002 324.344C450.914 324.294 450.836 324.228 450.774 324.148L235.1 48.103C235.038 48.0233 234.992 47.9321 234.965 47.8347C234.938 47.7372 234.93 47.6353 234.942 47.535C234.955 47.4346 234.987 47.3376 235.037 47.2496C235.087 47.1616 235.153 47.0843 235.233 47.022L235.84 46.547Z" fill="#DBB58F"/>
<path fill-rule="evenodd" clip-rule="evenodd" d="M96.1528 187.145L254.884 63.135C255.551 62.6141 256.314 62.2297 257.129 62.0037C257.944 61.7777 258.796 61.7146 259.636 61.8178C260.476 61.9211 261.287 62.1887 262.024 62.6055C262.76 63.0223 263.407 63.5801 263.928 64.247L444.124 294.883C445.164 296.213 445.64 297.899 445.449 299.577C445.259 301.254 444.417 302.79 443.106 303.854L337.279 389.681C313.142 409.256 251.12 399.975 231.514 374.71C210.085 347.093 164.578 287.565 94.9938 196.125C93.9675 194.776 93.5137 193.078 93.7309 191.397C93.948 189.716 94.8175 188.189 96.1528 187.145Z" fill="#DBB58F"/>
<path fill-rule="evenodd" clip-rule="evenodd" d="M96.5943 190.134L255.325 66.124C256.672 65.072 258.382 64.5982 260.078 64.8067C261.774 65.0153 263.318 65.8891 264.37 67.236L444.565 297.87C445.605 299.2 446.081 300.886 445.891 302.564C445.701 304.242 444.859 305.778 443.548 306.842L337.72 392.67C313.583 412.245 251.561 402.964 231.955 377.698C210.526 350.082 165.019 290.554 95.4352 199.114C94.4089 197.765 93.9551 196.067 94.1723 194.386C94.3894 192.705 95.2589 191.178 96.5943 190.134Z" fill="#DBB58F"/>
<mask id="mask2_315_35459" style="mask-type:alpha" maskUnits="userSpaceOnUse" x="93" y="61" width="353" height="330">
<path d="M96.2004 187.108L254.883 63.136C256.23 62.0839 257.94 61.6099 259.636 61.8183C261.332 62.0266 262.876 62.9003 263.928 64.247L444.153 294.921C445.188 296.245 445.665 297.921 445.482 299.592C445.299 301.262 444.47 302.795 443.172 303.863C397.063 341.823 363.583 368.612 342.732 384.23C330.684 394.269 250.054 394.119 236.068 376.958C226.885 365.691 179.888 305.417 95.0784 196.136C94.0327 194.789 93.5635 193.082 93.7738 191.39C93.9841 189.698 94.8567 188.158 96.2004 187.108Z" fill="white"/>
</mask>
<g mask="url(#mask2_315_35459)">
<path d="M96.2004 187.108L254.883 63.136C256.23 62.0839 257.94 61.6099 259.636 61.8183C261.332 62.0266 262.876 62.9003 263.928 64.247L444.153 294.921C445.188 296.245 445.665 297.921 445.482 299.592C445.299 301.262 444.47 302.795 443.172 303.863C397.063 341.823 363.583 368.612 342.732 384.23C330.684 394.269 250.054 394.119 236.068 376.958C226.885 365.691 179.888 305.417 95.0784 196.136C94.0327 194.789 93.5635 193.082 93.7738 191.39C93.9841 189.698 94.8567 188.158 96.2004 187.108Z" fill="white"/>
<path fill-rule="evenodd" clip-rule="evenodd" d="M136.805 78.806C150.273 68.284 169.683 70.624 180.159 84.033C182.403 86.8986 184.118 90.1413 185.224 93.609L202.501 80.111C210.493 73.867 222.034 75.286 228.28 83.279L235.391 92.381C235.942 93.0862 236.349 93.8931 236.588 94.7556C236.828 95.6181 236.895 96.5193 236.786 97.4077C236.677 98.2961 236.394 99.1543 235.953 99.9333C235.512 100.712 234.922 101.397 234.217 101.948L135.224 179.288C133.799 180.401 131.991 180.902 130.197 180.681C128.403 180.461 126.77 179.537 125.657 178.112L118.546 169.01C112.3 161.017 113.716 149.475 121.708 143.231L139.454 129.367C136.357 127.455 133.626 125.006 131.388 122.136C120.912 108.727 123.337 89.328 136.805 78.806ZM146.784 92.062C141.345 96.312 140.366 104.146 144.596 109.561C148.827 114.975 156.666 115.92 162.105 111.671C167.544 107.422 168.523 99.588 164.292 94.173C160.062 88.758 152.223 87.813 146.784 92.063V92.062Z" fill="#DBB58F"/>
</g>
<mask id="mask3_315_35459" style="mask-type:alpha" maskUnits="userSpaceOnUse" x="116" y="71" width="123" height="109">
<path d="M138.877 77.555C152.323 67.049 171.736 69.428 182.237 82.868C184.486 85.7401 186.207 88.9889 187.32 92.463L204.513 79.031C212.524 72.771 224.093 74.194 230.353 82.206L237.49 91.342C238.041 92.0472 238.448 92.854 238.687 93.7165C238.927 94.5789 238.994 95.4801 238.885 96.3685C238.776 97.2569 238.493 98.1151 238.052 98.8942C237.612 99.6732 237.022 100.358 236.317 100.909L137.497 178.114C136.072 179.227 134.264 179.728 132.469 179.507C130.675 179.287 129.042 178.363 127.929 176.938L120.791 167.802C114.531 159.79 115.951 148.221 123.962 141.962L141.623 128.165C138.521 126.244 135.786 123.788 133.543 120.911C123.042 107.471 125.431 88.06 138.877 77.555ZM148.881 90.841C143.45 95.084 142.486 102.923 146.727 108.351C150.967 113.778 158.807 114.739 164.237 110.496C169.668 106.254 170.632 98.415 166.391 92.987C162.151 87.559 154.311 86.599 148.881 90.841Z" fill="white"/>
</mask>
<g mask="url(#mask3_315_35459)">
<path d="M138.877 77.555C152.323 67.049 171.736 69.428 182.237 82.868C184.486 85.7401 186.207 88.9889 187.32 92.463L204.513 79.031C212.524 72.771 224.093 74.194 230.353 82.206L237.49 91.342C238.041 92.0472 238.448 92.854 238.687 93.7165C238.927 94.5789 238.994 95.4801 238.885 96.3685C238.776 97.2569 238.493 98.1151 238.052 98.8942C237.612 99.6732 237.022 100.358 236.317 100.909L137.497 178.114C136.072 179.227 134.264 179.728 132.469 179.507C130.675 179.287 129.042 178.363 127.929 176.938L120.791 167.802C114.531 159.79 115.951 148.221 123.962 141.962L141.623 128.165C138.521 126.244 135.786 123.788 133.543 120.911C123.042 107.471 125.431 88.06 138.877 77.555ZM148.881 90.841C143.45 95.084 142.486 102.923 146.727 108.351C150.967 113.778 158.807 114.739 164.237 110.496C169.668 106.254 170.632 98.415 166.391 92.987C162.151 87.559 154.311 86.599 148.881 90.841Z" fill="white"/>
<path d="M243.566 81.398L117.35 180.008L127.003 192.363L253.219 93.753L243.566 81.398Z" fill="white"/>
</g>
<path fill-rule="evenodd" clip-rule="evenodd" d="M292.399 210.682C306.179 221.157 317.22 228.783 325.521 233.56C337.974 240.724 351.581 254.266 363.956 265.128C372.206 272.368 389.528 286.86 415.923 308.601L381.952 344.007L285.754 260.582L292.845 363.049L247.637 352.941L226.275 258.71L292.399 210.682Z" fill="white" stroke="black" stroke-width="1.327" stroke-linecap="round" stroke-linejoin="round"/>
<path d="M279.875 222.288C288.3 230.517 301.222 232.008 311.297 225.914L312.311 225.301" stroke="black" stroke-width="1.327" stroke-linecap="round" stroke-linejoin="round"/>
<path d="M277.283 225.064C287.089 234.627 302.128 236.33 313.821 229.203L315.345 228.274" stroke="black" stroke-width="0.842" stroke-linecap="round" stroke-linejoin="round" stroke-dasharray="2.53 2.53"/>
<path d="M249.348 247.044C251.519 251.697 252.061 256.946 250.887 261.945C249.714 266.943 246.893 271.402 242.879 274.604L240.295 276.664" stroke="black" stroke-width="1.327" stroke-linecap="round" stroke-linejoin="round"/>
<path d="M253.3 245.181C258.431 256.234 255.297 269.364 245.727 276.904L242.111 279.754" stroke="black" stroke-width="0.842" stroke-linecap="round" stroke-linejoin="round" stroke-dasharray="2.53 2.53"/>
<path d="M264.623 234.563L285.655 262.265M270.544 229.811L284.546 248.377C286.032 250.347 286.926 252.7 287.122 255.159C287.319 257.619 286.81 260.084 285.656 262.265" stroke="black" stroke-width="1.327" stroke-linecap="round" stroke-linejoin="round"/>
<path fill-rule="evenodd" clip-rule="evenodd" d="M183.478 139.52L178.322 146.594C177.87 147.214 177.545 147.917 177.365 148.662C177.184 149.408 177.153 150.181 177.272 150.939C177.391 151.697 177.658 152.424 178.057 153.078C178.457 153.733 178.982 154.302 179.602 154.754L179.616 154.765C180.876 155.677 182.446 156.053 183.982 155.81C185.518 155.566 186.895 154.724 187.811 153.467L201.087 135.251" fill="white"/>
<path d="M183.478 139.52L178.322 146.594C177.87 147.214 177.545 147.917 177.365 148.662C177.184 149.408 177.153 150.181 177.272 150.939C177.391 151.697 177.658 152.424 178.057 153.078C178.457 153.733 178.982 154.302 179.602 154.754L179.616 154.765C180.876 155.677 182.446 156.053 183.982 155.81C185.518 155.566 186.895 154.724 187.811 153.467L201.087 135.251" stroke="black" stroke-width="1.327" stroke-linecap="round" stroke-linejoin="round"/>
<path d="M202.702 97.454L207.109 133.325L174.015 137.386L169.609 101.515L202.702 97.454Z" fill="white"/>
<path fill-rule="evenodd" clip-rule="evenodd" d="M247.66 134.431L155.043 147.345C153.488 147.562 151.909 147.16 150.646 146.227C149.383 145.293 148.536 143.902 148.287 142.351C148.165 141.589 148.194 140.811 148.373 140.06C148.551 139.31 148.876 138.602 149.329 137.977C149.782 137.352 150.353 136.823 151.011 136.419C151.669 136.016 152.399 135.746 153.161 135.625L177.231 131.814" fill="white"/>
<path d="M247.66 134.431L155.043 147.345C153.488 147.562 151.909 147.16 150.646 146.227C149.383 145.293 148.536 143.902 148.287 142.351C148.165 141.589 148.194 140.811 148.373 140.06C148.551 139.31 148.876 138.602 149.329 137.977C149.782 137.352 150.353 136.823 151.011 136.419C151.669 136.016 152.399 135.746 153.161 135.625L177.231 131.814" stroke="black" stroke-width="1.327" stroke-linecap="round" stroke-linejoin="round"/>
<path fill-rule="evenodd" clip-rule="evenodd" d="M177.23 131.818L153.022 135.65C152.283 135.767 151.527 135.737 150.798 135.563C150.07 135.388 149.383 135.071 148.777 134.631C148.171 134.19 147.658 133.635 147.267 132.996C146.875 132.357 146.614 131.648 146.496 130.908L146.491 130.872C146.262 129.363 146.639 127.826 147.539 126.594C148.44 125.362 149.791 124.537 151.298 124.298L175.512 120.464" fill="white"/>
<path d="M177.23 131.818L153.023 135.65C151.529 135.887 150.002 135.52 148.778 134.631C147.554 133.741 146.733 132.402 146.496 130.908L146.491 130.872C146.262 129.363 146.639 127.826 147.539 126.594C148.44 125.362 149.791 124.537 151.298 124.298L175.512 120.464" stroke="black" stroke-width="1.327" stroke-linecap="round" stroke-linejoin="round"/>
<path fill-rule="evenodd" clip-rule="evenodd" d="M175.514 120.466L151.402 124.284C149.89 124.523 148.345 124.152 147.106 123.251C145.867 122.351 145.036 120.996 144.796 119.484L144.786 119.414C144.562 117.877 144.954 116.314 145.879 115.066C146.803 113.818 148.183 112.986 149.718 112.752L173.81 109.084" fill="white"/>
<path d="M175.514 120.466L151.402 124.284C149.89 124.523 148.345 124.152 147.106 123.251C145.867 122.351 145.036 120.996 144.796 119.484L144.786 119.414C144.562 117.877 144.954 116.314 145.879 115.066C146.803 113.818 148.183 112.986 149.718 112.752L173.81 109.084" stroke="black" stroke-width="1.327" stroke-linecap="round" stroke-linejoin="round"/>
<path fill-rule="evenodd" clip-rule="evenodd" d="M173.942 108.7L149.955 112.644C149.172 112.773 148.372 112.746 147.6 112.565C146.828 112.384 146.099 112.053 145.455 111.591C144.811 111.129 144.265 110.544 143.847 109.87C143.428 109.197 143.147 108.447 143.019 107.665L143.01 107.609C142.762 106.009 143.158 104.375 144.111 103.066C145.063 101.757 146.496 100.878 148.095 100.621L217.242 89.544" fill="white"/>
<path d="M173.942 108.7L149.955 112.644C149.172 112.773 148.372 112.746 147.6 112.565C146.828 112.384 146.099 112.053 145.455 111.591C144.811 111.129 144.265 110.544 143.847 109.87C143.428 109.197 143.147 108.447 143.019 107.665L143.01 107.609C142.762 106.009 143.158 104.375 144.111 103.066C145.063 101.757 146.496 100.878 148.095 100.621L217.242 89.544" stroke="black" stroke-width="1.327" stroke-linecap="round" stroke-linejoin="round"/>
<path fill-rule="evenodd" clip-rule="evenodd" d="M201.259 96.272L267.972 91.949C278.649 91.258 287.868 99.353 288.562 110.031C288.825 114.09 287.805 118.13 285.645 121.577L262.413 158.64L296.961 208.462L230.105 259.36L222.181 247.157L184.078 274.228C176.115 279.885 165.071 278.015 159.412 270.05C157.248 267.006 156.103 263.355 156.142 259.62L156.731 202.477C156.763 199.305 157.485 196.178 158.845 193.312C160.205 190.447 162.172 187.911 164.609 185.88L200.628 155.865L224.252 127.957L203.194 133.132L201.259 96.272Z" fill="white" stroke="black" stroke-width="1.327" stroke-linecap="round" stroke-linejoin="round"/>
<path d="M188.172 172.99L214.344 170.976L215.128 143.556" stroke="black" stroke-width="1.327"/>
<path fill-rule="evenodd" clip-rule="evenodd" d="M197.504 85.924L203.2 142.618L212.375 141.913L296.692 224.391C299.313 226.954 302.428 228.957 305.849 230.276C309.269 231.596 312.922 232.204 316.586 232.065L338.442 231.232L266.32 158.079L294.014 105.24C298.889 95.94 295.301 84.446 285.999 79.569C282.657 77.8167 278.869 77.0982 275.118 77.505L197.504 85.924Z" fill="#E4E4E4" stroke="black" stroke-width="1.327" stroke-linejoin="round"/>
<path fill-rule="evenodd" clip-rule="evenodd" d="M195.373 83.047L216.311 77.107L221.881 129.685L212.111 142.224L202.406 143.415L195.373 83.047Z" fill="#E4E4E4" stroke="black" stroke-width="1.327" stroke-linejoin="round"/>
<path d="M223.105 127.956L235.897 152.457L249.407 152.458C251.739 152.459 254.024 153.117 255.998 154.358C257.972 155.6 259.555 157.373 260.566 159.474L287.334 215.126" stroke="black" stroke-width="1.327" stroke-linecap="round"/>
<path fill-rule="evenodd" clip-rule="evenodd" d="M217.545 84.248H218.531L224.132 125.789L221.885 129.683L217.545 84.248Z" fill="black"/>
<path fill-rule="evenodd" clip-rule="evenodd" d="M221.744 191.497L224.462 183.175C224.943 181.702 224.819 180.099 224.117 178.718C223.416 177.337 222.195 176.291 220.722 175.81L220.705 175.804C219.226 175.326 217.617 175.453 216.231 176.159C214.845 176.865 213.796 178.092 213.313 179.57L206.316 200.998" fill="white"/>
<path d="M221.744 191.497L224.462 183.175C224.943 181.702 224.819 180.099 224.117 178.718C223.416 177.337 222.195 176.291 220.722 175.81L220.705 175.804C219.226 175.326 217.617 175.453 216.231 176.159C214.845 176.865 213.796 178.092 213.313 179.57L206.316 200.998" stroke="black" stroke-width="1.327" stroke-linecap="round" stroke-linejoin="round"/>
<path d="M204.616 167.712L235.036 214.554C235.506 215.278 236.114 215.902 236.825 216.391C237.536 216.879 238.337 217.223 239.181 217.403C240.025 217.582 240.896 217.593 241.744 217.436C242.593 217.279 243.402 216.956 244.125 216.486L265.247 202.771C265.971 202.301 266.595 201.693 267.084 200.982C267.572 200.271 267.916 199.47 268.095 198.626C268.275 197.782 268.286 196.911 268.129 196.063C267.971 195.215 267.648 194.406 267.178 193.682L236.758 146.841C236.289 146.117 235.681 145.493 234.97 145.004C234.259 144.515 233.458 144.171 232.614 143.992C231.77 143.812 230.899 143.801 230.051 143.958C229.202 144.115 228.393 144.438 227.669 144.908L206.548 158.624C205.087 159.573 204.063 161.064 203.7 162.768C203.338 164.472 203.667 166.251 204.616 167.712Z" fill="black"/>
<path d="M209.547 205.572L229.231 235.881L257.194 217.723L237.51 187.413L209.547 205.572Z" fill="white"/>
<path fill-rule="evenodd" clip-rule="evenodd" d="M198.877 262.793L278.13 213.156C279.461 212.322 280.412 211 280.779 209.473C281.146 207.947 280.901 206.337 280.095 204.989C279.297 203.653 278 202.69 276.492 202.31C274.983 201.93 273.385 202.165 272.049 202.963L272.038 202.97L251.149 215.521" fill="white"/>
<path d="M198.877 262.793L278.13 213.156C279.461 212.322 280.412 211 280.779 209.473C281.146 207.947 280.901 206.337 280.095 204.989C279.297 203.653 278 202.69 276.492 202.31C274.983 201.93 273.385 202.165 272.049 202.963L272.038 202.97L251.149 215.521" stroke="black" stroke-width="1.327" stroke-linecap="round" stroke-linejoin="round"/>
<path fill-rule="evenodd" clip-rule="evenodd" d="M251.15 215.522L272.158 202.899C272.8 202.513 273.36 202.005 273.805 201.403C274.251 200.801 274.574 200.117 274.755 199.39C274.936 198.663 274.972 197.907 274.861 197.167C274.751 196.426 274.495 195.714 274.109 195.072L274.09 195.041C273.296 193.738 272.019 192.802 270.537 192.438C269.056 192.073 267.49 192.309 266.182 193.095L245.168 205.721" fill="white"/>
<path d="M251.15 215.522L272.158 202.899C272.8 202.513 273.36 202.005 273.805 201.403C274.251 200.801 274.574 200.117 274.755 199.39C274.936 198.663 274.972 197.907 274.861 197.167C274.751 196.426 274.495 195.714 274.109 195.072L274.09 195.041C273.296 193.738 272.019 192.802 270.537 192.438C269.056 192.073 267.49 192.309 266.182 193.095L245.168 205.721" stroke="black" stroke-width="1.327" stroke-linecap="round" stroke-linejoin="round"/>
<path fill-rule="evenodd" clip-rule="evenodd" d="M245.168 205.722L266.093 193.15C266.748 192.756 267.318 192.237 267.771 191.621C268.224 191.005 268.549 190.306 268.73 189.563C268.91 188.821 268.941 188.05 268.821 187.295C268.701 186.54 268.433 185.817 268.031 185.167C267.215 183.846 265.91 182.901 264.399 182.538C262.889 182.176 261.297 182.426 259.97 183.234L239.156 195.908" fill="white"/>
<path d="M245.168 205.722L266.093 193.15C266.748 192.756 267.318 192.237 267.771 191.621C268.224 191.005 268.549 190.306 268.73 189.563C268.91 188.821 268.941 188.05 268.821 187.295C268.701 186.54 268.433 185.817 268.031 185.167C267.215 183.846 265.91 182.901 264.399 182.538C262.889 182.176 261.297 182.426 259.97 183.234L239.156 195.908" stroke="black" stroke-width="1.327" stroke-linecap="round" stroke-linejoin="round"/>
<path fill-rule="evenodd" clip-rule="evenodd" d="M238.811 195.7L259.72 183.304C261.097 182.487 262.094 181.157 262.49 179.606C262.886 178.055 262.651 176.409 261.834 175.032L261.804 174.983C260.965 173.598 259.612 172.601 258.041 172.21C256.469 171.82 254.807 172.068 253.417 172.899L193.326 208.858" fill="white"/>
<path d="M238.811 195.7L259.72 183.304C261.097 182.487 262.094 181.157 262.49 179.606C262.886 178.055 262.651 176.409 261.834 175.032L261.804 174.983C260.965 173.598 259.612 172.601 258.041 172.21C256.469 171.82 254.807 172.068 253.417 172.899L193.326 208.858" stroke="black" stroke-width="1.327" stroke-linecap="round" stroke-linejoin="round"/>
<path fill-rule="evenodd" clip-rule="evenodd" d="M193.72 163.85L180.922 147.469L196.228 135.511L209.026 151.891" fill="white"/>
<path d="M193.72 163.85L180.922 147.469L196.228 135.511L209.026 151.891" stroke="black" stroke-width="1.327" stroke-linecap="round" stroke-linejoin="round"/>
<mask id="mask4_315_35459" style="mask-type:alpha" maskUnits="userSpaceOnUse" x="180" y="135" width="30" height="31">
<path d="M180.922 147.469L196.228 135.511L207.365 149.765C210.668 153.992 209.919 160.096 205.692 163.398C201.465 166.701 195.361 165.95 192.058 161.723L180.922 147.469Z" fill="white"/>
</mask>
<g mask="url(#mask4_315_35459)">
<path d="M200.259 144.574C209.806 137.115 211.955 123.912 205.058 115.084C198.16 106.257 184.829 105.147 175.282 112.606C165.735 120.065 163.586 133.268 170.484 142.096C177.381 150.924 190.712 152.033 200.259 144.574Z" fill="black"/>
</g>
<path d="M188.015 111.754C182.055 104.125 171.039 102.772 163.411 108.731C155.784 114.69 154.433 125.705 160.394 133.334L164.423 138.491C170.383 146.119 181.397 147.473 189.025 141.514C196.652 135.555 198.005 124.54 192.044 116.911L188.015 111.754Z" fill="black"/>
<path fill-rule="evenodd" clip-rule="evenodd" d="M175.887 105.51C174.987 102.935 176.494 102.451 180.408 104.057C184.322 105.663 188.174 110.097 191.966 117.36C191.036 118.732 190.39 119.404 190.028 119.376C184.97 118.988 180.987 115.432 177.521 112.914C173.682 110.126 173.137 107.658 175.887 105.51Z" fill="black"/>
<path fill-rule="evenodd" clip-rule="evenodd" d="M189.655 117.16L195.188 124.242C200.433 130.955 199.243 140.649 192.531 145.893C185.819 151.136 176.126 149.945 170.881 143.232L165.348 136.15C161.634 131.397 162.476 124.535 167.229 120.822L174.326 115.277C179.079 111.564 185.941 112.408 189.655 117.16Z" fill="white" stroke="black" stroke-width="1.402" stroke-linecap="round" stroke-linejoin="round"/>
<path d="M187.704 139.119C188.247 138.695 188.7 138.169 189.039 137.569C189.378 136.97 189.596 136.31 189.68 135.627C189.763 134.944 189.712 134.25 189.528 133.587C189.343 132.924 189.03 132.303 188.606 131.761M180.316 131.708L182.251 135.216L184.189 134.173" stroke="black" stroke-width="1.402" stroke-linecap="round" stroke-linejoin="round"/>
<path d="M173.476 135.549C174.798 134.516 175.389 133.063 174.795 132.304C174.202 131.544 172.649 131.766 171.327 132.799C170.005 133.832 169.414 135.285 170.008 136.044C170.601 136.804 172.154 136.582 173.476 135.549Z" stroke="black" stroke-width="0.935" stroke-linecap="round" stroke-linejoin="round"/>
<path d="M173.476 135.549C174.269 134.929 174.431 133.811 173.838 133.052C173.244 132.292 172.12 132.179 171.327 132.799C170.534 133.418 170.372 134.537 170.965 135.296C171.558 136.056 172.683 136.169 173.476 135.549Z" fill="black"/>
<path d="M186.736 125.19C188.059 124.157 188.649 122.704 188.056 121.944C187.463 121.185 185.91 121.406 184.588 122.439C183.265 123.472 182.675 124.925 183.268 125.685C183.862 126.444 185.414 126.223 186.736 125.19Z" stroke="black" stroke-width="0.935" stroke-linecap="round" stroke-linejoin="round"/>
<path d="M186.735 125.19C187.529 124.57 187.691 123.452 187.097 122.692C186.504 121.933 185.38 121.82 184.586 122.439C183.793 123.059 183.631 124.177 184.225 124.937C184.818 125.696 185.942 125.81 186.735 125.19Z" fill="black"/>
<path fill-rule="evenodd" clip-rule="evenodd" d="M160.215 115.765C167.402 106.576 174.451 101.732 181.362 101.232C191.728 100.482 195.535 117.744 177.343 125.343C165.214 130.409 159.505 127.216 160.215 115.765Z" fill="black"/>
<path fill-rule="evenodd" clip-rule="evenodd" d="M156.577 122.796C154.655 118.408 160.805 103.858 167.98 101.26C172.764 99.528 175.033 104.712 174.789 116.811C163.929 123.727 157.858 125.722 156.577 122.796Z" fill="black"/>
<path fill-rule="evenodd" clip-rule="evenodd" d="M158.641 120.17C154.406 121.362 153.018 123.981 154.477 128.028C155.936 132.074 159.86 135.611 166.25 138.637C166.21 134.171 165.302 129.738 163.525 125.339C161.749 120.94 160.121 119.217 158.641 120.17Z" fill="black"/>
<path fill-rule="evenodd" clip-rule="evenodd" d="M189.777 117.316L191.245 115.757C191.705 115.269 192.27 114.893 192.897 114.657C193.525 114.422 194.198 114.334 194.865 114.399C195.532 114.465 196.175 114.683 196.744 115.037C197.314 115.39 197.794 115.87 198.149 116.438C199.036 117.858 199.474 119.512 199.404 121.184C199.335 122.857 198.762 124.469 197.761 125.811L197.103 126.692L189.777 117.316Z" fill="white" stroke="black" stroke-width="1.402" stroke-linecap="round" stroke-linejoin="round"/>
<path d="M193.939 118.606L196.22 121.526M195.373 120.442L195.876 118.274" stroke="black" stroke-width="1.402" stroke-linecap="round" stroke-linejoin="round"/>
<path fill-rule="evenodd" clip-rule="evenodd" d="M165.864 136.816L163.995 137.862C163.41 138.19 162.908 138.647 162.528 139.199C162.148 139.751 161.9 140.383 161.802 141.046C161.705 141.709 161.761 142.386 161.966 143.024C162.171 143.662 162.52 144.244 162.986 144.726C164.149 145.93 165.648 146.755 167.288 147.092C168.927 147.43 170.631 147.264 172.175 146.617L173.189 146.192L165.864 136.816Z" fill="white" stroke="black" stroke-width="1.402" stroke-linecap="round" stroke-linejoin="round"/>
<path d="M166.108 141.166L168.39 144.085M167.543 143.001L165.318 142.965" stroke="black" stroke-width="1.402" stroke-linecap="round" stroke-linejoin="round"/>
<path fill-rule="evenodd" clip-rule="evenodd" d="M163.723 123.313C171.992 123.171 180.226 120.596 188.425 115.587C186.049 113.116 182.548 110.912 177.921 108.975L163.219 117.486L163.723 123.313Z" fill="black"/>
<path d="M212.375 141.919L237.976 107.391" stroke="black" stroke-width="1.327" stroke-linecap="round"/>
<path fill-rule="evenodd" clip-rule="evenodd" d="M185.275 168.495L207.729 196.776L206.31 201.001L204.678 201.931L230.009 243.382L241.684 235.886L260.518 265.976C262.113 268.522 263.081 271.41 263.343 274.403C263.606 277.395 263.156 280.408 262.03 283.193L253.221 304.985L218.531 255.76L155.777 293.563L156.727 202.124C156.759 199.062 157.453 196.043 158.761 193.274C160.07 190.506 161.962 188.053 164.308 186.085L185.275 168.495Z" fill="#E4E4E4" stroke="black" stroke-width="1.327" stroke-linejoin="round"/>
<path d="M205.254 202.833L203.165 199.265L179.814 215.562" stroke="black" stroke-width="1.327" stroke-linecap="round" stroke-linejoin="round"/>
<path d="M171.064 180.12L197.132 192.364L193.869 205.773" stroke="black" stroke-width="1.327" stroke-linecap="round" stroke-linejoin="round"/>
<path d="M236.682 239.475L248.33 246.184" stroke="black" stroke-width="1.327" stroke-linecap="round"/>
<path fill-rule="evenodd" clip-rule="evenodd" d="M187.494 203.746L204.61 195.353L235.751 247.192L219.165 260.584L187.494 203.746Z" fill="#E4E4E4" stroke="black" stroke-width="1.327" stroke-linejoin="round"/>
<path fill-rule="evenodd" clip-rule="evenodd" d="M214.113 258.438L216.887 256.721L189.92 208.396L189.348 208.857L214.113 258.438Z" fill="black"/>
<path fill-rule="evenodd" clip-rule="evenodd" d="M388.536 225.115L375.79 240.72L359.828 224.724L370.114 210.718" fill="white"/>
<path d="M388.536 225.115L375.79 240.72L359.828 224.724L370.114 210.718" stroke="black" stroke-width="1.327" stroke-linecap="round" stroke-linejoin="round"/>
<mask id="mask5_315_35459" style="mask-type:alpha" maskUnits="userSpaceOnUse" x="365" y="185" width="82" height="47">
<path d="M403.253 225.144L393.109 227.459C392.772 224.498 390.86 221.989 387.374 219.931C378.801 214.871 371.392 212.425 365.148 212.591L368.338 197.719C368.985 194.708 370.046 191.801 371.491 189.082L373.372 185.545C373.452 185.396 373.587 185.285 373.748 185.236C373.909 185.187 374.083 185.203 374.231 185.282L445.31 223.078C445.581 223.222 445.813 223.429 445.987 223.681C446.16 223.934 446.271 224.224 446.308 224.529C446.345 224.833 446.309 225.142 446.202 225.429C446.095 225.716 445.92 225.973 445.692 226.178L443.313 228.322C441.964 229.538 440.33 230.395 438.562 230.813C436.794 231.231 434.95 231.198 433.198 230.716L413.794 225.377C410.354 224.431 406.733 224.351 403.253 225.144Z" fill="white"/>
</mask>
<g mask="url(#mask5_315_35459)">
<path d="M392.497 228.279C392.444 225.164 390.582 222.595 387.036 220.503C378.209 215.293 370.64 212.871 364.318 213.294L367.689 197.581C368.348 194.51 369.43 191.545 370.904 188.771L373.094 184.653L445.621 222.492C445.919 222.65 446.183 222.866 446.398 223.126C446.613 223.387 446.774 223.687 446.872 224.01C447.017 224.478 447.024 224.977 446.893 225.448C446.763 225.92 446.5 226.344 446.135 226.671L443.756 228.815C442.324 230.106 440.59 231.015 438.714 231.459C436.838 231.903 434.88 231.868 433.021 231.356L413.617 226.017C410.282 225.1 406.773 225.022 403.4 225.791L392.497 228.279Z" stroke="black" stroke-width="1.327"/>
<path d="M383.759 225.411L388.133 210.491L380.137 194.526" stroke="black" stroke-width="6.356" stroke-linejoin="round"/>
<path fill-rule="evenodd" clip-rule="evenodd" d="M446.103 229.341L368.35 187.998L370.772 183.443L448.525 224.786L446.103 229.341Z" fill="black"/>
<path fill-rule="evenodd" clip-rule="evenodd" d="M389.707 193.024L385.119 197.713C383.269 199.603 380.96 200.98 378.418 201.708C375.875 202.437 373.187 202.492 370.618 201.868L362.078 199.795L361.727 181.554L375.748 173.983L388.993 185.215L389.707 193.024Z" fill="white" stroke="black" stroke-width="1.327" stroke-linecap="round" stroke-linejoin="round"/>
</g>
<path fill-rule="evenodd" clip-rule="evenodd" d="M378.562 240.61L361.911 222.405L360.244 224.392L377.558 241.806L378.562 240.61Z" fill="black"/>
<path fill-rule="evenodd" clip-rule="evenodd" d="M353.987 217.197C356.859 220.321 370.785 236.298 395.764 265.128L276.537 326.561L304.243 282.031C311.762 275.093 318.414 266.047 324.199 254.893C332.878 238.163 346.53 220.904 353.987 217.197Z" fill="white" stroke="black" stroke-width="1.327" stroke-linecap="round" stroke-linejoin="round"/>
</g>
</svg>
