<svg width="261" height="101" viewBox="0 0 261 101" fill="none" xmlns="http://www.w3.org/2000/svg">
<path d="M64.7867 3.62645V97.3721H3.33141V3.62645H64.7867ZM67.5935 0.818604H0.526123V100.181H67.5935V0.818604Z" fill="url(#paint0_linear_370_758)"/>
<path d="M44.0356 42.3959C42.8649 41.9406 42.4816 40.9211 42.3623 39.8881C42.1356 37.9222 42.6949 36.0174 43.011 34.0873C43.3287 32.1482 43.8924 30.2017 43.4883 28.085C42.6814 28.5806 41.894 29.003 41.1722 29.5195C39.12 30.9869 37.2036 32.6274 35.666 34.6351C34.6041 36.0234 33.6124 37.4669 33.0889 39.2014C32.5445 41.0032 31.8958 42.796 32.0956 44.6873C32.3387 46.9891 32.9442 49.173 34.2671 51.1777C35.845 53.5676 37.836 55.5141 39.9507 57.386C41.8388 59.0579 43.715 60.7492 45.5046 62.524C47.1049 64.1108 48.4009 65.9185 48.5664 68.2935C48.6649 69.7041 48.9497 71.1342 48.805 72.5194C48.5709 74.7645 47.6164 76.7125 45.779 78.1903C43.9059 79.698 41.7896 80.6385 39.4884 81.1699C37.7688 81.5669 36.0254 81.8879 34.2775 82.1282C32.4908 82.373 30.6878 82.4999 28.8877 82.6387C26.1346 82.8507 23.3785 83.0283 20.6224 83.2164C20.5225 83.2239 20.4196 83.1955 20.3615 83.1895C18.9059 80.3503 18.9998 77.3484 19.4965 74.3913C19.7142 73.0971 20.1646 71.6327 21.5307 70.9132C22.3047 70.5057 23.1429 70.0743 23.99 69.9728C26.4493 69.6787 28.9279 69.5489 31.3977 69.3473C33.2515 69.1951 35.1127 69.0966 36.9545 68.8518C38.4071 68.6592 39.7046 67.9785 40.8992 67.1336C41.5599 66.6664 41.6628 66.0126 41.3631 65.2975C40.7069 63.7361 39.9328 62.2374 38.8158 60.9492C37.3856 59.2982 35.7167 57.9249 33.857 56.7815C32.9189 56.2053 31.9838 55.6201 31.0651 55.0126C29.529 54.0005 27.9735 53.0138 26.4866 51.933C24.3613 50.3895 22.7849 48.3654 21.6873 45.983C21.4442 45.4545 21.3085 44.8724 21.1638 44.3036C20.4957 41.6883 20.6105 39.0775 21.4382 36.5324C22.1451 34.3605 22.8804 32.1796 23.8364 30.1106C24.6417 28.3686 25.714 26.7341 26.7908 25.1353C28.2598 22.9544 29.9003 20.8855 31.8391 19.1047C33.1232 17.9239 34.54 16.8805 35.9479 15.843C37.3557 14.9086 38.3848 14.8026 39.6957 14.6593C41.1036 14.5055 42.5204 14.5264 43.9014 14.9952C45.7298 15.6146 46.9319 16.8611 47.5404 18.6479C48.5754 21.6826 48.1742 24.8054 47.8521 27.882C47.6597 29.73 47.1213 31.5467 46.6694 33.3603C46.0758 35.7398 45.4286 38.1058 44.7724 40.4673C44.5979 41.0957 44.3085 41.6913 44.0371 42.3914L44.0356 42.3959Z" fill="url(#paint1_linear_370_758)"/>
<path d="M156.097 18.7453C156.097 20.5706 155.352 22.6882 153.856 25.098C152.612 27.3415 151.224 28.8746 149.687 29.7063C148.151 30.5381 147.388 30.4527 147.388 29.4546C147.388 29.3736 147.841 28.8746 148.758 27.9619C151.493 25.3902 152.863 23.2727 152.863 21.6092C152.863 18.0394 149.337 16.2545 142.289 16.2545C139.302 16.2545 135.363 16.8165 130.471 17.936C125.575 19.0555 120.85 20.8628 116.286 23.3536C110.977 26.2625 108.322 28.7937 108.322 30.9517C108.322 32.6961 109.939 34.3551 113.173 35.9332C114.916 36.7649 118.379 38.1542 123.563 40.1054C128.746 42.0567 132.933 43.7606 136.127 45.2083C139.32 46.6605 142.348 48.7151 145.209 51.3722C148.07 54.0293 149.503 56.9742 149.503 60.2157C149.503 63.4573 147.594 66.9821 143.781 70.7992C137.973 76.3606 130.426 80.9914 121.137 84.6826C111.848 88.3737 103.884 90.2216 97.2498 90.2216C84.1426 90.2216 77.5935 86.5259 77.5935 79.1391C77.5935 71.7523 81.6137 65.485 89.6631 60.3371C96.2975 55.7738 103.264 53.4898 110.564 53.4898C112.306 53.4898 113.092 53.7821 112.926 54.362C112.76 54.942 111.516 55.2567 109.194 55.2972C106.871 55.3376 103.884 56.1289 100.237 57.662C96.585 59.1996 93.1846 61.4206 90.0359 64.325C85.8854 68.0611 83.8147 71.7972 83.8147 75.5334C83.8147 77.8578 84.9332 79.9349 87.1746 81.7602C89.416 83.5856 93.6832 84.4983 99.9898 84.4983C106.296 84.4983 112.513 83.5001 118.653 81.5085C131.922 77.1114 140.219 72.2918 143.534 67.063C144.859 65.1523 145.523 63.5337 145.523 62.2074C145.523 58.3904 143.201 55.4006 138.557 53.2425C133.166 50.7518 125.616 47.8879 115.913 44.6508C112.181 43.4054 109.009 41.7689 106.395 39.7323C103.781 37.7001 102.474 35.2498 102.474 32.3859C102.474 29.522 104.028 26.6986 107.141 23.9201C110.249 21.1416 114.004 18.9206 118.402 17.2571C127.857 13.6873 135.862 11.9025 142.415 11.9025C151.538 11.9025 156.102 14.1864 156.102 18.7498L156.097 18.7453Z" fill="url(#paint2_linear_370_758)"/>
<path d="M180.232 70.7946C181.723 67.7239 182.473 65.359 182.473 63.6955C182.473 62.032 182.289 60.7282 181.912 59.7705C181.539 58.8174 181.705 58.0081 182.41 57.3427C183.116 56.6773 184.005 56.4301 185.087 56.5964C186.745 57.0145 187.576 58.8804 187.576 62.1984C187.576 65.5164 185.626 69.8774 181.728 75.2725C181.808 77.516 182.972 78.6355 185.213 78.6355C187.455 78.6355 190.855 76.2302 195.414 71.415C197.57 68.9243 198.918 67.3057 199.457 66.5594C199.996 65.8131 200.472 65.5433 200.885 65.7501C201.298 65.9569 201.505 66.1458 201.505 66.3121C201.505 67.1439 200.014 69.3019 197.027 72.7863C192.301 78.5995 188.11 81.5039 184.463 81.5039C182.055 81.5039 180.358 80.4653 179.365 78.3927C177.703 80.1371 176.086 81.7557 174.514 83.2483C171.28 85.9863 167.673 87.3576 163.688 87.3576C161.447 87.3576 159.583 86.8181 158.087 85.739C155.181 83.9946 153.734 80.8834 153.734 76.401C153.734 71.5049 155.392 66.5234 158.711 61.4565C160.616 58.4667 162.857 55.8546 165.431 53.6111C169.496 50.0413 173.35 48.2565 177.002 48.2565C177.914 48.2565 178.785 48.3824 179.616 48.6296C182.105 49.4614 183.349 51.0394 183.349 53.3638C183.349 55.2746 182.851 56.2277 181.858 56.2277C181.44 56.0614 181.238 55.441 181.238 54.362C181.238 52.8693 180.407 52.1185 178.749 52.1185C175.843 52.1185 172.115 54.7756 167.551 60.0898C162.988 65.404 160.252 70.7586 159.34 76.1537C159.174 77.0664 159.093 78.0825 159.093 79.2064C159.093 80.3304 159.466 81.6163 160.212 83.0685C160.957 84.5206 162.345 85.249 164.38 85.249C166.415 85.249 168.629 84.3363 171.037 82.511C173.44 80.6856 175.596 78.3612 177.505 75.5378L177.132 74.7914C176.8 73.4651 176.966 72.3861 177.631 71.5544C178.296 70.7271 179.167 70.4753 180.245 70.808L180.232 70.7946Z" fill="url(#paint3_linear_370_758)"/>
<path d="M204.241 68.5556C203.244 71.3791 202.704 73.2674 202.624 74.2205C202.538 75.1781 202.498 76.464 202.498 78.0825C202.498 79.701 202.911 81.1757 203.742 82.502C205.153 84.7455 207.515 84.9073 210.835 83.0011C213.323 81.6748 216.472 79.247 220.29 75.7177C224.104 72.1884 227.05 68.9738 229.125 66.0649C229.292 65.8176 229.539 65.6917 229.871 65.6917C230.617 65.6917 230.823 66.2312 230.491 67.3103C229.247 69.5537 226.947 72.4176 223.587 75.902C220.227 79.3863 217.182 82.1513 214.442 84.1835C211.706 86.2156 208.966 87.2362 206.231 87.2362C199.924 87.2362 196.775 84.1655 196.775 78.0196V77.2732C197.103 71.4645 200.05 62.6839 205.606 50.9361C211.163 39.1882 216.18 30.3267 220.663 24.3517L224.521 19.496C225.433 18.417 226.763 17.0907 228.501 15.5126C231.816 12.361 235.239 10.7784 238.765 10.7784C242.291 10.7784 244.676 11.8574 245.92 14.0155C246.334 14.7618 246.545 15.8408 246.545 17.2526C246.545 18.6643 245.92 20.656 244.681 23.2321C236.137 38.0957 222.662 53.202 204.245 68.5601L204.241 68.5556ZM241.316 20.9842C242.313 19.1588 242.808 17.7471 242.808 16.749C242.808 15.0046 242.102 14.1324 240.692 14.1324C239.529 14.1324 238.078 14.7978 236.339 16.1241C229.7 21.2719 223.277 29.4096 217.056 40.5325C212.079 49.4974 208.427 57.1764 206.109 63.5697C211.832 59.6672 218.237 53.3189 225.33 44.5159C232.422 35.7174 237.75 27.872 241.316 20.9797V20.9842Z" fill="url(#paint4_linear_370_758)"/>
<path d="M260.474 62.2029C260.411 58.8849 259.643 57.0146 257.985 56.601C256.907 56.4347 256.014 56.6864 255.308 57.3473C254.603 58.0127 254.437 58.822 254.81 59.7751C255.183 60.7328 255.371 62.0366 255.371 63.7001C255.371 65.3636 253.076 71.5859 250.394 75.5289C248.481 78.3478 246.329 80.6767 243.926 82.5021C241.518 84.3274 239.299 85.2401 237.269 85.2401C235.239 85.2401 233.846 84.5117 233.101 83.0596C232.355 81.6074 231.982 80.3215 231.982 79.1976C231.982 78.0736 232.063 77.062 232.229 76.1448C233.141 70.7497 235.877 65.395 240.44 60.0809C245 54.7712 248.732 52.1096 251.639 52.1096C253.296 52.1096 254.127 52.8559 254.127 54.353C254.127 55.4321 254.334 56.057 254.747 56.2188C255.744 56.2188 256.238 55.2657 256.238 53.3549C256.238 51.0305 254.994 49.4525 252.505 48.6207C251.674 48.3735 250.803 48.2476 249.891 48.2476C246.239 48.2476 242.385 50.0325 238.32 53.6022C235.751 55.8457 233.51 58.4578 231.6 61.4476C228.281 66.5145 226.624 71.4915 226.624 76.3921C226.624 80.8745 228.074 83.9902 230.976 85.7301C232.472 86.8092 234.336 87.3487 236.577 87.3487C240.557 87.3487 244.169 85.9774 247.403 83.2394C248.979 81.7467 250.799 80.2991 252.254 78.3838C256.557 72.7144 260.55 66.9551 260.465 62.1939L260.474 62.2029Z" fill="url(#paint5_linear_370_758)"/>
<defs>
<linearGradient id="paint0_linear_370_758" x1="34.0598" y1="0.818604" x2="34.0598" y2="100.181" gradientUnits="userSpaceOnUse">
<stop stop-color="#F4CBA2"/>
<stop offset="0.15" stop-color="#F3DEBC"/>
<stop offset="0.39" stop-color="#D5AA83"/>
<stop offset="0.63" stop-color="#A67B5E"/>
<stop offset="0.86" stop-color="#D5AA83"/>
<stop offset="1" stop-color="#D5AA83"/>
</linearGradient>
<linearGradient id="paint1_linear_370_758" x1="34.0061" y1="14.5772" x2="34.0061" y2="83.2194" gradientUnits="userSpaceOnUse">
<stop stop-color="#F4CBA2"/>
<stop offset="0.15" stop-color="#F3DEBC"/>
<stop offset="0.39" stop-color="#D5AA83"/>
<stop offset="0.63" stop-color="#A67B5E"/>
<stop offset="0.86" stop-color="#D5AA83"/>
<stop offset="1" stop-color="#D5AA83"/>
</linearGradient>
<linearGradient id="paint2_linear_370_758" x1="116.843" y1="11.8935" x2="116.843" y2="90.2216" gradientUnits="userSpaceOnUse">
<stop stop-color="#F4CBA2"/>
<stop offset="0.15" stop-color="#F3DEBC"/>
<stop offset="0.39" stop-color="#D5AA83"/>
<stop offset="0.63" stop-color="#A67B5E"/>
<stop offset="0.86" stop-color="#D5AA83"/>
<stop offset="1" stop-color="#D5AA83"/>
</linearGradient>
<linearGradient id="paint3_linear_370_758" x1="177.618" y1="48.2565" x2="177.618" y2="87.3576" gradientUnits="userSpaceOnUse">
<stop stop-color="#F4CBA2"/>
<stop offset="0.15" stop-color="#F3DEBC"/>
<stop offset="0.39" stop-color="#D5AA83"/>
<stop offset="0.63" stop-color="#A67B5E"/>
<stop offset="0.86" stop-color="#D5AA83"/>
<stop offset="1" stop-color="#D5AA83"/>
</linearGradient>
<linearGradient id="paint4_linear_370_758" x1="221.66" y1="10.7739" x2="221.66" y2="87.2317" gradientUnits="userSpaceOnUse">
<stop stop-color="#F4CBA2"/>
<stop offset="0.15" stop-color="#F3DEBC"/>
<stop offset="0.39" stop-color="#D5AA83"/>
<stop offset="0.63" stop-color="#A67B5E"/>
<stop offset="0.86" stop-color="#D5AA83"/>
<stop offset="1" stop-color="#D5AA83"/>
</linearGradient>
<linearGradient id="paint5_linear_370_758" x1="243.558" y1="48.2566" x2="243.558" y2="87.3577" gradientUnits="userSpaceOnUse">
<stop stop-color="#F4CBA2"/>
<stop offset="0.15" stop-color="#F3DEBC"/>
<stop offset="0.39" stop-color="#D5AA83"/>
<stop offset="0.63" stop-color="#A67B5E"/>
<stop offset="0.86" stop-color="#D5AA83"/>
<stop offset="1" stop-color="#D5AA83"/>
</linearGradient>
</defs>
</svg>
