<svg width="401" height="301" viewBox="0 0 401 301" fill="none" xmlns="http://www.w3.org/2000/svg">
<mask id="mask0_315_32506" style="mask-type:luminance" maskUnits="userSpaceOnUse" x="0" y="0" width="401" height="301">
<path d="M0.5 0.5H400.5V300.5H0.5V0.5Z" fill="white"/>
</mask>
<g mask="url(#mask0_315_32506)">
<path fill-rule="evenodd" clip-rule="evenodd" d="M213.291 55.698C276.824 88.234 314.96 94.008 331.73 137.329C348.501 180.65 332.647 234.567 272.605 247.849C212.562 261.132 213.935 279.255 123.315 282.759C32.6953 286.264 -2.50669 133.01 58.4243 81.391C119.354 29.771 149.758 23.161 213.291 55.698Z" fill="#F2F5FF"/>
<mask id="mask1_315_32506" style="mask-type:alpha" maskUnits="userSpaceOnUse" x="17" y="21" width="369" height="260">
<path d="M213.624 43.924C251.441 65.358 336.466 17.184 357.132 32.642C364.179 37.913 390.803 75.352 383.868 110.494C374.229 159.332 330.908 233.093 270.883 247.789C248.112 253.365 226.44 263.46 203.911 270.157C167.892 280.866 129.498 287.934 80.9259 267.771C2.66388 235.282 -2.11012 129.464 58.8029 72.351C119.715 15.24 150.11 7.92501 213.624 43.924Z" fill="white"/>
</mask>
<g mask="url(#mask1_315_32506)">
<mask id="mask2_315_32506" style="mask-type:alpha" maskUnits="userSpaceOnUse" x="20" y="26" width="363" height="273">
<path d="M382.701 90.201L174.869 298.034L110.776 233.942L110.936 233.781L20.5498 143.397L84.6418 79.305L175.028 169.689L318.609 26.109L382.701 90.201Z" fill="white"/>
</mask>
<g mask="url(#mask2_315_32506)">
<path d="M382.701 90.201L174.869 298.034L110.776 233.942L110.936 233.781L20.5498 143.397L84.6418 79.305L175.028 169.689L318.609 26.109L382.701 90.201Z" fill="#DBB58F"/>
<path d="M161.972 -46.973C164.724 18.6 186.773 59.009 228.12 74.25C269.467 89.491 326.993 71.681 400.699 20.82" stroke="white" stroke-width="1.32"/>
<path d="M186.723 -46.11C195.186 31.165 168.762 70.014 107.45 70.437C15.4818 71.071 84.2638 3.64701 114.623 32.542C144.982 61.437 140.329 121.545 90.0049 161.097C56.4549 187.465 18.8449 199.921 -22.8271 198.466M368.585 171.703C233.177 158.195 123.839 202.762 40.5699 305.405" stroke="white" stroke-width="1.32"/>
<path d="M12.4375 158.254C100.626 185.226 156.318 235.893 179.514 310.256" stroke="white" stroke-width="1.32"/>
<path d="M371.568 86.292C309.408 144.154 266.87 160.123 243.954 134.198C209.58 95.312 278.784 68.052 287.664 102.044C296.545 136.035 241.855 160.855 169.87 170.23C121.879 176.48 64.2103 209.139 -3.13867 268.206M230.85 312.049C223.852 259.334 236.379 231.626 268.429 228.926C300.479 226.226 335.476 241.52 373.419 274.81" stroke="white" stroke-width="1.32"/>
<path d="M370.208 125.252C311.413 178.699 284.667 245.052 289.97 324.311" stroke="white" stroke-width="1.32"/>
<path d="M15.0352 83.896C154.478 117.174 261.994 197.867 337.582 325.973" stroke="white" stroke-width="1.32"/>
<path d="M71.3647 -50.138C28.1347 -42.854 11.6247 -25.093 21.8347 3.147C37.1517 45.507 96.2117 126.66 13.1637 137.477M9.88867 231.249C41.5737 282.238 76.5567 295.93 114.838 272.326C172.259 236.919 191.557 229.827 214.675 238.4C230.087 244.116 243.416 268.943 254.662 312.881" stroke="white" stroke-width="1.32"/>
</g>
</g>
<mask id="mask3_315_32506" style="mask-type:alpha" maskUnits="userSpaceOnUse" x="31" y="-24" width="346" height="322">
<path d="M376.852 96.282L175.983 297.982L119.265 243.015L119.434 242.846L31.0195 154.433L78.3005 68.295L174.063 -23.654L332.45 29.831L376.852 96.282Z" fill="white"/>
</mask>
<g mask="url(#mask3_315_32506)">
<path fill-rule="evenodd" clip-rule="evenodd" d="M332.488 140.496L289.836 145.66L276.371 272.486L303.334 269.078L313.483 164.569L334.154 260.814L361.551 255.97L332.488 140.496Z" fill="white" stroke="black" stroke-width="1.32" stroke-linecap="round" stroke-linejoin="round"/>
<path d="M300.297 145.266C300.371 148.551 299.348 151.767 297.39 154.406C295.433 157.045 292.652 158.956 289.486 159.838L288.568 160.094" stroke="black" stroke-width="1.32" stroke-linecap="round" stroke-linejoin="round"/>
<path d="M302.627 144.861C302.717 148.727 301.518 152.514 299.218 155.623C296.919 158.733 293.65 160.99 289.927 162.037L289.022 162.292" stroke="black" stroke-width="0.521" stroke-linecap="round" stroke-linejoin="round" stroke-dasharray="1.56 1.56"/>
<path d="M322.854 142.635C323.529 145.881 325.265 148.81 327.789 150.959C330.312 153.109 333.48 154.358 336.791 154.508L337.751 154.551" stroke="black" stroke-width="1.32" stroke-linecap="round" stroke-linejoin="round"/>
<path d="M320.471 142.766C321.262 146.587 323.301 150.036 326.268 152.571C329.234 155.106 332.958 156.582 336.856 156.769L337.804 156.814" stroke="black" stroke-width="0.521" stroke-linecap="round" stroke-linejoin="round" stroke-dasharray="1.56 1.56"/>
<path d="M311.384 143.984L313.494 164.568M307.364 144.124L308.789 160.102C308.887 161.199 309.343 162.232 310.088 163.044C310.832 163.855 311.823 164.398 312.907 164.589" stroke="black" stroke-width="1.32" stroke-linecap="round" stroke-linejoin="round"/>
<path fill-rule="evenodd" clip-rule="evenodd" d="M321.148 32.87C317.653 29.835 311.919 30.655 309.078 35.072C307.712 37.194 307.337 39.436 307.955 41.796C305.825 41.017 303.371 40.724 300.469 40.936C292.389 41.525 285.292 47.846 285.928 56.58C286.564 65.313 274.874 65.481 270.947 74.067C269.145 78.01 270.547 82.073 271.536 86.001L271.665 86.524C272.736 90.962 273.069 95.214 267.396 98.909C260.128 103.643 256.287 109.486 255.871 116.438L358.828 103.152C358.232 95.568 354.325 90.707 347.106 88.569C341.381 86.873 340.578 82.273 339.709 77.212L339.594 76.55C338.844 72.23 337.89 67.655 333.693 64.315C324.328 56.866 320.78 57.302 316.969 50.485C316.181 49.075 315.358 47.815 314.478 46.707L314.507 46.706C318.48 46.505 321.525 43.723 322.348 42.641C324.289 40.091 324.643 35.905 321.148 32.87Z" fill="black"/>
<path fill-rule="evenodd" clip-rule="evenodd" d="M336.672 91.328L371.582 122.793L375.202 191.738L353.735 192.861L345.287 136.869L332.621 122.331L334.378 140.481L289.456 145.343L284.979 123.595L269.649 142.473C263.893 149.561 253.479 150.641 246.389 144.884C245.546 144.2 244.773 143.434 244.08 142.598L195.868 84.426L227.388 70.942L260.956 112.452L276.128 95.517C278.28 93.1146 281.163 91.4869 284.331 90.885L304.561 87.043L327.159 87.55C330.68 87.63 334.056 88.97 336.672 91.328Z" fill="white" stroke="black" stroke-width="1.32" stroke-linecap="round" stroke-linejoin="round"/>
<path fill-rule="evenodd" clip-rule="evenodd" d="M213.764 106.178L193.441 79.208C192.794 78.3495 192.514 77.2691 192.663 76.2044C192.813 75.1398 193.379 74.1781 194.238 73.531C195.096 72.8839 196.177 72.6043 197.241 72.7537C198.306 72.9032 199.268 73.4695 199.915 74.328L210.077 87.814" fill="white"/>
<path d="M213.764 106.178L193.441 79.208C192.794 78.3495 192.514 77.2691 192.663 76.2044C192.813 75.1398 193.379 74.1781 194.238 73.531C195.096 72.8839 196.177 72.6043 197.241 72.7537C198.306 72.9032 199.268 73.4695 199.915 74.328L210.077 87.814" stroke="black" stroke-width="1.32" stroke-linecap="round" stroke-linejoin="round"/>
<path fill-rule="evenodd" clip-rule="evenodd" d="M210.075 87.814L199.914 74.33C199.267 73.4715 198.987 72.3912 199.137 71.3268C199.287 70.2623 199.853 69.3009 200.712 68.654C201.57 68.0072 202.65 67.7278 203.715 67.8775C204.779 68.0272 205.741 68.5935 206.388 69.452L216.549 82.937" fill="white"/>
<path d="M210.075 87.814L199.914 74.33C199.267 73.4715 198.987 72.3912 199.137 71.3268C199.287 70.2623 199.853 69.3009 200.712 68.654C201.57 68.0072 202.65 67.7278 203.715 67.8775C204.779 68.0272 205.741 68.5935 206.388 69.452L216.549 82.937" stroke="black" stroke-width="1.32" stroke-linecap="round" stroke-linejoin="round"/>
<path fill-rule="evenodd" clip-rule="evenodd" d="M216.548 82.937L206.387 69.452C205.74 68.5935 205.46 67.5131 205.61 66.4486C205.759 65.384 206.326 64.4225 207.184 63.7755C208.043 63.1285 209.123 62.849 210.188 62.9986C211.252 63.1482 212.214 63.7145 212.861 64.573L223.022 78.058" fill="white"/>
<path d="M216.548 82.937L206.387 69.452C205.74 68.5935 205.46 67.5131 205.61 66.4486C205.759 65.384 206.326 64.4225 207.184 63.7755C208.043 63.1285 209.123 62.849 210.188 62.9986C211.252 63.1482 212.214 63.7145 212.861 64.573L223.022 78.058" stroke="black" stroke-width="1.32" stroke-linecap="round" stroke-linejoin="round"/>
<path fill-rule="evenodd" clip-rule="evenodd" d="M223.022 78.06L212.86 64.574C212.539 64.1488 212.306 63.6648 212.173 63.1494C212.04 62.6341 212.009 62.0976 212.084 61.5705C212.158 61.0434 212.335 60.5361 212.605 60.0776C212.875 59.619 213.233 59.2182 213.659 58.898C214.52 58.2488 215.603 57.9658 216.672 58.1103C217.741 58.2549 218.709 58.8153 219.368 59.67L241.3 88.15" fill="white"/>
<path d="M223.022 78.06L212.86 64.574C212.539 64.1488 212.306 63.6648 212.173 63.1494C212.04 62.6341 212.009 62.0976 212.084 61.5705C212.158 61.0434 212.335 60.5361 212.605 60.0776C212.875 59.619 213.233 59.2182 213.659 58.898C214.52 58.2488 215.603 57.9658 216.672 58.1103C217.741 58.2549 218.709 58.8153 219.368 59.67L241.3 88.15" stroke="black" stroke-width="1.32" stroke-linecap="round" stroke-linejoin="round"/>
<path fill-rule="evenodd" clip-rule="evenodd" d="M229.861 76.623L229.127 70.637C228.996 69.5715 229.294 68.4978 229.955 67.6521C230.616 66.8063 231.586 66.2577 232.652 66.127C233.724 65.9951 234.806 66.289 235.665 66.9456C236.523 67.6022 237.09 68.5692 237.244 69.639L239.732 87.002" fill="white"/>
<path d="M229.861 76.623L229.127 70.637C228.996 69.5715 229.294 68.4978 229.955 67.6521C230.616 66.8063 231.586 66.2577 232.652 66.127C233.724 65.9951 234.806 66.289 235.665 66.9456C236.523 67.6022 237.09 68.5692 237.244 69.639L239.732 87.002" stroke="black" stroke-width="1.32" stroke-linecap="round" stroke-linejoin="round"/>
<path fill-rule="evenodd" clip-rule="evenodd" d="M311.931 87.86L310.373 75.188L296.327 76.91L297.838 89.251" fill="white"/>
<path d="M311.931 87.86L310.373 75.188L296.327 76.91L297.838 89.251" stroke="black" stroke-width="1.32" stroke-linecap="round" stroke-linejoin="round"/>
<mask id="mask4_315_32506" style="mask-type:alpha" maskUnits="userSpaceOnUse" x="296" y="75" width="16" height="17">
<path d="M310.372 75.188L296.327 76.909L297.313 84.932C297.541 86.7946 298.5 88.4902 299.979 89.6458C301.458 90.8014 303.335 91.3224 305.197 91.094C307.06 90.8657 308.755 89.9067 309.911 88.4282C311.067 86.9497 311.588 85.0726 311.359 83.21L310.372 75.187V75.188Z" fill="white"/>
</mask>
<g mask="url(#mask4_315_32506)">
<path d="M298.43 85.959C288.195 87.214 278.952 80.546 277.787 71.066C276.622 61.586 283.975 52.882 294.21 51.627C304.446 50.372 313.688 57.039 314.853 66.52C316.019 76 308.666 84.703 298.43 85.959Z" fill="black"/>
</g>
<path d="M286.381 57.862C285.323 49.249 291.444 41.412 300.053 40.356C308.663 39.3 316.501 45.426 317.559 54.038L318.433 61.151C319.492 69.763 313.371 77.601 304.761 78.657C296.152 79.713 288.314 73.587 287.255 64.975L286.381 57.862Z" fill="black"/>
<path fill-rule="evenodd" clip-rule="evenodd" d="M287.804 59.64L288.979 69.194C289.871 76.45 296.474 81.611 303.728 80.721C310.981 79.831 316.138 73.228 315.246 65.973L314.072 56.418C313.18 49.162 306.577 44.001 299.323 44.891C292.07 45.781 286.913 52.385 287.804 59.64Z" fill="white" stroke="black" stroke-width="1.32" stroke-linecap="round" stroke-linejoin="round"/>
<mask id="mask5_315_32506" style="mask-type:alpha" maskUnits="userSpaceOnUse" x="287" y="44" width="29" height="36">
<path d="M287.805 59.638L288.834 67.999C289.726 75.256 296.329 80.417 303.582 79.529C310.835 78.639 315.991 72.036 315.099 64.779L314.07 56.419C313.178 49.162 306.575 44.001 299.322 44.889C292.069 45.779 286.913 52.381 287.805 59.638Z" fill="white"/>
</mask>
<g mask="url(#mask5_315_32506)">
<path fill-rule="evenodd" clip-rule="evenodd" d="M290.29 39.097L290.183 39.092C287.139 38.984 276.075 43.195 272.115 51.811C268.146 60.447 270.779 70.415 274.834 69.888C277.225 69.5755 279.546 68.8547 281.694 67.757C287.481 64.807 291.327 59.557 292.685 53.687C297.107 57.941 304.404 60.38 311.088 60.707C314.743 60.885 316.954 61.038 319.289 60.755C324.009 60.182 316.154 43.529 308.868 35.372C303.784 29.681 293.993 34.345 290.29 39.097Z" fill="black"/>
</g>
<mask id="mask6_315_32506" style="mask-type:alpha" maskUnits="userSpaceOnUse" x="300" y="71" width="8" height="6">
<path d="M306.996 71.26L300.053 73.572C301.204 75.747 302.759 76.499 304.716 75.83C306.674 75.162 307.434 73.638 306.996 71.26Z" fill="white"/>
</mask>
<g mask="url(#mask6_315_32506)">
<path d="M306.996 71.26L300.052 73.572C301.204 75.747 302.759 76.499 304.716 75.83C306.674 75.162 307.433 73.638 306.996 71.26Z" fill="white" stroke="black" stroke-linecap="round" stroke-linejoin="round"/>
<path d="M304.934 78.002C303.246 78.209 301.758 77.398 301.609 76.192C301.461 74.985 302.709 73.84 304.397 73.632C306.085 73.426 307.574 74.236 307.722 75.442C307.871 76.649 306.622 77.795 304.934 78.002Z" fill="black"/>
</g>
<path d="M299.623 65.464L299.496 68.898L301.383 68.988" stroke="black" stroke-width="1.32" stroke-linecap="round" stroke-linejoin="round"/>
<path d="M307.21 64.668C305.671 64.856 304.322 64.178 304.196 63.151C304.069 62.125 305.215 61.141 306.753 60.951C308.292 60.763 309.642 61.441 309.768 62.468C309.894 63.494 308.749 64.479 307.21 64.668Z" stroke="black" stroke-width="0.802" stroke-linecap="round" stroke-linejoin="round"/>
<path d="M307.21 64.668C306.287 64.781 305.436 64.041 305.31 63.014C305.184 61.988 305.83 61.064 306.753 60.952C307.677 60.838 308.527 61.578 308.653 62.605C308.78 63.631 308.133 64.555 307.21 64.668Z" fill="black"/>
<path d="M292.88 66.428C291.341 66.616 289.991 65.938 289.865 64.911C289.739 63.885 290.884 62.9 292.423 62.711C293.961 62.523 295.311 63.201 295.437 64.228C295.563 65.254 294.418 66.239 292.88 66.428Z" stroke="black" stroke-width="0.802" stroke-linecap="round" stroke-linejoin="round"/>
<path d="M292.88 66.427C291.957 66.54 291.106 65.8 290.98 64.774C290.854 63.748 291.5 62.824 292.423 62.711C293.346 62.598 294.197 63.338 294.323 64.364C294.449 65.391 293.803 66.314 292.88 66.427Z" fill="black"/>
<path fill-rule="evenodd" clip-rule="evenodd" d="M313.774 62.539L315.894 62.369L315.205 70.35L313.564 70.744L313.774 62.539Z" fill="white"/>
<path fill-rule="evenodd" clip-rule="evenodd" d="M314.341 62.11L315.868 61.82C316.346 61.7293 316.839 61.7495 317.308 61.8792C317.777 62.0089 318.21 62.2445 318.574 62.5679C318.938 62.8914 319.222 63.294 319.406 63.7448C319.589 64.1956 319.667 64.6825 319.633 65.168C319.548 66.3804 319.099 67.5389 318.345 68.4918C317.591 69.4447 316.566 70.1475 315.406 70.508L314.644 70.744" fill="white"/>
<path d="M314.341 62.11L315.868 61.82C316.346 61.7293 316.839 61.7495 317.308 61.8792C317.777 62.0089 318.21 62.2445 318.574 62.5679C318.938 62.8914 319.222 63.294 319.406 63.7448C319.589 64.1956 319.667 64.6825 319.633 65.168C319.548 66.3804 319.099 67.5389 318.345 68.4918C317.591 69.4447 316.566 70.1475 315.406 70.508L314.644 70.744M316.235 64.644L316.329 67.332M316.294 66.334L317.514 65.276" stroke="black" stroke-width="1.32" stroke-linecap="round" stroke-linejoin="round"/>
<path d="M315.884 68.899L313.461 79.837L320.884 78.927L315.884 68.899ZM290.804 71.98L288.381 82.917L295.804 82.007L290.804 71.979V71.98Z" stroke="white" stroke-width="0.88" stroke-linejoin="round"/>
<path fill-rule="evenodd" clip-rule="evenodd" d="M317.515 86.995L326.819 181.139L341.685 178.809L346.073 139.897L366.798 116.44L340.556 91.18C337.769 88.4972 334.052 86.998 330.185 86.997L317.515 86.995Z" fill="#E4E4E4" stroke="black" stroke-width="1.32" stroke-linejoin="round"/>
<path fill-rule="evenodd" clip-rule="evenodd" d="M324.593 87.813L321.882 103.678L329.481 109.478C330.956 110.604 332.077 112.13 332.71 113.875C333.343 115.619 333.461 117.509 333.051 119.319L324.604 156.558" fill="#E4E4E4"/>
<path d="M324.593 87.813L321.882 103.678L329.481 109.478C330.956 110.604 332.077 112.13 332.71 113.875C333.343 115.619 333.461 117.509 333.051 119.319L324.604 156.558M336.117 127.024L338.003 136.287" stroke="black" stroke-width="1.32" stroke-linecap="round" stroke-linejoin="round"/>
<path fill-rule="evenodd" clip-rule="evenodd" d="M290.735 89.586L294.063 191.237L272.982 207.034L275.673 145.27L270.435 149.479C262.168 156.123 250.172 155.253 242.945 147.484L210.489 112.593L241.292 81.466L261.87 108.983L270.118 98.734C273.207 94.8967 277.54 92.2605 282.368 91.282L290.735 89.586Z" fill="#E4E4E4" stroke="black" stroke-width="1.32" stroke-linejoin="round"/>
<path fill-rule="evenodd" clip-rule="evenodd" d="M281.776 91.29L288.469 106.778L281.001 112.604C279.419 113.839 278.26 115.535 277.684 117.457C277.108 119.38 277.143 121.434 277.786 123.335L293.335 169.368" fill="#E4E4E4"/>
<path d="M281.776 91.29L288.469 106.778L281.001 112.604C279.419 113.839 278.26 115.535 277.684 117.457C277.108 119.38 277.143 121.434 277.786 123.335L293.335 169.368" stroke="black" stroke-width="1.32" stroke-linecap="round" stroke-linejoin="round"/>
<path fill-rule="evenodd" clip-rule="evenodd" d="M207.545 113.48L241.293 79.835L247.385 86.061L227.333 136.29L207.545 113.48Z" fill="#E4E4E4" stroke="black" stroke-width="1.32" stroke-linejoin="round"/>
<path fill-rule="evenodd" clip-rule="evenodd" d="M230.981 134.839L230.32 134.219L228.576 132.587L246.303 88.635L246.915 89.172L230.981 134.839Z" fill="black"/>
<path d="M276.152 136.885L275.678 145.266M290.963 95.447C294.39 105.012 299.207 109.596 305.415 109.2C311.623 108.803 315.759 102.887 317.824 91.45" stroke="black" stroke-width="1.32" stroke-linecap="round" stroke-linejoin="round"/>
<path fill-rule="evenodd" clip-rule="evenodd" d="M131.173 208.786L67.3047 200.63L58.7607 249.124L125.416 259.986L131.173 208.786Z" fill="white" stroke="black" stroke-width="1.32" stroke-linecap="round" stroke-linejoin="round"/>
<path d="M95.2889 205.864L94.1289 218.505M116.098 210.262C115.502 214.326 116.273 218.472 118.291 222.05C120.309 225.627 123.459 228.432 127.246 230.023L128.088 230.376" stroke="black" stroke-width="1.32" stroke-linecap="round" stroke-linejoin="round"/>
<path d="M112.709 209.609C111.286 219.295 116.585 228.713 125.597 232.517L126.425 232.867" stroke="black" stroke-width="0.753" stroke-linecap="round" stroke-linejoin="round" stroke-dasharray="2.26 2.26"/>
<path d="M99.6525 206.582L98.1895 224.401" stroke="black" stroke-width="1.32" stroke-linejoin="round"/>
<path fill-rule="evenodd" clip-rule="evenodd" d="M9.49219 211.147L45.4462 218.371L62.3282 200.301L131.641 211.111L137.584 175.695L171.998 179.667C186.961 181.394 200.498 170.659 202.233 155.689L202.24 155.627L210.975 78.743L171.17 76.986L163.103 136.496L107.899 126.442L74.8312 124.772C72.1833 124.639 69.5467 125.202 67.1845 126.406C64.8222 127.61 62.8168 129.412 61.3682 131.632L9.49219 211.147Z" fill="white" stroke="black" stroke-width="1.32" stroke-linecap="round" stroke-linejoin="round"/>
<path fill-rule="evenodd" clip-rule="evenodd" d="M167.908 100.972L172.818 60.132C172.976 58.8151 173.65 57.6147 174.692 56.7947C175.735 55.9747 177.06 55.6022 178.377 55.759L178.39 55.761C179.043 55.8413 179.674 56.0494 180.246 56.3735C180.818 56.6975 181.321 57.1312 181.726 57.6496C182.131 58.1681 182.429 58.7612 182.605 59.3951C182.78 60.029 182.829 60.6912 182.748 61.344L182.747 61.349L180.196 81.945" fill="white"/>
<path d="M167.908 100.972L172.818 60.132C172.976 58.8151 173.65 57.6147 174.692 56.7947C175.735 55.9747 177.06 55.6022 178.377 55.759L178.39 55.761C179.043 55.8413 179.674 56.0494 180.246 56.3735C180.818 56.6975 181.321 57.1312 181.726 57.6496C182.131 58.1681 182.429 58.7612 182.605 59.3951C182.78 60.029 182.829 60.6912 182.748 61.344L182.747 61.349L180.196 81.945" stroke="black" stroke-width="1.32" stroke-linecap="round" stroke-linejoin="round"/>
<path fill-rule="evenodd" clip-rule="evenodd" d="M206.298 88.181L210.779 82.209C211.569 81.1552 212.745 80.4583 214.049 80.2717C215.353 80.0851 216.677 80.4241 217.731 81.214L217.748 81.227C218.804 82.0269 219.5 83.2126 219.684 84.5245C219.868 85.8363 219.524 87.1676 218.729 88.227L207.196 103.6" fill="white"/>
<path d="M206.298 88.181L210.779 82.209C211.569 81.1552 212.745 80.4583 214.049 80.2717C215.353 80.0851 216.677 80.4241 217.731 81.214L217.748 81.227C218.804 82.0269 219.5 83.2126 219.684 84.5245C219.868 85.8363 219.524 87.1676 218.729 88.227L207.196 103.6" stroke="black" stroke-width="1.32" stroke-linecap="round" stroke-linejoin="round"/>
<path fill-rule="evenodd" clip-rule="evenodd" d="M180.201 81.95L182.737 61.187C182.815 60.5509 183.017 59.9364 183.334 59.3791C183.65 58.8217 184.073 58.3325 184.58 57.9397C185.086 57.5469 185.665 57.2583 186.284 57.0905C186.902 56.9227 187.548 56.879 188.183 56.962C189.474 57.1319 190.646 57.805 191.443 58.8348C192.24 59.8646 192.598 61.1676 192.438 62.46L189.886 83.205" fill="white"/>
<path d="M180.201 81.95L182.737 61.187C182.815 60.5509 183.017 59.9364 183.334 59.3791C183.65 58.8217 184.073 58.3325 184.58 57.9397C185.086 57.5469 185.665 57.2583 186.284 57.0905C186.902 56.9227 187.548 56.879 188.183 56.962C189.474 57.1319 190.646 57.805 191.443 58.8348C192.24 59.8646 192.598 61.1676 192.438 62.46L189.886 83.205" stroke="black" stroke-width="1.32" stroke-linecap="round" stroke-linejoin="round"/>
<path fill-rule="evenodd" clip-rule="evenodd" d="M189.892 83.208L192.435 62.539C192.514 61.8936 192.72 61.2703 193.042 60.7052C193.364 60.1402 193.795 59.6446 194.31 59.2472C194.824 58.8497 195.413 58.5584 196.041 58.39C196.669 58.2215 197.324 58.1794 197.969 58.266C199.281 58.4437 200.47 59.1316 201.279 60.1804C202.087 61.2293 202.45 62.5547 202.288 63.869L199.74 84.58" fill="white"/>
<path d="M189.892 83.208L192.435 62.539C192.514 61.8936 192.72 61.2703 193.042 60.7052C193.364 60.1402 193.795 59.6446 194.31 59.2472C194.824 58.8497 195.413 58.5584 196.041 58.39C196.669 58.2215 197.324 58.1794 197.969 58.266C199.281 58.4437 200.47 59.1316 201.279 60.1804C202.087 61.2293 202.45 62.5547 202.288 63.869L199.74 84.58" stroke="black" stroke-width="1.32" stroke-linecap="round" stroke-linejoin="round"/>
<path fill-rule="evenodd" clip-rule="evenodd" d="M199.751 84.583L202.272 64.083C202.439 62.7231 203.139 61.485 204.218 60.6408C205.298 59.7967 206.668 59.4155 208.028 59.581L208.047 59.584C209.417 59.7577 210.663 60.4641 211.516 61.5503C212.369 62.6365 212.759 64.015 212.603 65.387L207.654 108.985" fill="white"/>
<path d="M199.751 84.583L202.272 64.083C202.439 62.7231 203.139 61.485 204.218 60.6408C205.298 59.7967 206.668 59.4155 208.028 59.581L208.047 59.584C209.417 59.7577 210.663 60.4641 211.516 61.5503C212.369 62.6365 212.759 64.015 212.603 65.387L207.654 108.985" stroke="black" stroke-width="1.32" stroke-linecap="round" stroke-linejoin="round"/>
<path fill-rule="evenodd" clip-rule="evenodd" d="M91.3689 125.565L71.3519 240.302L3.50391 202.652L57.7099 130.635C59.2251 128.621 61.2113 127.01 63.4942 125.942C65.7771 124.875 68.287 124.384 70.8039 124.512L91.3689 125.565Z" fill="#E4E4E4" stroke="black" stroke-width="1.32" stroke-linejoin="round"/>
<path fill-rule="evenodd" clip-rule="evenodd" d="M80.6718 125.084L82.6558 144.384L76.2218 147.992C74.3453 149.044 72.8182 150.624 71.8294 152.535C70.8405 154.445 70.4332 156.604 70.6578 158.744L75.3978 203.917" fill="#E4E4E4"/>
<path d="M80.6718 125.084L82.6558 144.384L76.2218 147.992C74.3453 149.044 72.8182 150.624 71.8294 152.535C70.8405 154.445 70.4332 156.604 70.6578 158.744L75.3978 203.917" stroke="black" stroke-width="1.32" stroke-linejoin="round"/>
<path d="M64.5976 176.552L60.6426 188.825" stroke="black" stroke-width="1.32" stroke-linecap="round" stroke-linejoin="round"/>
<path fill-rule="evenodd" clip-rule="evenodd" d="M121.042 128.365L115.836 220.529C115.603 224.641 116.443 228.743 118.275 232.432C120.106 236.121 122.865 239.27 126.281 241.571L136.502 248.452L139.191 176.558L174.175 181.15C188.095 182.977 200.95 173.396 203.187 159.527L212.004 104.861L164.304 97.237L160.101 135.091L121.042 128.365Z" fill="#E4E4E4" stroke="black" stroke-width="1.32" stroke-linejoin="round"/>
<path d="M139.134 164.011L139.129 177.775M131.672 130.298L124.553 147.466L132.484 157.085C133.661 158.513 134.424 160.237 134.69 162.069C134.956 163.9 134.714 165.77 133.992 167.474L116.284 209.264" stroke="black" stroke-width="1.32" stroke-linecap="round" stroke-linejoin="round"/>
<path fill-rule="evenodd" clip-rule="evenodd" d="M162.498 96.239L159.758 112.78L212.256 127.025L213.648 104.875L162.498 96.239Z" fill="#E4E4E4" stroke="black" stroke-width="1.32" stroke-linejoin="round"/>
<path fill-rule="evenodd" clip-rule="evenodd" d="M162.371 114.792L207.982 128.635L208.619 126.309L162.371 113.579V114.792Z" fill="black"/>
<path d="M90.4082 131.618L105.359 149.313L120.602 134.86" stroke="black" stroke-width="1.32" stroke-linecap="round" stroke-linejoin="round"/>
<path fill-rule="evenodd" clip-rule="evenodd" d="M98.5996 127.217L101.115 109.349L117.485 111.647L114.971 129.515" fill="white"/>
<path d="M98.5996 127.217L101.115 109.349L117.485 111.647L114.971 129.515" stroke="black" stroke-width="1.378" stroke-linecap="round" stroke-linejoin="round"/>
<mask id="mask7_315_32506" style="mask-type:alpha" maskUnits="userSpaceOnUse" x="98" y="109" width="20" height="27">
<path d="M101.117 109.349L117.486 111.646L115.142 128.298C114.505 132.82 110.325 135.972 105.805 135.338C101.285 134.704 98.1363 130.523 98.7733 126.001L101.117 109.349Z" fill="white"/>
</mask>
<g mask="url(#mask7_315_32506)">
<path d="M114.502 120.559C124.714 121.992 134.071 115.485 135.402 106.026C136.734 96.566 129.535 87.736 119.323 86.304C109.112 84.87 99.7541 91.377 98.4231 100.836C97.0921 110.295 104.291 119.125 114.502 120.559Z" fill="black"/>
</g>
<path fill-rule="evenodd" clip-rule="evenodd" d="M114.414 75.493C122.403 76.613 127.967 84.002 126.843 91.994C126.817 92.178 126.787 92.362 126.754 92.545L125.684 98.495C124.25 106.463 116.778 111.876 108.764 110.752C100.837 109.639 95.3154 102.308 96.4314 94.378L97.2714 88.418C98.4394 80.115 106.114 74.328 114.414 75.493Z" fill="black"/>
<path fill-rule="evenodd" clip-rule="evenodd" d="M124.977 94.798L123.635 104.331C122.616 111.571 115.924 116.616 108.688 115.601C101.452 114.585 96.4115 107.893 97.4295 100.653L98.7715 91.12C99.7905 83.88 106.483 78.835 113.719 79.85C120.955 80.866 125.996 87.558 124.977 94.798Z" fill="white" stroke="black" stroke-width="1.32" stroke-linecap="round" stroke-linejoin="round"/>
<path fill-rule="evenodd" clip-rule="evenodd" d="M104.927 77.873C101.48 75.068 98.5643 75.91 96.1773 80.398C94.4153 83.71 93.5453 89.945 96.1713 100.746C96.2813 101.194 97.5813 95.877 97.9893 95.493C101.078 92.58 103.496 89.163 105.243 85.241C107.221 80.801 107.115 78.346 104.927 77.873Z" fill="black"/>
<path fill-rule="evenodd" clip-rule="evenodd" d="M98.1277 95.758L96.6387 95.31C96.1727 95.17 95.6808 95.1388 95.2009 95.2188C94.7209 95.2989 94.2657 95.488 93.8703 95.7716C93.4749 96.0552 93.1499 96.4258 92.9203 96.8547C92.6906 97.2837 92.5625 97.7597 92.5457 98.246C92.5029 99.4603 92.8279 100.659 93.4782 101.686C94.1284 102.712 95.0736 103.518 96.1897 103.998L96.9237 104.313L98.1277 95.758Z" fill="white" stroke="black" stroke-width="1.32" stroke-linecap="round" stroke-linejoin="round"/>
<path d="M95.9797 98.08L95.6047 100.744M95.7437 99.754L94.6396 98.574M112.57 99.942L112.636 103.378L110.748 103.435" stroke="black" stroke-width="1.32" stroke-linecap="round" stroke-linejoin="round"/>
<path d="M103.718 97.673C105.144 97.873 106.393 97.371 106.508 96.552C106.623 95.732 105.561 94.906 104.136 94.706C102.71 94.506 101.461 95.008 101.346 95.827C101.23 96.647 102.293 97.472 103.718 97.673Z" stroke="black" stroke-width="0.802" stroke-linecap="round" stroke-linejoin="round"/>
<path d="M103.718 97.672C104.573 97.792 105.36 97.226 105.475 96.406C105.591 95.587 104.991 94.826 104.135 94.706C103.28 94.586 102.493 95.153 102.378 95.972C102.263 96.791 102.863 97.552 103.718 97.672Z" fill="black"/>
<path d="M118.015 99.682C119.44 99.882 120.69 99.38 120.805 98.562C120.92 97.742 119.858 96.916 118.432 96.716C117.007 96.516 115.758 97.018 115.643 97.836C115.527 98.656 116.589 99.482 118.015 99.682Z" stroke="black" stroke-width="0.802" stroke-linecap="round" stroke-linejoin="round"/>
<path d="M118.016 99.682C118.871 99.802 119.658 99.235 119.773 98.416C119.888 97.597 119.289 96.836 118.433 96.716C117.578 96.596 116.791 97.163 116.676 97.982C116.561 98.801 117.161 99.562 118.016 99.682Z" fill="black"/>
<path fill-rule="evenodd" clip-rule="evenodd" d="M109.272 78.426C119.775 77.46 127.379 78.98 132.083 82.986C139.14 88.996 130.384 101.587 113.933 94.761C102.965 90.211 101.411 84.765 109.272 78.426Z" fill="black"/>
<path fill-rule="evenodd" clip-rule="evenodd" d="M101.517 79.642C103.081 75.84 115.728 70.959 121.608 73.838C125.527 75.758 123.68 80.25 116.065 87.314C105.324 84.734 100.475 82.177 101.517 79.642Z" fill="black"/>
<mask id="mask8_315_32506" style="mask-type:alpha" maskUnits="userSpaceOnUse" x="104" y="105" width="10" height="7">
<path d="M104.98 105.129L113.911 108.277C112.372 111.065 110.343 112.004 107.826 111.094C105.308 110.185 104.359 108.196 104.98 105.129Z" fill="white"/>
</mask>
<g mask="url(#mask8_315_32506)">
<path d="M104.98 105.129L113.911 108.278C112.372 111.065 110.344 112.004 107.826 111.094C105.308 110.185 104.36 108.196 104.98 105.129Z" fill="white" stroke="black" stroke-linecap="round" stroke-linejoin="round"/>
<path d="M107.564 112.907C110.21 113.278 112.507 112.506 112.694 111.181C112.88 109.857 110.886 108.482 108.239 108.111C105.593 107.74 103.296 108.513 103.109 109.837C102.923 111.161 104.917 112.536 107.564 112.907Z" fill="black"/>
</g>
</g>
<path d="M227.012 53.818C230.88 47.311 235.093 44.393 239.65 45.063C246.486 46.069 239.249 54.92 235.899 51.071C232.549 47.222 235.648 39.482 241.079 36.627C246.51 33.771 250.012 32.044 250.012 27.818M197.012 46.818C197.475 38.437 201.475 32.104 209.012 27.818M137.5 48.5C137.653 56.171 141.692 59.3 149.618 57.886C157.543 56.472 162.504 59.343 164.5 66.5" stroke="black" stroke-width="4.4" stroke-linejoin="round"/>
</g>
</svg>
