<svg width="100" height="104" viewBox="0 0 100 104" fill="none" xmlns="http://www.w3.org/2000/svg">
<path d="M26.7298 48.9766V52.9422H17.1728V57.8002H26.7298V61.7659H17.1728V70.6887H11.7472V48.9766H26.7298Z" fill="#218455"/>
<path d="M45.4953 50.4134V54.6765C42.6083 53.3877 40.3186 52.7433 38.5764 52.7433C37.78 52.7433 36.9836 52.892 36.2369 53.239C35.988 53.3381 35.7889 53.5364 35.6396 53.7843C35.4903 54.0321 35.3907 54.28 35.3907 54.5774C35.3907 54.8252 35.4405 55.0235 35.5898 55.2218C35.6894 55.4201 35.8387 55.6184 36.0378 55.7671C36.436 56.1637 37.4813 56.6098 39.0742 57.2047C40.4181 57.6508 41.7123 58.2456 42.9567 58.8405C43.9522 59.3858 44.7984 60.0798 45.4455 60.972C46.1921 61.9635 46.5406 63.2027 46.4908 64.4916C46.4908 65.4334 46.3415 66.3257 45.9433 67.1684C45.545 68.0111 44.9477 68.7547 44.2011 69.3C42.658 70.4897 40.667 71.0845 38.1284 71.0845C35.3907 71.0845 32.6531 70.341 30.2638 69.0026V64.3429C31.4584 65.1856 32.7526 65.8796 34.1463 66.4744C35.2912 66.9206 36.4858 67.1684 37.7302 67.1189C39.8706 67.1189 40.9159 66.4744 40.9159 65.136C40.9159 64.8882 40.8661 64.6403 40.7168 64.442C40.6172 64.2437 40.4679 64.0455 40.2688 63.8472C39.8208 63.4506 38.8253 62.9549 37.1827 62.36C35.8387 61.9139 34.5445 61.3686 33.3001 60.7242C32.3046 60.2285 31.5082 59.4849 30.8611 58.5926C30.1145 57.5516 29.766 56.3124 29.8158 55.0731C29.8158 54.1808 30.0149 53.3381 30.3634 52.545C30.7616 51.7518 31.3589 51.0578 32.0557 50.5621C33.549 49.422 35.5898 48.8271 38.1284 48.8271C40.667 48.8271 43.2056 49.422 45.4953 50.5126" fill="#218455"/>
<path d="M64.46 50.4134V54.6765C61.573 53.3877 59.2833 52.7433 57.5411 52.7433C56.7447 52.7433 55.9483 52.892 55.2017 53.239C54.9528 53.3381 54.7537 53.5364 54.6043 53.7843C54.455 54.0321 54.3555 54.28 54.3555 54.5774C54.3555 54.8252 54.4052 55.0235 54.5546 55.2218C54.6541 55.4201 54.8034 55.6184 55.0025 55.7671C55.4008 56.1637 56.446 56.6098 58.0389 57.2047C59.3828 57.6508 60.677 58.2456 61.9214 58.8405C62.9169 59.3858 63.7631 60.0798 64.4102 60.972C65.1568 61.9635 65.5053 63.2027 65.4555 64.4916C65.4555 65.4334 65.3062 66.3257 64.908 67.1684C64.5098 68.0111 63.9125 68.7547 63.1658 69.3C61.6228 70.4897 59.6317 71.0845 57.0931 71.0845C54.3555 71.0845 51.6178 70.341 49.2285 69.0026V64.3429C50.4232 65.1856 51.7173 65.8796 53.1111 66.4744C54.2559 66.9206 55.4505 67.1684 56.6949 67.1189C58.8353 67.1189 59.8806 66.4744 59.8806 65.136C59.8806 64.8882 59.8308 64.6403 59.6815 64.442C59.5819 64.2437 59.4326 64.0455 59.2335 63.8472C58.7855 63.4506 57.79 62.9549 56.1474 62.36C54.8034 61.9139 53.5093 61.3686 52.2649 60.7242C51.2693 60.2285 50.4729 59.4849 49.8258 58.5926C49.0792 57.5516 48.7308 56.3124 48.7805 55.0731C48.7805 54.1808 48.9796 53.3381 49.3281 52.545C49.7263 51.7518 50.3236 51.0578 51.0205 50.5621C52.5137 49.422 54.5546 48.8271 57.0931 48.8271C59.6317 48.8271 62.1703 49.4716 64.46 50.5126" fill="#218455"/>
<path d="M88.9498 64.0958V68.8546C86.3116 70.2921 83.3749 71.0357 80.3883 71.0357C76.5058 71.0357 73.4196 69.9947 71.13 67.8632C70.0349 66.8717 69.1389 65.6325 68.5416 64.2445C67.9443 62.8565 67.6456 61.4189 67.6456 59.9318C67.6456 58.4447 67.9941 56.9575 68.6412 55.6191C69.2882 54.2807 70.1842 53.0414 71.2793 52.05C73.7183 49.8689 76.8542 48.7783 80.7367 48.7783C83.8228 48.7783 86.461 49.4227 88.6511 50.7116V55.52C86.013 54.0328 83.5242 53.2893 81.1349 53.2893C78.7955 53.2893 76.904 53.8841 75.4605 55.1234C74.7636 55.6687 74.1663 56.4123 73.8179 57.255C73.4197 58.0977 73.2703 58.99 73.2703 59.8822C73.2703 60.7745 73.4197 61.6668 73.8179 62.5095C74.2161 63.3522 74.7636 64.0462 75.4605 64.641C76.904 65.8803 78.7457 66.5247 81.0354 66.5247C82.1305 66.5247 83.2255 66.376 84.2708 66.0786C85.8637 65.5333 87.4067 64.8889 88.9 64.1453" fill="#218455"/>
<path d="M22.7974 96.713C22.8969 96.713 23.0463 96.713 23.1458 96.7626C23.2454 96.7626 23.3449 96.8617 23.4445 96.9609C23.544 97.06 23.5938 97.1591 23.6436 97.2583C23.6436 97.3574 23.6934 97.4566 23.6934 97.6053V98.1506C23.6934 98.2497 23.6934 98.3984 23.6436 98.4976C23.6436 98.5967 23.544 98.6959 23.4445 98.795C23.3449 98.8941 23.2454 98.9437 23.1458 98.9933C23.0463 98.9933 22.9467 99.0428 22.7974 99.0428H9.7063C9.60675 99.0428 9.45742 99.0428 9.35787 98.9933C9.25832 98.9933 9.15876 98.8941 9.10899 98.795C8.95966 98.6463 8.86011 98.3984 8.86011 98.2001C8.86011 97.754 8.90988 97.2583 9.00944 96.8122C9.10899 96.366 9.25832 95.9694 9.45742 95.5729C9.65652 95.2259 9.9054 94.8789 10.1543 94.5319C10.4032 94.1849 10.7018 93.8379 11.0503 93.5405C11.3987 93.1935 11.7471 92.896 12.0955 92.5986C12.444 92.3012 12.7924 92.0533 13.1906 91.7559C13.5391 91.5081 13.9373 91.2602 14.2857 90.9628C14.6341 90.7149 15.0323 90.4671 15.3808 90.2192C16.1274 89.7235 16.8243 89.2278 17.4714 88.6825C18.1184 88.1372 18.7655 87.6415 19.3131 87.0467C19.7611 86.6005 20.1593 86.0552 20.4579 85.4604C20.7068 84.9151 20.8561 84.2707 20.8561 83.6758C20.8561 83.1305 20.7566 82.5853 20.5575 82.04C20.3584 81.5938 20.0597 81.1973 19.7113 80.8503C18.7158 80.1563 17.5211 79.8093 16.3265 79.8589C15.5799 79.8589 14.8332 79.958 14.1364 80.2554C13.5391 80.4537 13.0413 80.8007 12.6431 81.2964C11.8467 82.4366 11.3987 83.8245 11.4982 85.2125C11.4982 85.3117 11.4982 85.4108 11.4485 85.5595C11.4485 85.6587 11.3489 85.7578 11.2494 85.857C11.1498 85.9561 11.1 86.0057 10.9507 86.0552C10.8511 86.0552 10.7516 86.1048 10.6023 86.1048H10.005C9.9054 86.1048 9.80585 86.1048 9.65652 86.0552C9.55697 86.0552 9.45742 85.9561 9.35787 85.857C9.25832 85.7578 9.20854 85.7082 9.15876 85.5595C9.15876 85.4604 9.10899 85.3612 9.10899 85.2125C9.10899 80.2554 11.4982 77.7273 16.227 77.6777C17.1229 77.6777 17.9691 77.7769 18.8153 78.0743C19.6117 78.3222 20.3086 78.6692 21.0055 79.1649C22.3494 80.2059 23.0463 81.7426 23.0463 83.775C23.0463 84.6672 22.8472 85.51 22.4987 86.3031C22.1503 87.0962 21.6525 87.8398 21.0055 88.4842C20.4081 89.1286 19.7113 89.7235 19.0642 90.3183C18.3673 90.9132 17.6207 91.4585 16.8243 91.9542C15.4305 92.8465 14.0866 93.8379 12.7924 94.9285C12.1453 95.4242 11.5978 96.1182 11.2494 96.8617H22.6978L22.7974 96.713Z" fill="#87888A"/>
<path d="M40.2688 96.713C40.3684 96.713 40.4679 96.713 40.6173 96.7626C40.7168 96.7626 40.8164 96.8617 40.9159 96.9609C41.0155 97.06 41.0652 97.1591 41.115 97.2583C41.115 97.3574 41.1648 97.4566 41.1648 97.6053V98.1506C41.1648 98.2497 41.1648 98.3984 41.115 98.4976C41.115 98.5967 41.0155 98.6959 40.9159 98.795C40.8164 98.8941 40.7168 98.9437 40.6173 98.9933C40.5177 98.9933 40.4182 99.0428 40.2688 99.0428H27.1777C27.0782 99.0428 26.9289 99.0428 26.8293 98.9933C26.7298 98.9933 26.6302 98.8941 26.5804 98.795C26.4311 98.6463 26.3315 98.3984 26.3315 98.2001C26.3315 97.754 26.3813 97.2583 26.4809 96.8122C26.5804 96.366 26.7297 95.9694 26.9289 95.5729C27.128 95.2259 27.3768 94.8789 27.6257 94.5319C27.8746 94.1849 28.1733 93.8379 28.5217 93.5405C28.8701 93.1935 29.2186 92.896 29.567 92.5986C29.9154 92.3012 30.2638 92.0533 30.6621 91.7559C31.0105 91.5081 31.4087 91.2602 31.7571 90.9628C32.1056 90.7149 32.5038 90.4671 32.8522 90.2192C33.5988 89.7235 34.2957 89.2278 34.9428 88.6825C35.5899 88.1372 36.237 87.6415 36.7845 87.0467C37.2325 86.6005 37.6307 86.0552 37.9294 85.4604C38.1782 84.9151 38.3276 84.2707 38.3276 83.6758C38.3276 83.1305 38.228 82.5853 38.0289 82.04C37.8298 81.5938 37.5311 81.1973 37.1827 80.8503C36.1872 80.1563 34.9926 79.8093 33.7979 79.8589C33.0513 79.8589 32.3047 79.958 31.6078 80.2554C31.0105 80.4537 30.5127 80.8007 30.1145 81.2964C29.3181 82.4366 28.8701 83.8245 28.9697 85.2125C28.9697 85.3117 28.9697 85.4108 28.9199 85.5595C28.9199 85.6587 28.8203 85.7578 28.7208 85.857C28.6212 85.9561 28.5715 86.0057 28.4221 86.0552C28.3226 86.0552 28.223 86.1048 28.0737 86.1048H27.4764C27.3768 86.1048 27.2773 86.1048 27.128 86.0552C27.0284 86.0552 26.9289 85.9561 26.8293 85.857C26.7298 85.7578 26.68 85.7082 26.6302 85.5595C26.6302 85.4604 26.5804 85.3612 26.5804 85.2125C26.5804 80.2554 28.9697 77.7273 33.6984 77.6777C34.5944 77.6777 35.4406 77.7769 36.2867 78.0743C37.0832 78.3222 37.78 78.6692 38.4769 79.1649C39.8208 80.2059 40.5177 81.7426 40.5177 83.775C40.5177 84.6672 40.3186 85.51 39.9702 86.3031C39.6217 87.0962 39.124 87.8398 38.4769 88.4842C37.8796 89.1286 37.1827 89.7235 36.5356 90.3183C35.8388 90.9132 35.0921 91.4585 34.2957 91.9542C32.902 92.8465 31.558 93.8379 30.2638 94.9285C29.6168 95.4242 29.0692 96.1182 28.7208 96.8617H40.1693L40.2688 96.713Z" fill="#87888A"/>
<path d="M59.1339 88.4845C59.1339 89.7733 59.0343 91.0622 58.7357 92.3015C58.4868 93.4912 58.0388 94.5817 57.4913 95.6723C56.894 96.8124 55.998 97.7047 54.9029 98.3491C53.7083 98.9935 52.3146 99.3405 50.9208 99.3405C49.5271 99.3405 48.1832 98.9935 46.9885 98.3491C45.8935 97.7047 44.9975 96.8124 44.4002 95.6723C43.8029 94.6313 43.4047 93.4912 43.106 92.3015C42.8073 91.0622 42.658 89.7733 42.7078 88.4845C42.7078 87.1956 42.8073 85.9068 43.106 84.618C43.4047 83.4282 43.8029 82.2881 44.4002 81.1976C44.9975 80.107 45.8935 79.1651 46.9885 78.5207C48.1832 77.8763 49.5271 77.5293 50.9208 77.5293C52.3146 77.5293 53.6585 77.8763 54.9029 78.5207C55.998 79.1651 56.894 80.0574 57.4913 81.148C58.0388 82.2385 58.4868 83.3787 58.7357 84.5684C59.0343 85.8572 59.1339 87.1461 59.1339 88.4349M56.894 88.4845C56.894 87.9392 56.894 87.4435 56.7944 86.8982C56.7446 86.3529 56.6451 85.8077 56.5953 85.312C56.4957 84.8162 56.3464 84.3205 56.1971 83.8744C56.0478 83.4282 55.8487 82.9821 55.5998 82.536C54.7038 80.801 53.1608 79.9087 50.9208 79.8591C49.9253 79.8591 48.9298 80.107 48.0836 80.6027C47.7352 80.8506 47.3867 81.148 47.0881 81.4454C46.7894 81.7924 46.4908 82.1394 46.2917 82.536C46.0428 82.9325 45.8437 83.3787 45.6944 83.8248C45.545 84.3205 45.3957 84.8162 45.3459 85.312C44.8979 87.3444 44.8979 89.4759 45.3459 91.5579C45.4455 92.0536 45.545 92.5493 45.6944 93.045C45.8437 93.4912 46.0428 93.9869 46.2917 94.3834C46.6899 95.1766 47.2872 95.821 48.0836 96.3167C48.4818 96.5646 48.9298 96.7629 49.3778 96.9116C49.8755 97.0603 50.4231 97.1098 50.9208 97.1098C51.4684 97.1098 51.9661 97.0603 52.5137 96.9116C52.9617 96.8124 53.4096 96.6141 53.7581 96.3167C54.1563 96.0689 54.5047 95.821 54.8034 95.474C55.102 95.127 55.3509 94.78 55.5998 94.3834C55.8487 93.9373 56.0478 93.4912 56.1971 93.045C56.3464 92.5493 56.4957 92.0536 56.5953 91.5579C56.6949 91.0622 56.7446 90.5169 56.7944 90.0212C56.8442 89.5255 56.894 89.0298 56.894 88.4845Z" fill="#87888A"/>
<path d="M76.6053 88.4845C76.6053 89.7733 76.5058 91.0622 76.2071 92.3015C75.9582 93.4912 75.5102 94.5817 74.9627 95.6723C74.3654 96.8124 73.4694 97.7047 72.3744 98.3491C71.1797 98.9935 69.786 99.3405 68.3923 99.3405C66.9985 99.3405 65.6546 98.9935 64.46 98.3491C63.3649 97.7047 62.4689 96.8124 61.8716 95.6723C61.2743 94.6313 60.8761 93.4912 60.5774 92.3015C60.2788 91.0622 60.1295 89.7733 60.1792 88.4845C60.1792 87.1956 60.2788 85.9068 60.5774 84.618C60.8761 83.4282 61.2743 82.2881 61.8716 81.1976C62.4689 80.107 63.3649 79.1651 64.46 78.5207C65.6546 77.8763 66.9985 77.5293 68.3923 77.5293C69.786 77.5293 71.13 77.8763 72.3744 78.5207C73.4694 79.1651 74.3654 80.0574 74.9627 81.148C75.5102 82.2385 75.9582 83.3787 76.2071 84.5684C76.5058 85.8572 76.6053 87.1461 76.6053 88.4349M74.3156 88.4845C74.3156 87.9392 74.3156 87.4435 74.2161 86.8982C74.1663 86.3529 74.0667 85.8077 74.017 85.312C73.9174 84.8162 73.7681 84.3205 73.6188 83.8744C73.4694 83.4282 73.2703 82.9821 73.0214 82.536C72.1255 80.801 70.5824 79.9087 68.3425 79.8591C67.347 79.8591 66.3515 80.107 65.5053 80.6027C65.1568 80.8506 64.8084 81.148 64.5097 81.4454C64.2111 81.7924 63.9124 82.1394 63.7133 82.536C63.4644 82.9325 63.2653 83.3787 63.116 83.8248C62.9667 84.3205 62.8174 84.8162 62.7676 85.312C62.3196 87.3444 62.3196 89.4759 62.7676 91.5579C62.8671 92.0536 62.9667 92.5493 63.116 93.045C63.2653 93.4912 63.4644 93.9869 63.7133 94.3834C64.1115 95.1766 64.7089 95.821 65.5053 96.3167C65.9035 96.5646 66.3017 96.7629 66.7994 96.9116C67.2972 97.0603 67.8447 97.1098 68.3425 97.1098C68.89 97.1098 69.3878 97.0603 69.9353 96.9116C70.3833 96.8124 70.8313 96.6141 71.1797 96.3167C71.5779 96.0689 71.9264 95.821 72.225 95.474C72.5237 95.127 72.7726 94.78 73.0214 94.3834C73.2703 93.9373 73.4694 93.4912 73.6188 93.045C73.7681 92.5493 73.9174 92.0536 74.017 91.5579C74.1165 91.0622 74.1663 90.5169 74.2161 90.0212C74.2658 89.5255 74.3156 89.0298 74.3156 88.4845Z" fill="#87888A"/>
<path d="M94.0268 88.4845C94.0268 89.7733 93.9273 91.0622 93.6286 92.3015C93.3797 93.4912 92.9318 94.5817 92.3842 95.6723C91.7869 96.8124 90.8909 97.7047 89.7959 98.3491C88.6012 98.9935 87.2075 99.3405 85.8138 99.3405C84.4201 99.3405 83.0761 98.9935 81.8815 98.3491C80.7864 97.7047 79.8904 96.8124 79.2931 95.6723C78.6958 94.6313 78.2976 93.4912 77.999 92.3015C77.7003 91.0622 77.551 89.7733 77.6007 88.4845C77.6007 87.1956 77.7003 85.9068 77.999 84.618C78.2976 83.4282 78.6958 82.2881 79.2931 81.1976C79.8904 80.107 80.7864 79.1651 81.8815 78.5207C83.0761 77.8763 84.4201 77.5293 85.8138 77.5293C87.2075 77.5293 88.5515 77.8763 89.7959 78.5207C90.8909 79.1651 91.7869 80.0574 92.3842 81.148C92.9318 82.2385 93.3797 83.3787 93.6286 84.5684C93.9273 85.8572 94.0268 87.1461 94.0268 88.4349M91.7869 88.4845C91.7869 87.9392 91.7869 87.4435 91.6874 86.8982C91.6376 86.3529 91.538 85.8077 91.4883 85.312C91.3887 84.8162 91.2394 84.3205 91.09 83.8744C90.9407 83.4282 90.7416 82.9821 90.4927 82.536C89.5968 80.801 88.0537 79.9087 85.8138 79.8591C84.8183 79.8591 83.8227 80.107 82.9766 80.6027C82.6281 80.8506 82.2797 81.148 81.981 81.4454C81.6824 81.7924 81.3837 82.1394 81.1846 82.536C80.9357 82.9325 80.7366 83.3787 80.5873 83.8248C80.438 84.3205 80.2886 84.8162 80.2389 85.312C79.7909 87.3444 79.7909 89.4759 80.2389 91.5579C80.3384 92.0536 80.438 92.5493 80.5873 93.045C80.7366 93.4912 80.9357 93.9869 81.1846 94.3834C81.5828 95.1766 82.1801 95.821 82.9766 96.3167C83.3748 96.5646 83.8227 96.7629 84.2707 96.9116C84.7685 97.0603 85.316 97.1098 85.8138 97.1098C86.3613 97.1098 86.8591 97.0603 87.4066 96.9116C87.8546 96.8124 88.3026 96.6141 88.651 96.3167C89.0492 96.0689 89.3977 95.821 89.6963 95.474C89.995 95.127 90.2439 94.78 90.4927 94.3834C90.7416 93.9373 90.9407 93.4912 91.09 93.045C91.2394 92.5493 91.3887 92.0536 91.4883 91.5579C91.5878 91.0622 91.6376 90.5169 91.6874 90.0212C91.7371 89.5255 91.7869 89.0298 91.7869 88.4845Z" fill="#87888A"/>
<path d="M64.6092 8.42692C58.2379 1.93311 48.432 0.743409 40.5674 5.35351C31.4086 10.7568 29.1687 22.8521 34.5943 31.6262C34.7436 31.8244 35.3907 31.6262 35.3409 31.3783C34.445 28.6023 34.2459 25.6281 34.6938 22.7529C35.1418 19.8778 36.2867 17.1018 37.9791 14.7224C39.2732 12.5909 40.9656 10.7568 42.9567 9.26963C44.9477 7.78249 47.2374 6.79107 49.6764 6.19622C52.1155 5.65094 54.6042 5.60137 57.0931 5.99794C59.5321 6.44408 61.8715 7.38593 63.9621 8.72434C64.1612 8.82349 64.8581 8.6252 64.6092 8.37735" fill="#218455"/>
<path d="M65.5053 5.7501C62.668 4.06468 58.9348 4.65954 55.9483 5.55182C55.9483 5.55182 55.9483 5.55182 55.8985 5.55182C48.7805 8.03037 40.7168 14.772 41.3141 23.0504C41.3141 23.2982 42.011 23.0504 42.0608 22.9017C43.7532 17.548 48.0339 13.4336 52.9119 10.8559C57.8398 8.27822 66.4012 7.48509 67.6456 14.5242C67.6456 14.772 68.3425 14.5242 68.3923 14.3755C69.1887 11.0046 68.7407 7.68337 65.5551 5.7501" fill="#AECCBA"/>
<path d="M65.7044 15.417C65.1568 14.7726 65.0075 14.6239 64.46 14.029C64.2609 13.8308 63.564 14.029 63.7631 14.3265C65.5053 17.152 66.3515 20.4237 66.1524 23.6954C66.003 27.0166 64.8084 30.1396 62.8174 32.8164C60.3783 36.0881 56.4958 38.1205 52.464 38.765C48.233 39.459 44.1016 37.8231 40.3186 36.0881C40.0697 35.989 39.4724 36.1873 39.7711 36.4847C45.4455 42.7802 55.4505 44.3665 62.4192 39.112C64.2111 37.7736 65.7044 36.1377 66.8492 34.2044C67.9941 32.2712 68.7407 30.1892 69.0394 27.9585C69.338 25.7774 69.1887 23.5467 68.6412 21.3655C68.0936 19.234 67.0981 17.2016 65.7044 15.4666" fill="#87888A"/>
<path d="M61.0751 21.9107C61.0751 21.6628 60.3285 21.762 60.2787 21.9603C59.4325 26.1738 56.8442 29.6934 53.6585 32.5189C49.4773 36.1376 40.1194 39.6076 37.9293 32.271C37.8297 32.0232 37.1827 32.1223 37.1329 32.3702C36.1871 39.8554 42.7576 41.6895 48.7307 39.5084C55.0522 37.2281 61.1747 30.4865 61.2743 23.5465C61.2743 23.0013 61.1747 22.4064 61.0751 21.8611" fill="#C7C7C8"/>
</svg>
