<svg width="99" height="99" viewBox="0 0 99 99" fill="none" xmlns="http://www.w3.org/2000/svg">
<path fill-rule="evenodd" clip-rule="evenodd" d="M49.3617 0C22.1015 0 0 22.1619 0 49.5012C0 76.8383 22.1015 98.9998 49.3617 98.9998C76.621 98.9998 98.7208 76.8383 98.7208 49.5012C98.7208 22.1619 76.621 0 49.3617 0Z" fill="#00A650"/>
<path fill-rule="evenodd" clip-rule="evenodd" d="M49.3617 5.48843C25.1244 5.48843 5.4729 25.1933 5.4729 49.5012C5.4729 73.8074 25.1244 93.5118 49.3617 93.5118C73.5986 93.5118 93.2484 73.8074 93.2484 49.5012C93.2484 25.1933 73.5986 5.48843 49.3617 5.48843Z" fill="#00A650"/>
<path d="M49.3617 6.67166H49.357V6.66697C37.5698 6.66782 26.8928 11.4635 19.1616 19.2167C11.4339 26.967 6.65111 37.6716 6.64899 49.4906H6.65409V49.5055H6.64899C6.65026 61.3268 11.4339 72.0338 19.1642 79.7858C26.8936 87.5357 37.5676 92.3296 49.3519 92.3318V92.3271H49.3668V92.3318C61.154 92.3309 71.8314 87.534 79.5608 79.7824C87.2882 72.0326 92.0696 61.328 92.0713 49.5107H92.0675V49.4962H92.0713C92.0713 37.6733 87.2869 26.9649 79.557 19.2133C71.8284 11.4635 61.1552 6.66953 49.3719 6.66697V6.67166H49.3617ZM49.357 4.30793V4.30409H49.3719V4.30793C61.8135 4.31091 73.076 9.36643 81.226 17.5398C89.3781 25.714 94.4223 37.0137 94.424 49.4962H94.4287V49.5107H94.424C94.4206 61.988 89.3789 73.2834 81.2298 81.4564C73.0785 89.631 61.8118 94.6891 49.3668 94.6904V94.6951H49.3519V94.6904C36.9094 94.6878 25.646 89.6323 17.4948 81.4598C9.34269 73.2852 4.29843 61.9867 4.29716 49.5055H4.29248V49.4906H4.29716C4.30013 37.0116 9.34269 25.7161 17.4927 17.5428C25.6448 9.36643 36.912 4.30963 49.357 4.30793Z" fill="white"/>
<path fill-rule="evenodd" clip-rule="evenodd" d="M36.3953 72.149L37.2815 69.4138H37.3248L38.2246 72.149H36.3953ZM41.2818 73.8537C40.7388 72.3915 40.1219 70.7017 39.5079 68.9997L38.5371 66.2934L37.5532 66.4915L34.6962 73.8958C34.2276 75.099 34.0112 75.1544 33.282 75.2562L33.2832 75.8152H36.6096V75.2562L36.1985 75.2132C35.5402 75.1403 35.5402 74.9985 35.7248 74.3841L36.1551 73.0092H38.4963L39.0112 74.4693C39.1949 74.984 39.1651 75.1288 38.6392 75.1991L38.2084 75.2562V75.8152H42.6931V75.2562C41.9941 75.1727 41.7364 75.099 41.2818 73.8537ZM61.7106 72.149L62.5988 69.4138H62.6388L63.5415 72.149H61.7106ZM66.5958 73.8537C66.0528 72.3915 65.4388 70.7017 64.8252 68.9997L63.8545 66.2934L62.8676 66.4915L60.0106 73.8958C59.5395 75.099 59.3303 75.1544 58.601 75.2562V75.8152H61.9287V75.2562L61.5133 75.2132C60.8555 75.1403 60.8555 74.9985 61.0413 74.3841L61.4691 73.0092H63.8103L64.326 74.4693C64.5089 74.984 64.4795 75.1288 63.9531 75.1991L63.5254 75.2562V75.8152H68.01V75.2562C67.3089 75.1727 67.0554 75.099 66.5958 73.8537ZM78.6356 74.6555C78.3345 75.0266 77.7205 75.0688 77.2656 75.0688C76.8208 75.0688 76.4925 75.0573 76.2625 74.9422C76.0052 74.8131 75.9768 74.4548 75.9768 73.7092V68.7973C75.9768 67.2512 76.0924 67.1527 77.1227 67.0667V66.506H72.479V67.0667C73.4387 67.1527 73.5535 67.2512 73.5535 68.7973V73.5222C73.5535 75.0688 73.4387 75.1727 72.3523 75.2562V75.8152H79.4367C79.563 75.37 79.864 73.8809 79.9469 73.3377L79.3329 73.2376C79.1029 73.9964 78.8609 74.3841 78.6356 74.6555ZM53.3157 74.6555C53.0167 75.0266 52.4049 75.0688 51.9469 75.0688C51.5034 75.0688 51.1743 75.0573 50.9473 74.9422C50.6892 74.8131 50.6594 74.4548 50.6594 73.7092V68.7973C50.6594 67.2512 50.7742 67.1527 51.8023 67.0667V66.506H47.1646V67.0667C48.1188 67.1527 48.234 67.2512 48.234 68.7973V73.5222C48.234 75.0688 48.1188 75.1727 47.0362 75.2562V75.8152H54.1163C54.243 75.37 54.5437 73.8809 54.6313 73.3377L54.0177 73.2376C53.7872 73.9964 53.5457 74.3841 53.3157 74.6555ZM24.3011 67.0667C25.2026 67.1527 25.3152 67.2512 25.3152 68.7973V70.4585H22.3596V68.7973C22.3596 67.2512 22.4744 67.1527 23.3461 67.0667V66.506H18.7764V67.0667C19.8156 67.1527 19.9308 67.2512 19.9308 68.7973V73.5222C19.9308 75.0688 19.8156 75.1727 18.8312 75.2562V75.8152H23.4018V75.2562C22.4744 75.1727 22.3596 75.0688 22.3596 73.5222V71.3464H25.3152V73.5222C25.3152 75.0688 25.2026 75.1727 24.1855 75.2562V75.8152H28.8406V75.2562C27.8567 75.1727 27.7419 75.0688 27.7419 73.5222V68.7973C27.7419 67.2512 27.8567 67.1527 28.8708 67.0667V66.506H24.3011V67.0667Z" fill="white"/>
<path fill-rule="evenodd" clip-rule="evenodd" d="M42.0133 43.0581C44.894 45.0721 46.4682 51.381 46.4682 51.381C48.0397 37.2621 35.2027 33.2279 35.2027 33.2279C35.2027 33.2279 34.9369 33.9816 35.2027 37.7585C35.4612 41.5521 39.1231 41.0408 42.0133 43.0581Z" fill="white"/>
<path fill-rule="evenodd" clip-rule="evenodd" d="M34.1503 55.1597C35.2027 52.6422 33.3632 39.0196 33.3632 35.4881C33.3632 31.9672 34.6707 29.9477 34.6707 29.9477C32.8419 28.9359 31.537 24.3967 31.537 24.3967C31.0046 25.6578 29.1758 28.4293 29.1758 28.4293C29.1758 28.4293 34.4156 53.4001 31.0046 56.4123C27.6025 59.4347 20.7855 59.9498 16.8583 57.4353C12.9226 54.9083 17.1143 46.836 17.1143 46.836C14.754 49.6083 12.9226 52.888 13.1862 56.4123C13.4469 59.9498 16.0674 63.469 22.358 63.7263C28.6438 63.9807 33.0979 57.6794 34.1503 55.1597Z" fill="white"/>
<path fill-rule="evenodd" clip-rule="evenodd" d="M67.6958 45.8291C63.4297 46.3143 61.0851 53.4916 60.8954 54.0928C60.9953 53.8248 61.5736 52.6668 64.5509 51.1253C67.9594 49.3529 74.7683 53.1448 74.7683 53.1448C71.6294 55.9171 65.8563 56.1689 61.1425 55.6602C56.4269 55.1494 56.6859 45.0724 56.4269 37.2625C56.1594 29.447 54.5896 30.2041 54.5896 30.2041C54.5896 30.2041 54.8523 26.6661 51.4507 42.8037C48.0397 58.9323 29.6961 62.964 29.6961 62.964C39.9207 64.4833 47.2547 59.6923 49.8676 54.653C52.4933 49.6081 54.3196 39.0195 54.3196 39.0195C54.3196 54.1511 55.636 57.9276 59.5696 59.6923C63.5011 61.4651 71.1013 58.9421 76.606 56.9213C80.1089 55.6393 84.2066 56.1689 84.2066 56.1689L87.3468 51.3814C87.3468 51.3814 82.8877 51.6263 79.7509 50.3742C76.606 49.1114 72.1533 45.3293 67.6958 45.8291Z" fill="white"/>
</svg>
