<svg width="100" height="99" viewBox="0 0 100 99" fill="none" xmlns="http://www.w3.org/2000/svg">
<path d="M86.8344 43.8091C86.1282 41.9529 84.6753 40.292 82.9139 39.0952C77.8246 35.8549 70.0649 35.6188 64.8133 38.5498C61.948 40.0152 60.073 42.9136 59.4886 45.8934C58.4253 50.7945 58.7013 56.6238 62.4594 60.2956C66.8506 64.1546 73.2305 65.0095 78.9123 63.4219C79.1802 63.373 80.0405 63.1532 80.625 62.8438L80.7954 62.7706C82.5568 62.0378 84.237 60.841 85.4951 59.2128C88.3928 54.9629 88.5957 48.5963 86.8263 43.8091H86.8344ZM77.5893 54.8082C77.3944 55.7364 76.7694 56.6971 75.7873 57.0471C74.2207 57.7392 72.1104 57.5438 70.6574 56.7378C69.4399 55.8829 69.2857 54.4582 69.1315 53.1067C69.0097 50.4444 68.823 47.6275 69.5617 45.1932C70.1461 43.687 71.7532 43.2962 73.2061 43.1823C74.7321 43.1823 76.2175 43.4184 77.1591 44.6477C77.7435 45.5351 77.711 46.6912 77.8246 47.7333C77.7841 49.9315 77.9789 52.5531 77.5893 54.8001V54.8082Z" fill="#0054A5"/>
<path d="M31.1688 57.2104C29.8782 57.129 28.4253 57.243 27.1753 57.0883L27.2159 43.5328L27.2971 43.4188L31.1769 43.3781C31.2175 41.1799 31.2581 38.8189 31.1363 36.8161L16.3717 36.7754L13.9367 36.8161C13.8961 38.8596 13.8961 41.2532 13.9367 43.3374C15.2678 43.3781 16.5178 43.3374 17.8165 43.4595V56.5835L17.776 57.1209L13.8961 57.2023C13.8149 59.3598 13.8149 61.444 13.8961 63.5689H31.1688V57.2023V57.2104Z" fill="#0054A5"/>
<path d="M74.6509 66.4753C73.0032 68.8363 70.9334 71.1078 68.6607 72.8826C68.5795 73.0047 68.3441 72.9559 68.2711 72.8419C67.2889 72.2232 66.2337 71.7265 65.2922 71.1078C66.5503 69.6016 67.7597 68.0954 68.7013 66.4346H67.4837C66.5097 67.8675 65.487 69.3737 64.1964 70.6437C62.4675 69.9517 60.909 69.3329 59.1396 68.8689L58.9448 68.7223C59.2207 67.9408 59.724 67.208 59.8863 66.4346H58.8311L57.7759 68.5188C55.4626 68.014 52.922 67.7454 50.5681 67.5907C50.4464 67.2487 50.6087 66.744 50.4464 66.4265H49.4318C49.3506 66.8905 49.5454 67.2406 49.31 67.6314C46.8831 67.7454 44.5292 68.014 42.2565 68.4862L41.1931 66.4346C40.8035 66.4346 40.3733 66.3613 40.0974 66.4753L41.0795 68.7549L40.9659 68.8689C39.1964 69.3737 37.4837 69.9924 35.7954 70.6844L35.6412 70.603C34.5454 69.4062 33.4821 68.0954 32.6217 66.7847C32.4269 66.1252 31.6396 66.5079 31.2094 66.4346C32.1509 68.1362 33.4009 69.6423 34.6509 71.1892C33.5957 71.8079 32.5405 72.5 31.4366 73.0047C29.0828 71.2299 26.8993 68.9096 25.2516 66.4753C24.7808 66.402 24.4724 66.4346 23.9935 66.4753C26.8181 70.8798 31.2013 74.7389 35.7873 77.0185C35.7873 77.0185 35.7873 76.9859 35.8279 76.9859C35.8685 76.9859 35.9415 77.0592 35.8604 77.0999C38.961 78.6061 42.2483 79.6889 45.7305 80.1529C57.7597 81.7324 69.237 76.6033 75.8928 66.4834C75.5438 66.4427 75.0324 66.4427 74.6347 66.4834H74.6509V66.4753ZM58.3198 69.9517L58.4334 69.8703C60.1217 70.2529 61.7289 70.7984 63.2142 71.5311C61.9561 72.9559 60.349 74.1934 58.8636 75.2355C57.9626 75.7728 57.0617 76.359 56.1201 76.8231L54.4399 76.0903L54.5535 75.8217C55.9659 73.9329 57.224 71.9952 58.3198 69.9517ZM50.6006 68.7875C52.8328 68.8282 55.073 69.0643 57.1428 69.5609L57.1834 69.6749C56.0876 71.7591 54.7159 73.77 53.2305 75.6589C52.5649 75.7403 51.9399 75.4716 51.2743 75.4309L50.6087 75.3495C50.5276 73.0699 50.487 71.0671 50.6087 68.7875H50.6006ZM43.0357 69.4876C45.073 69.105 47.1834 68.7956 49.3831 68.7956L49.4237 75.3251C48.5957 75.5123 47.6948 75.5123 46.9155 75.7077C45.3084 73.8107 43.9772 71.7591 42.8409 69.6423L43.0357 69.4876ZM36.7289 71.5718C38.2629 70.8391 39.862 70.2936 41.5097 69.8703L41.672 69.911C42.8084 72.0359 44.2126 74.0387 45.625 76.0496C45.0811 76.359 44.4074 76.5463 43.8636 76.8638C41.2743 75.5937 38.8068 73.8107 36.7289 71.6858V71.5718ZM41.7857 78.1746C38.4902 77.3197 35.4383 75.8542 32.6136 73.8514V73.7293C33.5552 73.1513 34.4967 72.5325 35.5113 72.1092C37.7435 74.3155 40.0568 75.9764 42.5649 77.5558C42.3701 77.7919 42.0535 78.0199 41.7776 78.1746H41.7857ZM56.3149 78.6712C52.1672 79.5667 47.5405 79.5993 43.3847 78.5979C43.3035 78.4025 43.5795 78.3618 43.7013 78.256C47.3457 75.895 53.0276 75.895 56.5909 78.4432C56.7045 78.6793 56.3961 78.5979 56.3149 78.6793V78.6712ZM60.0811 77.5965L58.2386 78.1746C57.922 78.0199 57.6542 77.7838 57.3782 77.5558L57.4594 77.4418C59.9675 75.9764 62.2402 74.2015 64.3912 72.0766C65.4464 72.5 66.4691 73.0862 67.4107 73.7375C65.2191 75.4797 62.6704 76.6358 60.0811 77.6047V77.5965Z" fill="#0054A5"/>
<path d="M25.1704 33.8441C26.112 32.5333 27.1672 31.2551 28.3441 30.0258C29.3587 29.0569 30.3003 28.137 31.4042 27.4368C32.4269 28.0962 33.5633 28.6417 34.5373 29.2605C33.3198 30.7585 32.0698 32.2728 31.1688 33.893C31.4448 34.0151 31.9561 33.9744 32.3457 33.893C33.3279 32.4682 34.3831 31.0353 35.6331 29.7652C37.3133 30.384 38.961 31.0353 40.6899 31.4994L40.8441 31.6541L39.862 33.893C40.2922 33.9744 40.5681 33.9337 40.9983 33.893C41.3474 33.2416 41.6233 32.5089 42.0129 31.8495C44.2857 32.3542 46.6801 32.6229 49.1071 32.6962C49.4237 32.973 49.1883 33.551 49.3019 33.893H50.3571C50.4707 33.5103 50.3165 33.0788 50.4707 32.7369C52.7435 32.6148 55.1298 32.3868 57.3295 31.8413L57.5243 31.882L58.5795 33.8848C58.9366 33.8848 59.3993 33.9662 59.6753 33.8034L58.6931 31.5726L58.7743 31.4912C60.5681 31.0272 62.2564 30.3351 63.9853 29.6431C65.2029 30.9132 66.3392 32.4194 67.362 33.8848C67.7922 33.8848 68.2224 33.9255 68.5389 33.8034C68.0681 32.9567 67.4756 32.11 66.8506 31.3691C66.3392 30.6364 65.7954 29.9851 65.1217 29.293V29.0976L67.8652 27.5182L68.2629 27.3635C70.6493 29.1791 72.7678 31.3772 74.448 33.8115C74.9188 33.8115 75.3084 33.9744 75.7061 33.779C70.4545 25.9062 61.7938 20.8422 52.435 20.1095L52.3944 20.1828L52.3133 20.1095C51.2581 19.9955 49.9594 19.9548 48.823 20.0688C48.3928 20.0362 47.8814 20.0688 47.3701 20.1095C37.9707 20.8341 29.31 25.6701 23.9042 33.893C24.2938 33.8522 24.7646 34.0151 25.1623 33.8522H25.1704V33.8441ZM41.4366 30.4491L41.2824 30.4817C39.6753 30.0583 38.1087 29.5536 36.6233 28.9022L36.6964 28.6661C38.8555 26.6226 41.1201 24.9211 43.6282 23.6103C44.2207 23.8464 44.8051 24.0337 45.3896 24.3105L45.2759 24.6117C43.7824 26.468 42.6136 28.4708 41.4366 30.4491ZM49.2288 31.4912C48.1331 31.6459 47.1509 31.4587 46.0552 31.3691C45 31.2144 43.6688 31.1004 42.6136 30.7504C43.75 28.6336 45.0811 26.5901 46.6883 24.7013L49.1964 25.0432C49.31 27.046 49.237 29.3663 49.237 31.4912H49.2288ZM50.4383 31.5319C50.3571 29.4803 50.3977 27.2007 50.4383 25.0758C51.2256 24.9618 52.086 24.8397 52.8652 24.7338C54.3912 26.6634 55.8847 28.6336 56.9074 30.7504C54.7889 31.2551 52.6298 31.5319 50.4383 31.5319ZM62.9383 28.8208C61.4042 29.4722 59.8376 30.0909 58.1574 30.4491C56.9399 28.4056 55.6168 26.354 54.1152 24.3837C54.6672 24.0825 55.3327 23.8464 55.9172 23.5452C58.4659 24.8152 60.9334 26.6308 63.0113 28.715L62.9383 28.8371V28.8208ZM57.922 22.2181C61.2175 23.073 64.31 24.5303 67.1266 26.5412L67.0454 26.6959L64.3425 28.2021H64.1477C62.0698 26.126 59.6428 24.3105 57.1753 22.8776C57.2565 22.6089 57.6461 22.4135 57.922 22.2181ZM56.3555 21.8355V21.9169C52.9464 24.3837 47.4188 24.6198 43.823 22.3402C43.6201 22.1856 43.2305 22.1123 43.1899 21.8436C47.3457 20.8829 52.2402 20.8015 56.3555 21.8436V21.8355ZM32.4594 26.6226C34.9269 24.8071 37.6704 23.4556 40.5681 22.5275C40.6899 22.4054 40.7629 22.2914 40.9172 22.2914V22.3728C41.2337 22.4461 41.4691 22.096 41.737 22.3321C41.9724 22.5275 42.2483 22.6822 42.4431 22.8776C40.0162 24.3756 37.6217 26.1586 35.4301 28.3161C34.375 27.9334 33.3928 27.3554 32.4513 26.6959V26.6226H32.4594Z" fill="#0054A5"/>
<path d="M49.2695 57.5111C45.5844 58.5206 41.5909 57.7472 38.9285 54.9628C38.6201 54.572 38.4172 54.1161 38.1087 53.7335L32.8246 53.7742C32.7435 56.9005 32.7029 60.4909 32.8246 63.5846L38.7013 63.5439L38.7824 61.6877C39.448 61.997 40.1136 62.3797 40.7792 62.7298C44.8539 64.4313 50.0974 64.814 54.1396 62.7298C57.0779 61.1096 58.6445 57.9833 58.2143 54.6209C57.7841 51.3399 54.6509 48.3683 51.4772 47.5623L41.9967 44.8186L41.2906 44.4685C40.974 44.1998 40.7792 43.8579 40.8604 43.4264C41.6071 42.1563 43.3279 42.539 44.6185 42.5715C47.362 42.9623 50.1785 43.8823 51.7857 46.398C53.5065 46.398 55.5032 46.4306 57.3863 46.3573C57.4675 43.1903 57.3539 40.4141 57.3052 37.2063C55.5438 37.1656 53.3847 37.1656 51.6234 37.247C51.5422 37.703 51.6964 38.3624 51.5016 38.8265L49.6996 37.8576C45.3896 36.0421 39.3587 35.8549 35.4383 38.6718C32.8896 40.5199 32.1104 43.8498 32.7759 46.7807C33.2873 49.5569 35.9496 51.6086 38.4983 52.5692C41.9805 53.8067 45.625 54.6942 49.1558 55.891C49.5048 56.0456 49.9756 56.3957 49.9026 56.8191C49.9026 57.161 49.5454 57.3564 49.2776 57.503L49.2695 57.5111Z" fill="#0054A5"/>
<path d="M12.2321 66.4012L12.4269 66.8409C12.4594 66.9223 12.4269 67.02 12.3295 67.0607L6.68829 69.5031C6.60712 69.5357 6.50972 69.5031 6.47725 69.4217L6.28245 68.9821C6.24998 68.9007 6.28245 68.8111 6.37173 68.7704L12.0211 66.328C12.1023 66.2954 12.2078 66.3117 12.2402 66.4012H12.2321Z" fill="#0054A5"/>
<path d="M10.56 61.8344L10.6899 62.2333C10.7224 62.3229 10.6737 62.4287 10.5844 62.4531L7.85712 63.3731C7.02108 63.6581 6.85875 64.0244 7.06979 64.6595C7.18342 65.0096 7.45128 65.3515 7.76784 65.669L11.2662 64.4885C11.3474 64.4559 11.461 64.5048 11.4854 64.5943L11.6234 65.0014C11.6477 65.0828 11.599 65.1805 11.5097 65.2131L7.28082 66.646C7.19154 66.6786 7.09414 66.646 7.06167 66.5401L6.92368 66.1249C6.89121 66.0354 6.94803 65.9377 7.03732 65.9133L7.19154 65.8563C6.77758 65.4899 6.52595 65.1561 6.36362 64.6676C6.02271 63.6662 6.49349 63.0149 7.59738 62.6323L10.3247 61.7123C10.4139 61.6797 10.5195 61.7286 10.5438 61.8181L10.56 61.8344Z" fill="#0054A5"/>
<path d="M9.78895 58.5613C9.85389 58.7241 9.92694 58.9439 9.9594 59.1068C10.1461 59.8965 10.0325 60.3117 9.09902 60.5397L6.12824 61.248L6.23376 62.0947C6.24999 62.1924 6.21752 62.2738 6.12012 62.2901L5.89285 62.3471C5.80356 62.3715 5.72239 62.3145 5.69804 62.225L5.50324 61.3945L4.6672 61.5899C4.58603 61.6143 4.49674 61.5655 4.46428 61.4759L4.29382 61.0526V61.0282C4.27759 60.963 4.32629 60.8816 4.40746 60.8653L5.33278 60.6455L5.11363 59.7255C5.09739 59.636 5.15421 59.5383 5.2435 59.5139L5.5357 59.4487C5.62499 59.4243 5.72239 59.4813 5.74674 59.579L5.9659 60.499L8.92856 59.7907C9.39934 59.6848 9.43992 59.5464 9.35876 59.2045L9.24512 58.7323C9.22077 58.6102 9.24512 58.545 9.32629 58.5206L9.62661 58.4473C9.69967 58.431 9.7646 58.4636 9.80518 58.5694H9.78895V58.5613Z" fill="#0054A5"/>
<path d="M6.98858 54.6129L7.38631 57.5194L7.50806 57.5032C8.53891 57.3566 8.86358 56.9007 8.74994 56.1028C8.68501 55.5981 8.55514 54.963 8.4415 54.5722V54.5315C8.43339 54.4664 8.45774 54.385 8.54702 54.3768L8.83923 54.3361C8.95287 54.3199 9.0178 54.3361 9.05839 54.4827C9.22072 54.963 9.34248 55.4352 9.42365 56.0214C9.56163 57.0228 9.22884 58.0568 7.61358 58.2847L6.83436 58.3906C5.59248 58.5697 4.71585 57.9835 4.5454 56.746C4.37494 55.4759 5.08111 54.7269 6.30676 54.556L6.77754 54.4908C6.89118 54.4745 6.97235 54.5234 6.98858 54.6292V54.6129ZM6.41228 55.3131C5.43014 55.4515 5.10546 55.8749 5.21098 56.6402C5.3165 57.3892 5.7954 57.7474 6.72884 57.6171H6.81001L6.49345 55.305H6.41228V55.3131Z" fill="#0054A5"/>
<path d="M4.78082 51.5925C4.79705 51.9996 4.92692 52.3578 5.21101 52.7812L8.86361 52.5939C8.9529 52.5939 9.04218 52.6672 9.04218 52.7649L9.06653 53.1964C9.06653 53.2859 8.99348 53.3674 8.89608 53.3674L4.44803 53.6035C4.35062 53.6035 4.26945 53.5383 4.26945 53.4488L4.2451 53.0417C4.2451 52.944 4.31004 52.8707 4.40744 52.8626H4.59413C4.26945 52.4311 4.13147 52.0322 4.10712 51.6414C4.10712 51.5192 4.1477 51.4541 4.26134 51.446L4.61848 51.4297C4.71588 51.4297 4.7727 51.4785 4.78082 51.6007V51.5925Z" fill="#0054A5"/>
<path d="M9.07465 47.0249L9.05842 47.4482C9.05842 47.5459 8.96913 47.6192 8.87985 47.6192L6.01459 47.5052C5.13797 47.4727 4.85387 47.7576 4.82952 48.4252C4.81329 48.7916 4.93504 49.2068 5.12173 49.622L8.79868 49.7685C8.88797 49.7685 8.96913 49.8581 8.96913 49.9477L8.9529 50.371C8.9529 50.4606 8.86361 50.5338 8.77433 50.5257L4.32628 50.3547C4.22887 50.3547 4.15582 50.2733 4.15582 50.1838L4.17206 49.7441C4.17206 49.6464 4.25323 49.5813 4.35063 49.5894H4.51297C4.26134 49.1009 4.14771 48.7102 4.17206 48.1891C4.21264 47.1389 4.88634 46.6911 6.04706 46.7399L8.91232 46.8539C9.00972 46.8539 9.08277 46.9353 9.08277 47.033L9.07465 47.0249Z" fill="#0054A5"/>
<path d="M9.64286 42.7424L9.57792 43.1414C9.56169 43.2391 9.4724 43.3042 9.38312 43.2879L9.18831 43.2635C9.36688 43.7113 9.48864 44.1753 9.41558 44.6557C9.31006 45.3884 8.88799 46.0153 7.80844 45.8606L7.70292 45.8443C6.76948 45.7059 6.38799 45.0953 6.60714 43.5484L6.70455 42.9053L6.36364 42.8564C5.63312 42.7506 5.34903 42.9623 5.25162 43.638C5.16234 44.1998 5.1461 44.6231 5.12175 44.9732V45.0139C5.10552 45.0953 5.07305 45.1686 4.95942 45.1523L4.65909 45.1116C4.56169 45.0953 4.5211 45.0302 4.5211 44.9081C4.51299 44.5417 4.5211 44.1346 4.61039 43.5484C4.78896 42.3516 5.46266 41.9527 6.48539 42.0993L9.49675 42.547C9.59416 42.5633 9.65909 42.6529 9.64286 42.7424ZM7.25649 42.9948L7.15909 43.638C7.00487 44.6882 7.19968 44.9976 7.80844 45.0872L7.91396 45.1035C8.53084 45.193 8.74188 44.9325 8.81493 44.4277C8.87175 44.0288 8.80682 43.6543 8.64448 43.2065L7.25649 43.003V42.9948Z" fill="#0054A5"/>
<path d="M10.4058 39.5106C10.3896 39.6815 10.3571 39.9095 10.3165 40.0723C10.1298 40.8539 9.83762 41.1796 8.90418 40.9597L5.9334 40.2514L5.64119 41.0574C5.60872 41.147 5.54379 41.204 5.44638 41.1877L5.21911 41.1307C5.12171 41.1063 5.08112 41.0249 5.10548 40.9353L5.30028 40.1049L4.46424 39.9095C4.37496 39.8932 4.32625 39.8118 4.33437 39.7141L4.36684 39.2582V39.2338C4.38307 39.1686 4.45613 39.1198 4.53729 39.1442L5.46262 39.364L5.68177 38.444C5.70612 38.3545 5.80353 38.2893 5.89281 38.3138L6.18502 38.387C6.27431 38.4115 6.33113 38.501 6.31489 38.5987L6.09574 39.5187L9.0584 40.227C9.52918 40.3328 9.62658 40.227 9.69963 39.8932L9.81327 39.421C9.83762 39.2989 9.88632 39.25 9.97561 39.2745L10.2759 39.3477C10.3571 39.364 10.3977 39.421 10.3814 39.535L10.4058 39.5106Z" fill="#0054A5"/>
<path d="M5.51132 36.4242L5.38145 36.8475C5.34898 36.9371 5.25158 36.9941 5.16229 36.9615L4.49671 36.758C4.40742 36.7335 4.3506 36.6277 4.38307 36.5381L4.51294 36.1066C4.54541 36.0171 4.64281 35.9601 4.7321 35.9927L5.39768 36.1962C5.48697 36.2288 5.54378 36.3265 5.51132 36.416V36.4242ZM10.8279 38.085L10.7061 38.4839C10.6818 38.5735 10.5763 38.6305 10.487 38.5979L6.23372 37.2953C6.14443 37.2627 6.08762 37.165 6.12008 37.0755L6.24184 36.6684C6.2743 36.5788 6.37171 36.5218 6.46099 36.5544L10.7142 37.8652C10.8035 37.8896 10.8603 37.9955 10.8279 38.085Z" fill="#0054A5"/>
<path d="M11.8993 35.2274C11.4285 36.4242 10.3977 36.7173 9.2045 36.237L8.58762 35.9927C7.39444 35.5205 6.8506 34.5924 7.3295 33.4037C7.80028 32.2069 8.83112 31.9057 10.0243 32.3779L10.6412 32.6221C11.8344 33.0944 12.3701 34.0306 11.8993 35.2193V35.2274ZM9.74833 33.1025C8.92041 32.7687 8.26294 32.8908 7.96262 33.6561C7.66229 34.4133 8.0519 34.9506 8.87983 35.2844L9.49671 35.5286C10.3246 35.8624 10.9821 35.7403 11.2824 34.9832C11.5827 34.226 11.1931 33.6805 10.3652 33.3467L9.74833 33.1025Z" fill="#0054A5"/>
<path d="M14.5698 29.561L14.375 29.9274C14.3344 30.017 14.2208 30.0414 14.1396 30.0007L11.6071 28.6411C10.8279 28.2177 10.4545 28.3561 10.138 28.9423C9.96751 29.2679 9.89446 29.6994 9.87822 30.1472L13.125 31.8976C13.198 31.9383 13.2386 32.0523 13.198 32.1337L12.9951 32.5082C12.9545 32.5897 12.849 32.6141 12.7597 32.5734L8.83115 30.4566C8.74186 30.4159 8.70939 30.31 8.7581 30.2286L8.96102 29.846C9.00972 29.7646 9.10712 29.7401 9.19641 29.7809L9.34251 29.8623C9.34251 29.3086 9.40745 28.8934 9.64284 28.4457C10.138 27.5175 10.9415 27.4117 11.9643 27.9653L14.4967 29.3249C14.5779 29.3738 14.6104 29.4796 14.5698 29.561Z" fill="#0054A5"/>
<path d="M16.9318 25.9956L16.7045 26.3294C16.6477 26.4108 16.5422 26.4271 16.461 26.3701L16.3068 26.2643C16.2743 26.7446 16.1769 27.2087 15.9009 27.6158C15.4789 28.2345 14.8295 28.609 13.9285 27.9903L13.8393 27.9333C13.06 27.3959 12.987 26.6795 13.8636 25.3931L14.2289 24.8558L13.9367 24.6604C13.336 24.2452 12.9789 24.3103 12.5974 24.8721C12.2727 25.3443 12.0698 25.7107 11.8993 26.0119C11.8993 26.0282 11.8831 26.0282 11.875 26.0444C11.8344 26.1096 11.7613 26.1584 11.672 26.0933L11.4204 25.9223C11.3393 25.8653 11.3311 25.7839 11.388 25.6781C11.5422 25.3443 11.7289 24.9861 12.0617 24.4976C12.7435 23.4962 13.5227 23.4392 14.375 24.0254L16.8912 25.7514C16.9724 25.8083 16.9886 25.9142 16.9318 25.9956ZM14.6753 25.1733L14.31 25.7106C13.7175 26.5818 13.75 26.9481 14.2613 27.2982L14.3506 27.3552C14.8701 27.7134 15.1704 27.5588 15.4626 27.1435C15.6899 26.8097 15.7954 26.4515 15.8441 25.9712L14.6834 25.1733H14.6753Z" fill="#0054A5"/>
<path d="M18.0925 24.5299L17.8084 24.8881C17.7516 24.9532 17.6542 24.9614 17.573 24.9044L12.711 20.9965C12.646 20.9395 12.6217 20.8499 12.6785 20.7685L12.9626 20.4103C13.0194 20.3452 13.1087 20.3289 13.1899 20.394L18.0519 24.3019C18.1168 24.3589 18.1493 24.4566 18.0925 24.538V24.5299Z" fill="#0054A5"/>
<path d="M21.8994 20.524C20.901 21.4602 19.6266 21.5579 18.3036 20.1413L17.5325 19.319C16.2094 17.9024 16.3799 16.6324 17.3864 15.688C18.3929 14.7435 19.6591 14.6621 20.9821 16.0787L21.7533 16.901C23.0763 18.3176 22.9058 19.5796 21.9075 20.524H21.8994ZM20.3896 16.6242C19.3831 15.5495 18.5714 15.5495 17.8734 16.209C17.1753 16.8603 17.1185 17.6907 18.1169 18.7654L18.888 19.5877C19.8945 20.6624 20.7143 20.6542 21.4123 19.9948C22.1023 19.3435 22.1591 18.5212 21.1607 17.4465L20.3896 16.6242Z" fill="#0054A5"/>
<path d="M23.336 13.7753C23.0195 14.0195 22.7922 14.3289 22.6055 14.8011L24.8295 17.7158C24.8864 17.7809 24.8701 17.903 24.7971 17.96L24.4562 18.2205C24.3912 18.2775 24.2776 18.2612 24.2208 18.1798L21.5179 14.6383C21.4529 14.565 21.4692 14.4592 21.5422 14.4022L21.8669 14.1498C21.948 14.0928 22.0454 14.1091 22.1023 14.1905L22.2159 14.3371C22.3782 13.8323 22.6217 13.4985 22.9383 13.2542C23.0357 13.181 23.1169 13.181 23.1737 13.2705L23.3929 13.5555C23.4497 13.6288 23.4334 13.7102 23.336 13.7834V13.7753Z" fill="#0054A5"/>
<path d="M27.2971 11.1376L27.0617 11.3574C27.2808 11.4144 27.5406 11.561 27.7922 11.9599L27.8328 12.0169C28.3441 12.831 28.1331 13.5963 26.9967 14.3209C26.6071 14.5733 26.3149 14.671 26.0471 14.7199C25.9578 14.8583 25.9578 14.9804 26.0227 15.0862C26.1039 15.2165 26.2013 15.2409 26.4042 15.1758L27.6786 14.7606C28.5146 14.4838 29.3425 14.2477 29.7808 14.9397L29.8214 14.9967C30.2678 15.705 30.073 16.4377 28.8717 17.2111C27.711 17.9602 26.8912 17.8462 26.4367 17.1216L26.3961 17.0565C26.1364 16.6494 26.1364 16.1609 26.2662 15.8271H26.2013C25.901 15.8841 25.6493 15.705 25.4951 15.477C25.3653 15.2735 25.3247 14.9967 25.4545 14.7443C25.0893 14.6792 24.8133 14.4838 24.5698 14.1093L24.5292 14.0441C24.1153 13.3847 24.0666 12.5054 25.3328 11.6912L26.9399 10.6654C27.0292 10.6084 27.151 10.6329 27.2159 10.7224L27.3377 10.9178C27.4026 11.0155 27.3701 11.0725 27.2971 11.1458V11.1376ZM27.1591 12.367C26.8831 11.9273 26.461 11.7075 25.6656 12.2123C24.8377 12.7415 24.9107 13.2218 25.1704 13.6371L25.211 13.694C25.414 14.0197 25.836 14.3535 26.6802 13.808C27.4756 13.3033 27.4756 12.8636 27.1916 12.424L27.151 12.3588H27.1591V12.367ZM29.1396 15.3549C28.9529 15.0618 28.6445 15.0944 27.8815 15.3549L26.9156 15.6724C26.8182 15.9899 26.7857 16.2749 27.0373 16.6575L27.0779 16.7227C27.3377 17.1297 27.7435 17.2356 28.5633 16.7227C29.3993 16.1853 29.4399 15.8271 29.1802 15.42L29.1396 15.363V15.3549Z" fill="#0054A5"/>
<path d="M33.1169 12.9126L32.7516 13.0917C32.6623 13.1324 32.5568 13.0917 32.5162 13.0103L32.435 12.8393C32.1672 13.2464 31.8587 13.6046 31.4123 13.8244C30.7467 14.1501 29.9919 14.1663 29.513 13.1812L29.4643 13.0917C29.0503 12.245 29.3344 11.5692 30.7224 10.8853L31.2987 10.6004L31.1445 10.2829C30.8198 9.62342 30.4789 9.50944 29.8701 9.81067C29.3587 10.0631 29.0016 10.2829 28.7013 10.462C28.685 10.4701 28.6769 10.4783 28.6607 10.4864C28.5876 10.519 28.5065 10.5353 28.4578 10.4294L28.3198 10.1526C28.2792 10.0631 28.3198 9.98979 28.4091 9.92465C28.7013 9.71298 29.0422 9.48502 29.5698 9.21635C30.6574 8.67901 31.3636 9.01281 31.8263 9.94094L33.1737 12.6846C33.2143 12.766 33.1737 12.88 33.0925 12.9207H33.1169V12.9126ZM31.5584 11.0889L30.9821 11.3738C30.0324 11.846 29.8863 12.1798 30.1623 12.7416L30.211 12.8312C30.487 13.4011 30.8279 13.4173 31.2824 13.1894C31.6477 13.0103 31.9074 12.7416 32.1834 12.3508L31.5584 11.0889Z" fill="#0054A5"/>
<path d="M37.4513 11.2429L37.0535 11.3895C36.9643 11.422 36.8587 11.3732 36.8344 11.2836L35.8522 8.58068C35.5519 7.75025 35.1785 7.59556 34.5535 7.82352C34.2126 7.95379 33.8717 8.22245 33.5633 8.54811L34.8214 12.0245C34.8539 12.1059 34.8052 12.2199 34.7159 12.2443L34.31 12.3909C34.2289 12.4234 34.1234 12.3746 34.099 12.285L32.573 8.08405C32.5406 7.99449 32.573 7.8968 32.6704 7.86423L33.0844 7.70954C33.1737 7.67698 33.263 7.72583 33.2954 7.81538L33.3522 7.97007C33.7094 7.54671 34.0341 7.29433 34.5211 7.11522C35.5032 6.75699 36.1688 7.21291 36.5747 8.31201L37.5568 11.015C37.5893 11.1045 37.5406 11.2104 37.4513 11.2429Z" fill="#0054A5"/>
<path d="M37.8084 5.36515L37.3782 5.47913C37.289 5.50356 37.1834 5.44656 37.1672 5.35701L36.9805 4.68127C36.9562 4.59171 37.013 4.49402 37.1023 4.46959L37.5325 4.34747C37.6217 4.32305 37.7273 4.38004 37.7435 4.46959L37.9302 5.14533C37.9545 5.23489 37.8977 5.33258 37.8084 5.35701V5.36515ZM39.2532 10.7548L38.8474 10.8606C38.7581 10.8851 38.6607 10.8281 38.6364 10.7385L37.4675 6.43168C37.4432 6.34212 37.4919 6.24443 37.5893 6.22L37.9951 6.11416C38.0844 6.08974 38.1818 6.14673 38.2062 6.23628L39.375 10.5431C39.3993 10.6327 39.3506 10.7385 39.2532 10.7548Z" fill="#0054A5"/>
<path d="M43.4253 9.84277L40.836 10.3557C40.4707 10.429 40.2678 10.2254 40.2191 9.98117L40.1866 9.81834C40.1379 9.58224 40.1623 9.4357 40.2759 9.22402L41.948 6.02443C41.948 6 41.9724 5.96744 41.9642 5.94301C41.9642 5.90231 41.9318 5.88602 41.8668 5.90231L39.7808 6.30938C39.6834 6.32566 39.5941 6.26867 39.5698 6.17097L39.5129 5.87788C39.4967 5.78833 39.5535 5.69063 39.6509 5.67435L42.1753 5.17772C42.5243 5.10444 42.6866 5.24285 42.7353 5.50338L42.7759 5.71505C42.8084 5.89416 42.7759 6.03257 42.6704 6.22796L40.9659 9.50083C40.9415 9.54153 40.9334 9.58224 40.9415 9.60667C40.9415 9.64737 40.9659 9.6718 41.0227 9.66365L43.2873 9.21588C43.3847 9.19145 43.474 9.25658 43.4902 9.35428L43.547 9.64737C43.5633 9.73693 43.5065 9.83463 43.409 9.85091H43.4253V9.84277Z" fill="#0054A5"/>
<path d="M47.5162 9.41116L47.1104 9.45186C47.013 9.45186 46.9318 9.38673 46.9237 9.28903L46.9074 9.09364C46.5097 9.37859 46.0957 9.59841 45.6087 9.64726C44.8701 9.71239 44.1639 9.45186 44.0665 8.36905V8.26321C43.9691 7.3188 44.4724 6.80589 46.0227 6.65935L46.6639 6.60236L46.6315 6.25227C46.5665 5.51954 46.2906 5.29158 45.6087 5.34857C45.0406 5.39742 44.6266 5.47884 44.2857 5.54397H44.2451C44.1639 5.54397 44.0909 5.52769 44.0746 5.41371L44.0503 5.11247C44.0503 5.01477 44.0909 4.95778 44.2207 4.93336C44.5698 4.83566 44.9675 4.74611 45.5519 4.69726C46.7613 4.59142 47.3052 5.15318 47.3944 6.179L47.6704 9.2239C47.6704 9.3216 47.6055 9.40301 47.5162 9.4193V9.41116ZM46.7126 7.14783L46.0714 7.21297C45.0162 7.31066 44.7646 7.57119 44.8214 8.18994V8.29578C44.8863 8.92267 45.2029 9.06107 45.698 9.01223C46.0957 8.97152 46.4448 8.81683 46.8425 8.5563L46.7126 7.15598V7.14783Z" fill="#0054A5"/>
<path d="M50.8604 9.37033C50.6818 9.39476 50.4545 9.41918 50.2922 9.41918C49.4886 9.43546 49.099 9.22379 49.0828 8.2631L49.0422 5.20191L48.1899 5.1205C48.0925 5.11236 48.0195 5.05537 48.0195 4.96581V4.72971C48.0195 4.63201 48.0844 4.57502 48.1818 4.56688L49.0341 4.5506L49.0179 3.69574C49.0179 3.60619 49.0747 3.54106 49.1721 3.51663L49.6266 3.44336H49.651C49.724 3.44336 49.7808 3.50035 49.7808 3.58991L49.7971 4.54245L50.7386 4.52617C50.836 4.52617 50.9172 4.59945 50.9172 4.69714V4.99838C50.9172 5.09607 50.8441 5.17749 50.7467 5.17749L49.8052 5.19377L49.8539 8.25496C49.8539 8.7353 49.9838 8.80857 50.3328 8.80043H50.8198C50.9415 8.79229 51.0065 8.82486 51.0065 8.91441V9.22379C51.0065 9.3052 50.9659 9.35405 50.8523 9.37033H50.8604Z" fill="#0054A5"/>
<path d="M52.3782 9.45199L51.9562 9.42756C51.8588 9.42756 51.7857 9.33801 51.7938 9.24031L52.0536 4.77879C52.0536 4.6811 52.1429 4.60782 52.2403 4.61597L52.6623 4.64039C52.7597 4.64039 52.8328 4.72995 52.8247 4.82764L52.5649 9.28101C52.5649 9.37871 52.4756 9.45199 52.3782 9.45199ZM52.7192 3.87509L52.2727 3.85067C52.1753 3.85067 52.1023 3.76111 52.1104 3.66342L52.151 2.96325C52.151 2.86555 52.2403 2.79228 52.3377 2.80042L52.7841 2.82485C52.8815 2.82485 52.9545 2.9144 52.9464 3.0121L52.9058 3.71226C52.9058 3.80996 52.8166 3.88323 52.7192 3.87509Z" fill="#0054A5"/>
<path d="M55.3896 9.81069C54.1152 9.63972 53.5795 8.70345 53.75 7.43338L53.8393 6.77393C54.0097 5.49572 54.7727 4.73856 56.0471 4.91768C57.3214 5.08865 57.8652 6.02491 57.6948 7.29498L57.6055 7.95444C57.435 9.23264 56.6639 9.9898 55.3896 9.81069ZM56.9318 7.18914C57.0536 6.30172 56.7776 5.69111 55.9578 5.57713C55.1542 5.47129 54.724 5.97606 54.6023 6.87162L54.513 7.53108C54.3912 8.4185 54.6591 9.02911 55.4789 9.14309C56.2824 9.24893 56.7208 8.74416 56.8425 7.8486L56.9318 7.18914Z" fill="#0054A5"/>
<path d="M61.5178 11.048L61.112 10.9422C61.0146 10.9177 60.9659 10.82 60.9821 10.7305L61.6883 7.93796C61.9075 7.08311 61.6883 6.74117 61.0389 6.57834C60.3896 6.41551 60.2516 6.52135 59.8133 6.61905L58.9042 10.2013C58.8799 10.2908 58.7824 10.3478 58.6932 10.3315L58.2792 10.2257C58.1899 10.2013 58.1412 10.1117 58.1575 10.014L59.2613 5.68278C59.2857 5.58508 59.375 5.52809 59.4643 5.55252L59.8863 5.65836C59.9837 5.67464 60.0324 5.77234 60.0081 5.87003L59.9675 6.03286C60.4951 5.88632 60.9091 5.86189 61.4123 5.99215C62.4269 6.25268 62.7273 7.00169 62.435 8.1415L61.7208 10.934C61.6964 11.0236 61.599 11.0887 61.5097 11.0643V11.048H61.5178Z" fill="#0054A5"/>
<path d="M68.9204 7.36805L68.5308 7.20522C68.1493 7.05054 67.9951 7.11567 67.8084 7.55531L67.5649 8.14149L68.4172 8.49157C68.5065 8.53228 68.5471 8.62183 68.5065 8.70325L68.3766 9.02077C68.3441 9.10218 68.2548 9.1266 68.1656 9.09404L67.3133 8.74396L65.7954 12.4402C65.763 12.5216 65.6574 12.5704 65.5763 12.5379L65.1785 12.375C65.0893 12.3425 65.0487 12.2285 65.0811 12.1471L66.599 8.45086L65.8522 8.03565C65.763 7.99494 65.7224 7.90539 65.7548 7.82397L65.8441 7.60415C65.8766 7.52274 65.9659 7.49017 66.0552 7.52274L66.8425 7.8484L67.0779 7.27035C67.435 6.39922 67.9626 6.3178 68.6688 6.6109C68.888 6.70045 69.0097 6.78187 69.099 6.847C69.1802 6.91213 69.2289 6.96912 69.2045 7.04239L69.0909 7.31106C69.0584 7.40062 68.9854 7.40876 68.8961 7.37619H68.9204V7.36805Z" fill="#0054A5"/>
<path d="M68.7013 14.0765C67.5649 13.474 67.3782 12.4238 67.9708 11.284L68.2792 10.6978C68.8799 9.55799 69.8458 9.11021 70.9821 9.71268C72.1185 10.307 72.3133 11.3654 71.7126 12.5052L71.4042 13.0995C70.8036 14.2393 69.8295 14.679 68.6932 14.0846L68.7013 14.0765ZM71.0389 12.147C71.4529 11.3573 71.3961 10.6897 70.6737 10.307C69.9594 9.9325 69.3831 10.2582 68.961 11.056L68.6526 11.6503C68.2386 12.4401 68.2873 13.1077 69.0178 13.4903C69.7321 13.873 70.3165 13.5392 70.7386 12.7413L71.0471 12.1551L71.0389 12.147Z" fill="#0054A5"/>
<path d="M75.073 12.9199C74.7321 12.7082 74.375 12.5942 73.8636 12.578L71.8831 15.6554C71.8344 15.7287 71.7207 15.7613 71.6477 15.7043L71.2824 15.4763C71.2094 15.4275 71.185 15.3216 71.2418 15.2402L73.6444 11.4951C73.7013 11.4137 73.7987 11.3893 73.8798 11.4381L74.2207 11.658C74.3019 11.7068 74.3181 11.8127 74.2613 11.8941L74.1639 12.0488C74.6996 12.0243 75.0974 12.1546 75.422 12.3663C75.5276 12.4314 75.5519 12.5128 75.4951 12.6024L75.3003 12.9036C75.2516 12.985 75.1704 12.9932 75.0649 12.928H75.073V12.9199Z" fill="#0054A5"/>
<path d="M76.2581 19.2056C75.7954 18.8066 75.4951 18.4566 75.2435 18.1635C75.1461 18.0495 75.1623 18.0088 75.2191 17.9355L75.4464 17.675C75.5113 17.6017 75.5925 17.6099 75.6493 17.6668C75.6493 17.6668 75.6656 17.6831 75.6737 17.6831C75.9496 17.9762 76.4204 18.4077 76.7289 18.6682C77.5243 19.3521 78.0113 19.2219 78.4091 18.7578C78.6932 18.4321 78.6607 18.0739 78.3847 17.1865L78.0763 16.2421C77.7922 15.3384 77.7759 14.7441 78.2305 14.2149C78.9204 13.4089 79.8133 13.5391 80.8198 14.4103C81.2094 14.7522 81.6802 15.2244 81.8993 15.4849C81.9561 15.5582 81.9724 15.6315 81.9156 15.6966L81.6721 15.9816C81.6152 16.0467 81.5341 16.0467 81.4691 15.9897C81.4691 15.9897 81.4691 15.9897 81.4529 15.9734C81.1769 15.7048 80.7305 15.2814 80.349 14.9476C79.6672 14.3614 79.2532 14.2556 78.8311 14.7359C78.5633 15.0534 78.6201 15.4198 78.8636 16.1607L79.1558 17.0562C79.5292 18.1716 79.4886 18.7741 79.0259 19.3033C78.4821 19.9383 77.5568 20.3454 76.25 19.2137L76.2581 19.2056Z" fill="#0054A5"/>
<path d="M79.935 22.6653C79.7971 22.5595 79.6266 22.4048 79.5048 22.2908C78.9448 21.7128 78.823 21.2976 79.5048 20.6218L81.6802 18.4806L81.1526 17.8049C81.0876 17.7316 81.0795 17.6421 81.1526 17.5769L81.323 17.4141C81.388 17.349 81.4854 17.3571 81.5503 17.4223L82.1428 18.0247L82.7516 17.4223C82.8165 17.3571 82.9058 17.3571 82.987 17.4141L83.3522 17.6909L83.3685 17.7072C83.4172 17.756 83.4172 17.8456 83.3522 17.9026L82.6704 18.5702L83.336 19.2459C83.4009 19.3111 83.4009 19.425 83.336 19.4983L83.125 19.71C83.06 19.7751 82.9464 19.7751 82.8734 19.71L82.2159 19.0343L80.0406 21.1755C79.6996 21.5093 79.7321 21.6477 79.9756 21.9L80.3165 22.2501C80.3977 22.3397 80.4221 22.4048 80.3571 22.4699L80.138 22.6816C80.0811 22.7386 80.0081 22.7386 79.9188 22.6735H79.935V22.6653Z" fill="#0054A5"/>
<path d="M82.4756 25.6857L82.224 25.3682C82.1591 25.2949 82.1753 25.181 82.2483 25.124L82.3944 25.0018C81.9399 24.8309 81.5178 24.6029 81.2175 24.2284C80.7467 23.6504 80.5681 22.9176 81.4123 22.2256L81.4935 22.1605C82.224 21.5661 82.9383 21.6883 83.9204 22.9013L84.3263 23.4061L84.6022 23.1863C85.1704 22.7222 85.2029 22.364 84.7808 21.8348C84.4237 21.3952 84.1315 21.0858 83.8798 20.8416C83.8798 20.8253 83.8636 20.8171 83.8555 20.809C83.8068 20.7439 83.7743 20.6706 83.8555 20.5973L84.0909 20.4019C84.1639 20.3368 84.2451 20.3531 84.3344 20.4426C84.6104 20.6787 84.9026 20.9637 85.2759 21.4196C86.0389 22.364 85.8766 23.1374 85.0811 23.7806L82.7191 25.7101C82.6461 25.7753 82.5324 25.759 82.4756 25.6857ZM83.8961 23.7481L83.4902 23.2514C82.8246 22.4291 82.4675 22.364 81.9886 22.7548L81.9074 22.8199C81.4204 23.2189 81.4772 23.5527 81.8019 23.9516C82.0535 24.261 82.3782 24.4645 82.8165 24.6436L83.9042 23.7481H83.8961Z" fill="#0054A5"/>
<path d="M85.0243 29.5045L84.797 29.1544C84.7402 29.073 84.7646 28.9672 84.8458 28.9102L87.2565 27.347C87.9951 26.8667 88.06 26.4678 87.7029 25.9141C87.5081 25.6048 87.1672 25.3361 86.7776 25.1081L83.685 27.1191C83.612 27.1679 83.4983 27.1516 83.4415 27.0702L83.2061 26.712C83.1574 26.6387 83.1818 26.5248 83.263 26.4759L86.9967 24.0498C87.0779 24.0009 87.1834 24.0091 87.2321 24.0905L87.4675 24.4568C87.5243 24.5382 87.4919 24.6441 87.4107 24.6929L87.2727 24.7825C87.7597 25.043 88.0844 25.2954 88.3685 25.735C88.9367 26.6143 88.6445 27.3715 87.6704 28.0065L85.2597 29.5697C85.1785 29.6185 85.073 29.5941 85.0162 29.5127L85.0243 29.5045Z" fill="#0054A5"/>
<path d="M87.1672 33.4534C86.8344 33.0137 86.5584 32.5578 86.3149 32.0775C85.7386 30.9132 86.2256 29.9933 87.3945 29.4071L87.9545 29.1303C89.1802 28.5197 90.1461 28.7395 90.7143 29.8793C91.2824 31.0191 90.9984 30.498 91.0958 30.8318L92.5487 30.1072C92.6298 30.0665 92.7273 30.1072 92.7678 30.1805L92.9626 30.5794C93.0032 30.6527 92.9626 30.7504 92.8815 30.7911L87.4188 33.5266C87.3133 33.5755 87.2484 33.5836 87.1591 33.4534H87.1672ZM90.5195 31.1249C90.4383 30.84 90.2435 30.4329 90.1136 30.1805C89.7321 29.4071 89.1315 29.3989 88.2954 29.8141L87.7354 30.0991C86.8831 30.5225 86.526 31.0028 86.9156 31.7762C87.0454 32.0449 87.2565 32.4194 87.4188 32.6718L90.5195 31.1249Z" fill="#0054A5"/>
<path d="M88.6607 37.5402L88.5227 37.1657C88.4902 37.0762 88.5389 36.9703 88.6282 36.9378L88.8068 36.8726C88.4334 36.5632 88.1088 36.2213 87.9383 35.7572C87.6867 35.0571 87.7435 34.3081 88.7743 33.9254L88.8717 33.8928C89.7565 33.559 90.3815 33.9173 90.9253 35.3746L91.1526 35.9852L91.4773 35.8631C92.1672 35.6026 92.3133 35.285 92.0779 34.6419C91.8831 34.1045 91.7045 33.73 91.5503 33.4125C91.5503 33.3962 91.5503 33.3881 91.5341 33.3718C91.5097 33.2985 91.5097 33.2171 91.6152 33.1764L91.8993 33.0706C91.9886 33.038 92.0617 33.0706 92.1185 33.1845C92.2971 33.5021 92.4919 33.8603 92.6948 34.4139C93.1169 35.5537 92.711 36.2294 91.7532 36.5877L88.8961 37.6542C88.8068 37.6868 88.7094 37.6379 88.6688 37.5484H88.6607V37.5402ZM90.6331 36.1725L90.4058 35.5618C90.0406 34.5686 89.724 34.3895 89.1396 34.6093L89.0422 34.6419C88.4497 34.8617 88.401 35.1955 88.5714 35.6758C88.7094 36.0585 88.9529 36.3434 89.3101 36.6609L90.6331 36.1725Z" fill="#0054A5"/>
<path d="M93.547 39.4127C93.4415 39.0301 93.2386 38.6963 92.8733 38.3462L89.3506 39.3232C89.2613 39.3476 89.1558 39.2906 89.1396 39.201L89.0259 38.7858C89.0016 38.6963 89.0584 38.6067 89.1558 38.5823L93.4497 37.3936C93.5389 37.3692 93.6363 37.4099 93.6607 37.5076L93.7662 37.9066C93.7906 37.9961 93.7337 38.0857 93.6444 38.1182L93.4659 38.1671C93.8717 38.509 94.0909 38.8672 94.1964 39.2418C94.2289 39.3639 94.1964 39.4371 94.0909 39.4616L93.75 39.5511C93.6607 39.5756 93.5876 39.5348 93.5552 39.4127H93.547Z" fill="#0054A5"/>
<path d="M90.349 44.3785C90.1461 43.8656 90.0081 43.3527 89.9107 42.8235C89.6753 41.5371 90.3977 40.7881 91.6802 40.552L92.297 40.438C93.6444 40.1857 94.513 40.666 94.7483 41.9198C94.797 42.1885 94.8457 42.5955 94.8539 42.9456L96.4529 42.6444C96.5341 42.6281 96.6233 42.6851 96.6477 42.7746L96.7289 43.2143C96.7451 43.3038 96.6883 43.3852 96.599 43.4015L90.5925 44.525C90.4789 44.5413 90.4139 44.525 90.3571 44.3785H90.349ZM94.2207 43.0596C94.2207 42.7665 94.1396 42.3106 94.0909 42.0419C93.9366 41.1952 93.3604 41.0161 92.4431 41.1952L91.8263 41.3092C90.8847 41.4801 90.422 41.8465 90.5763 42.7014C90.6331 42.9945 90.7305 43.4097 90.8117 43.7028L94.2207 43.0677V43.0596Z" fill="#0054A5"/>
<path d="M90.4545 46.2265L90.4139 45.8031C90.4139 45.7054 90.4708 45.624 90.5682 45.6077L95 45.1436C95.0974 45.1436 95.1786 45.2006 95.1948 45.2983L95.2354 45.7217C95.2354 45.8194 95.1704 45.9008 95.0811 45.9171L90.6574 46.3811C90.56 46.3811 90.4708 46.3241 90.4626 46.2265H90.4545ZM95.9984 45.6647L95.9497 45.2169C95.9497 45.1192 96.0146 45.0378 96.1039 45.0215L96.8019 44.9482C96.8993 44.9482 96.9805 45.0052 96.9967 45.1029L97.0373 45.5507C97.0373 45.6484 96.9805 45.738 96.8831 45.7461L96.185 45.8194C96.0876 45.8194 96.0065 45.7542 95.9902 45.6647H95.9984Z" fill="#0054A5"/>
<path d="M90.6818 50.5176L90.6006 47.8717C90.5844 47.489 90.8198 47.3262 91.0633 47.318H91.2337C91.4772 47.3018 91.6071 47.3587 91.81 47.4972L94.6834 49.6709C94.7078 49.6872 94.7321 49.7035 94.7646 49.7035C94.797 49.7035 94.8295 49.6791 94.8214 49.6139L94.7565 47.4809C94.7565 47.3832 94.8295 47.3018 94.9269 47.3018H95.2272C95.3246 47.3018 95.4058 47.3669 95.4058 47.4646L95.487 50.0454C95.487 50.4037 95.3328 50.5421 95.073 50.5502H94.862C94.6753 50.5665 94.5454 50.5095 94.375 50.3711L91.4285 48.1566C91.388 48.124 91.3555 48.1159 91.3311 48.1159C91.2906 48.1159 91.2662 48.1159 91.2662 48.1892L91.3393 50.5013C91.3393 50.599 91.2662 50.6805 91.1688 50.6805H90.8685C90.7711 50.6805 90.6899 50.6153 90.6899 50.5176H90.6818Z" fill="#0054A5"/>
<path d="M90.4464 54.6939L90.4789 54.2868C90.4789 54.1891 90.5682 54.1158 90.6656 54.124L90.8523 54.1402C90.6412 53.7006 90.487 53.2528 90.5195 52.7643C90.5682 52.0153 90.9415 51.364 92.0292 51.4373H92.1347C93.0763 51.5106 93.5065 52.0967 93.401 53.6518L93.3604 54.2949L93.7094 54.3194C94.4399 54.3682 94.7159 54.1402 94.7565 53.4564C94.7971 52.8865 94.7889 52.4712 94.7808 52.113V52.0723C94.7808 51.9909 94.8214 51.9176 94.9269 51.9258L95.2354 51.9502C95.3328 51.9502 95.3815 52.0235 95.3815 52.1456C95.4221 52.5038 95.4464 52.9109 95.4058 53.5052C95.3165 54.7183 94.6753 55.1661 93.6445 55.0928L90.6088 54.8811C90.5114 54.8811 90.4383 54.7916 90.4464 54.6939ZM92.8084 54.2624L92.849 53.6192C92.9221 52.5608 92.711 52.2677 92.0941 52.2189H91.9886C91.3636 52.17 91.1769 52.455 91.1364 52.9597C91.112 53.3587 91.2013 53.7332 91.4042 54.1647L92.8084 54.2624Z" fill="#0054A5"/>
<path d="M89.9431 57.9995C89.9431 57.8203 89.9675 57.5924 89.9918 57.4296C90.1136 56.6317 90.3815 56.2816 91.3311 56.4363L94.3425 56.9085L94.5698 56.0862C94.5941 55.9967 94.6591 55.9315 94.7483 55.9478L94.9837 55.9885C95.0811 56.0048 95.1298 56.0781 95.1136 56.1758L94.9837 57.0143L95.8279 57.1446C95.9172 57.1609 95.974 57.2342 95.974 57.3237V57.8122C95.9578 57.8773 95.8928 57.9343 95.8035 57.918L94.862 57.7715L94.7159 58.7078C94.6996 58.8055 94.6104 58.8706 94.513 58.8543L94.2207 58.8055C94.1233 58.7892 94.0584 58.6996 94.0746 58.6019L94.2207 57.6657L91.2094 57.1935C90.7386 57.1202 90.6493 57.226 90.5925 57.5761L90.5194 58.0564C90.4951 58.1786 90.4545 58.2356 90.3733 58.2193L90.073 58.1704C90 58.1541 89.9513 58.1053 89.9513 57.9913H89.9431V57.9995Z" fill="#0054A5"/>
<path d="M89.6347 59.4815L89.724 59.0744C89.7483 58.9767 89.8376 58.9197 89.935 58.9441L94.2857 59.913C94.3831 59.9374 94.4399 60.0269 94.4155 60.1246L94.3263 60.5317C94.3019 60.6213 94.2126 60.6864 94.1152 60.662L89.7646 59.6931C89.6672 59.6768 89.6104 59.5791 89.6347 59.4815ZM95.073 60.7108L95.1704 60.2712C95.1867 60.1816 95.2841 60.1165 95.3815 60.1409L96.0633 60.2956C96.1526 60.3119 96.2175 60.4096 96.1931 60.5073L96.0958 60.9388C96.0714 61.0365 95.9821 61.0935 95.8847 61.069L95.2029 60.9143C95.1055 60.8899 95.0487 60.8004 95.073 60.7027V60.7108Z" fill="#0054A5"/>
<path d="M88.8068 62.3799C89.1802 61.1505 90.1785 60.776 91.4123 61.1505L92.0454 61.3459C93.2711 61.7205 93.888 62.5997 93.5146 63.8291C93.1412 65.0584 92.1347 65.4411 90.9091 65.0666L90.2759 64.8712C89.0503 64.4967 88.4334 63.6093 88.8149 62.3799H88.8068ZM91.1282 64.3257C91.9805 64.5862 92.6298 64.4153 92.8652 63.6255C93.1006 62.844 92.6704 62.3392 91.8182 62.0787L91.185 61.8833C90.3328 61.6228 89.6915 61.7937 89.448 62.5753C89.2126 63.3569 89.6347 63.8698 90.4951 64.1385L91.1282 64.3339V64.3257Z" fill="#0054A5"/>
<path d="M86.6071 68.2084L86.7776 67.8257C86.8181 67.7362 86.9237 67.6955 87.013 67.7362L89.6428 68.8841C90.4464 69.2423 90.8117 69.0795 91.0795 68.4689C91.2256 68.127 91.2581 67.6955 91.2418 67.2477L87.8652 65.7659C87.7841 65.7334 87.7354 65.6275 87.7759 65.538L87.9464 65.1472C87.9789 65.0658 88.0844 65.0251 88.1737 65.0658L92.2483 66.8487C92.3376 66.8895 92.3782 66.979 92.3376 67.0686L92.1672 67.4675C92.1266 67.5571 92.0292 67.5896 91.9399 67.5489L91.7857 67.4838C91.8425 68.0293 91.81 68.4445 91.599 68.9248C91.185 69.8855 90.3896 70.0565 89.3344 69.5924L86.7045 68.4363C86.6152 68.3956 86.5746 68.2898 86.6152 68.2002L86.6071 68.2084Z" fill="#0054A5"/>
<path d="M39.9837 96.1497C38.9772 96.1497 38.2467 96.0358 37.7922 95.9299C37.6136 95.8892 37.5487 95.8159 37.5487 95.6857V94.7168C37.5487 94.5622 37.6298 94.4807 37.7516 94.4807H37.8084C38.3441 94.5703 39.1802 94.6354 39.8376 94.6354C40.8198 94.6354 41.2256 94.2446 41.2256 93.0071V92.9257C40.9334 92.9827 40.3815 93.0641 39.9107 93.0641C38.4091 93.0641 37.1591 92.421 37.1591 90.5728V90.4914C37.1591 88.798 38.1818 87.6582 40.0974 87.6582C42.013 87.6582 43.0844 88.7166 43.0844 90.9392V92.6489C43.0844 95.1728 41.8831 96.1579 39.9837 96.1579V96.1497ZM41.2256 90.9311C41.2256 89.4168 40.7467 89.0992 40.0974 89.0992C39.448 89.0992 39.0178 89.3842 39.0178 90.4833V90.5647C39.0178 91.4847 39.5535 91.7289 40.211 91.7289C40.8685 91.7289 40.9659 91.6638 41.2256 91.615V90.9311Z" fill="#0054A5"/>
<path d="M47.1834 96.1501C45.2922 96.1501 44.1883 95.0673 44.1883 92.3887V91.428C44.1883 88.7495 45.2922 87.6504 47.1834 87.6504C49.0747 87.6504 50.1867 88.7413 50.1867 91.428V92.3887C50.1867 95.0673 49.0747 96.1501 47.1834 96.1501ZM48.2792 91.428C48.2792 89.6613 47.8003 89.238 47.1753 89.238C46.5503 89.238 46.0876 89.6613 46.0876 91.428V92.3887C46.0876 94.1554 46.5584 94.5625 47.1753 94.5625C47.7922 94.5625 48.2792 94.1554 48.2792 92.3887V91.428Z" fill="#0054A5"/>
<path d="M54.2532 96.1501C52.362 96.1501 51.2581 95.0673 51.2581 92.3887V91.428C51.2581 88.7495 52.362 87.6504 54.2532 87.6504C56.1444 87.6504 57.2646 88.7413 57.2646 91.428V92.3887C57.2646 95.0673 56.1525 96.1501 54.2532 96.1501ZM55.3571 91.428C55.3571 89.6613 54.8782 89.238 54.2532 89.238C53.6282 89.238 53.1655 89.6613 53.1655 91.428V92.3887C53.1655 94.1554 53.6363 94.5625 54.2532 94.5625C54.8701 94.5625 55.3571 94.1554 55.3571 92.3887V91.428Z" fill="#0054A5"/>
<path d="M60.5682 94.4644V89.661L59.1152 90.2878C59.0584 90.3123 59.0178 90.3204 58.9854 90.3204C58.9042 90.3204 58.8636 90.2634 58.8636 90.1739V88.9038C58.8636 88.8224 58.8961 88.7817 58.9773 88.7491L60.9902 87.7966C61.0714 87.764 61.1363 87.7559 61.25 87.7559H62.2565C62.3782 87.7559 62.4675 87.8454 62.4675 87.9675V94.4726H63.9448C64.0665 94.4726 64.1721 94.5621 64.1721 94.6842V95.8322C64.1721 95.9543 64.0665 96.0601 63.9448 96.0601H59.0909C58.9691 96.0601 58.8636 95.9543 58.8636 95.8322V94.6842C58.8636 94.5621 58.9691 94.4726 59.0909 94.4726H60.5682V94.4644Z" fill="#0054A5"/>
</svg>
