<svg width="100" height="91" viewBox="0 0 100 91" fill="none" xmlns="http://www.w3.org/2000/svg">
<g clip-path="url(#clip0_273_22592)">
<path d="M100.092 0H0V91H100.092V0Z" fill="white"/>
<path d="M28.369 32.1485V25.0195H9.68353V32.1485H13.9704V47.3977H9.68353V54.5266H28.369V47.3977H24.0821V32.1485H28.369Z" fill="#00539F"/>
<path d="M48.9895 36.3417C47.8346 36.0072 41.892 34.3135 40.8631 33.9789C39.8342 33.6444 38.9943 33.1634 38.9943 32.557C38.9943 31.9507 39.9392 31.3024 41.8501 31.3024C47.8766 31.3024 50.7717 35.0035 50.7717 35.0035C50.7717 35.0035 51.098 35.4363 51.2073 35.5915H57.0217V25.494H50.7798V27.3311C50.303 27.0032 46.7834 24.7158 41.3251 24.7158C34.1226 24.7158 30.1119 28.4378 30.1119 33.9998C30.1119 39.5619 35.1725 41.862 36.5794 42.4474C37.9863 43.0329 43.4879 44.5802 45.8398 45.3121C48.1916 46.0439 49.0525 46.5667 49.0525 46.9431C49.0525 47.3195 48.0236 48.3022 45.0838 48.3022C39.963 48.3022 37.326 45.2952 36.8632 44.7129V44.7084C36.716 44.512 36.5433 44.2796 36.4847 44.1922C36.4168 44.091 36.2594 43.8663 36.1502 43.7111H30.3358V54.4941H36.8632V52.2423C37.6226 52.7457 41.5104 55.1607 46.1757 55.1607C51.3834 55.1607 58.0189 52.9024 58.0189 45.8558C58.0189 38.8091 50.1445 36.6763 48.9895 36.3417Z" fill="#00539F"/>
<path d="M74.5926 24.6162C65.9113 24.6162 58.7913 28.9384 58.7913 39.9716C58.7913 51.0049 66.5206 55.1375 74.6306 55.1375C82.7406 55.1375 90.3938 51.0427 90.3938 40.0855C90.3938 29.1284 82.7409 24.6162 74.5926 24.6162ZM74.6689 47.7821C71.6989 47.7821 69.7951 47.0996 69.7951 39.9338C69.7951 32.7679 71.204 32.0096 74.783 32.0096C76.9532 32.0096 79.5805 32.1612 79.5805 39.7063C79.5805 47.2515 77.6389 47.7821 74.6689 47.7821Z" fill="#00539F"/>
<path d="M22.1341 21.7653C24.0856 18.8958 26.4855 16.3521 29.2366 14.2397C30.349 15.0587 31.5315 15.8016 32.7746 16.4637C30.6919 18.7755 28.8259 21.3367 28.5168 21.7653H29.7665C30.5165 20.7586 32.0681 18.7335 33.7041 16.9381C35.4923 17.8135 37.3928 18.5294 39.3757 19.0748C38.8479 20.1899 38.4489 21.1649 38.2148 21.7653H39.3005C39.5499 21.147 39.9155 20.2847 40.3716 19.3319C42.9011 19.9473 45.5516 20.2922 48.2631 20.3448V21.7655H49.2711V20.3496C51.9627 20.33 54.5986 20.0246 57.1193 19.4507C57.549 20.3558 57.8949 21.173 58.134 21.7653H59.2197C58.9946 21.1887 58.6179 20.267 58.1205 19.2066C60.1389 18.6837 62.0756 17.9865 63.8996 17.1248C65.473 18.8725 66.9439 20.7936 67.6681 21.7653H68.9176C68.6181 21.3499 66.8487 18.9205 64.838 16.6624C66.2204 15.951 67.531 15.1415 68.7562 14.2397C71.5073 16.3521 73.9074 18.8958 75.8587 21.7653H77.0711C71.1095 12.6032 60.7524 6.52832 48.9962 6.52832C37.2401 6.52832 26.883 12.6032 20.9214 21.7653H22.1341ZM39.8254 18.1569C37.9393 17.6496 36.1295 16.9845 34.4234 16.1708C34.6553 15.9309 34.8869 15.6986 35.1159 15.4786C37.4521 13.2352 41.2947 10.7719 42.1369 10.2416C42.8205 10.6155 43.5664 10.9316 44.3598 11.1825C43.7436 11.9871 42.5337 13.6205 41.2162 15.6922C40.7033 16.4985 40.2362 17.3459 39.8254 18.1569ZM48.2631 19.3408C45.7104 19.2899 43.2144 18.9734 40.8287 18.41C41.2018 17.6837 41.618 16.9363 42.0677 16.2294C43.5857 13.8428 44.9551 12.0509 45.4114 11.4679C46.3217 11.6809 47.2784 11.8155 48.2631 11.8595V19.3408ZM49.2711 19.3458V11.8709C50.2425 11.8545 51.193 11.7521 52.1027 11.57C52.6241 12.2416 53.929 13.9686 55.3669 16.2294C55.8399 16.9732 56.2762 17.7618 56.6641 18.5238C54.2867 19.0473 51.8052 19.327 49.2711 19.3458ZM57.6745 18.2861C57.2483 17.4363 56.7583 16.5413 56.2182 15.6922C54.9687 13.7274 53.8157 12.1566 53.1744 11.3132C54.0182 11.0771 54.8148 10.7704 55.5463 10.3992C56.7287 11.1539 60.1631 13.4089 62.3185 15.4786C62.6046 15.7534 62.8946 16.047 63.1842 16.3515C61.4425 17.1522 59.5963 17.8004 57.6745 18.2861ZM67.9122 13.6123C66.7297 14.4622 65.4663 15.2237 64.136 15.8931C63.7642 15.496 63.3893 15.1124 63.0182 14.7561C61.0022 12.8202 58.0004 10.7893 56.5297 9.8356C57.0293 9.51309 57.4862 9.15645 57.8936 8.76819C61.534 9.80399 64.9138 11.4602 67.9122 13.6123ZM48.9966 7.532C51.6582 7.532 54.245 7.85535 56.722 8.46056C54.8422 9.98097 52.0256 10.8729 48.9966 10.8729C45.9538 10.8729 43.1449 9.98381 41.2676 8.4614C43.7454 7.85568 46.3335 7.532 48.9966 7.532ZM40.0991 8.76819C40.4307 9.08468 40.7937 9.38077 41.187 9.65377C39.8545 10.5076 36.5725 12.6857 34.4164 14.756C34.1059 15.0541 33.793 15.3715 33.4812 15.6997C32.2886 15.078 31.1514 14.3816 30.0811 13.6123C33.079 11.4602 36.4586 9.80415 40.0991 8.76819Z" fill="#00539F"/>
<path d="M75.8604 57.8693C73.9504 60.6784 71.6103 63.1749 68.9321 65.2605C67.6565 64.3054 66.2874 63.4516 64.8396 62.7059C66.5838 60.7467 68.1466 58.6587 68.7251 57.8695H67.4699C66.6962 58.8982 65.3417 60.6435 63.901 62.2438C62.077 61.3818 60.1404 60.6841 58.1217 60.1614C58.5486 59.2512 58.8857 58.4446 59.1152 57.8695H58.0263C57.7955 58.4302 57.4886 59.1416 57.1198 59.9183C54.6007 59.3452 51.9651 59.0399 49.2713 59.0205V57.8695H48.2633V59.025C45.5496 59.0774 42.8993 59.422 40.3712 60.0366C39.9775 59.2141 39.6511 58.4585 39.4087 57.8695H38.3196C38.56 58.4723 38.9188 59.3295 39.3751 60.2933C37.3916 60.8388 35.4905 61.5538 33.7024 62.4297C32.2 60.7805 30.7692 58.9382 29.965 57.8693H28.7098C29.3075 58.6848 30.9584 60.8899 32.7746 62.9056C31.4665 63.6031 30.2244 64.3892 29.0611 65.2604C26.3827 63.1747 24.0426 60.6783 22.1328 57.8691H20.9222C26.884 67.0312 37.2408 73.1061 48.9968 73.1061C60.7526 73.1061 71.1096 67.0314 77.0713 57.8691L75.8604 57.8693ZM57.675 61.0824C59.5975 61.5679 61.4437 62.2159 63.1855 63.017C62.8954 63.3218 62.6053 63.6159 62.3187 63.8912C60.17 65.9543 56.7466 68.204 55.5552 68.9648C54.8238 68.5921 54.0262 68.2853 53.1797 68.0493C53.8221 67.2043 54.9721 65.6366 56.2182 63.6772C56.7587 62.828 57.2487 61.9325 57.675 61.0824ZM49.2711 60.024C51.8072 60.0428 54.2887 60.3216 56.6646 60.8445C56.2765 61.607 55.8403 62.3957 55.3667 63.1403C53.9309 65.3979 52.628 67.123 52.105 67.7967C51.1979 67.6167 50.2474 67.5151 49.2709 67.4991V60.024H49.2711ZM48.2632 60.0291V67.5094C47.2747 67.5531 46.317 67.6861 45.4079 67.8975C44.9484 67.3102 43.5833 65.5233 42.0678 63.1403C41.6177 62.4329 41.2011 61.685 40.8278 60.958C43.2123 60.3952 45.7082 60.0797 48.2632 60.0291ZM39.8249 61.2119C40.2358 62.0234 40.7034 62.8708 41.2162 63.6774C42.5327 65.7475 43.7418 67.3798 44.3584 68.1851C43.5639 68.4358 42.8188 68.7523 42.1356 69.1272C41.2901 68.5946 37.4509 66.1331 35.1161 63.8912C34.8868 63.6711 34.6551 63.4384 34.4229 63.1983C36.1287 62.3843 37.9383 61.7191 39.8249 61.2119ZM29.8985 65.8897C31.0219 65.0673 32.2196 64.326 33.4797 63.6687C33.7918 63.9973 34.1054 64.3153 34.4162 64.6137C36.5719 66.6834 39.8528 68.8611 41.1858 69.7152C40.7109 70.0462 40.278 70.4102 39.8933 70.8054C36.2577 69.7445 32.8854 68.065 29.8985 65.8897ZM48.9966 72.1026C46.2478 72.1026 43.5781 71.7588 41.0277 71.1147C42.8901 69.485 45.8473 68.4969 48.9966 68.4969C52.142 68.4969 55.1021 69.4857 56.9646 71.1148C54.4144 71.759 51.745 72.1026 48.9966 72.1026ZM58.0992 70.8054C57.6419 70.3361 57.1193 69.9082 56.5362 69.5297C58.0095 68.5744 61.0052 66.5466 63.0182 64.6135C63.3895 64.257 63.7644 63.8733 64.1365 63.4758C65.5347 64.1801 66.8598 64.9857 68.0945 65.8895C65.1075 68.0652 61.735 69.7446 58.0992 70.8054Z" fill="#00539F"/>
<path d="M26.0463 83.1946C26.0744 83.7148 26.2759 84.0743 26.6511 84.2732C26.8439 84.378 27.0612 84.4303 27.3031 84.4303C27.7553 84.4303 28.1409 84.2427 28.4599 83.8675C28.7789 83.4922 29.005 82.7303 29.1383 81.5819C28.9279 81.9135 28.6677 82.1465 28.3574 82.2809C28.0472 82.4153 27.7133 82.4825 27.3557 82.4825C26.63 82.4825 26.056 82.2576 25.6336 81.8078C25.2111 81.358 25 80.7791 25 80.0712C25 79.3913 25.2086 78.7932 25.6257 78.2771C26.0429 77.761 26.6581 77.5029 27.4714 77.5029C28.5685 77.5029 29.3258 77.9948 29.7429 78.9786C29.9743 79.5193 30.09 80.196 30.09 81.0088C30.09 81.9263 29.9515 82.739 29.6746 83.4473C29.2153 84.6263 28.4371 85.2159 27.3399 85.2159C26.6037 85.2159 26.0445 85.0238 25.6625 84.6399C25.2804 84.2559 25.0893 83.7742 25.0893 83.1947H26.0463V83.1946ZM28.5099 81.2866C28.8201 81.0409 28.9753 80.6114 28.9753 79.9979C28.9753 79.4473 28.8359 79.0369 28.5572 78.7668C28.2785 78.4967 27.9236 78.3617 27.4924 78.3617C27.0297 78.3617 26.6625 78.5159 26.3908 78.8243C26.119 79.1327 25.9832 79.5449 25.9832 80.0607C25.9832 80.5486 26.1023 80.9364 26.3408 81.224C26.5791 81.5115 26.9594 81.6552 27.4818 81.6552C27.857 81.6552 28.1997 81.5324 28.5099 81.2866Z" fill="#00539F"/>
<path d="M35.6323 78.7118C35.9688 79.3296 36.1371 80.1762 36.1371 81.2513C36.1371 82.2706 35.9846 83.1135 35.6796 83.7804C35.2379 84.7368 34.5156 85.2151 33.5132 85.2151C32.6087 85.2151 31.9356 84.8242 31.494 84.0422C31.1259 83.3894 30.9418 82.5132 30.9418 81.4137C30.9418 80.5619 31.0523 79.8306 31.2731 79.2196C31.6867 78.0817 32.4352 77.5127 33.5183 77.5127C34.4929 77.5127 35.1975 77.9125 35.6323 78.7118ZM34.6798 83.7069C34.9712 83.2742 35.1169 82.4678 35.1169 81.2879C35.1169 80.4362 35.0115 79.7354 34.8009 79.1856C34.5902 78.6358 34.1811 78.361 33.5737 78.361C33.0153 78.361 32.6071 78.6219 32.3491 79.1438C32.091 79.6657 31.962 80.4344 31.962 81.4503C31.962 82.2148 32.0445 82.8292 32.2095 83.2935C32.4622 84.0021 32.8942 84.3564 33.5051 84.3564C33.9967 84.3563 34.3882 84.1398 34.6798 83.7069Z" fill="#00539F"/>
<path d="M41.6214 78.7118C41.958 79.3296 42.1262 80.1762 42.1262 81.2513C42.1262 82.2706 41.9738 83.1135 41.6688 83.7804C41.2271 84.7368 40.5048 85.2151 39.5024 85.2151C38.5979 85.2151 37.9248 84.8242 37.4832 84.0422C37.1151 83.3894 36.931 82.5132 36.931 81.4137C36.931 80.5619 37.0415 79.8306 37.2623 79.2196C37.6759 78.0817 38.4244 77.5127 39.5075 77.5127C40.4822 77.5127 41.1867 77.9125 41.6214 78.7118ZM40.669 83.7069C40.9604 83.2742 41.1061 82.4678 41.1061 81.2879C41.1061 80.4362 41.0007 79.7354 40.7901 79.1856C40.5794 78.6358 40.1703 78.361 39.5629 78.361C39.0045 78.361 38.5963 78.6219 38.3383 79.1438C38.0802 79.6657 37.9512 80.4344 37.9512 81.4503C37.9512 82.2148 38.0337 82.8292 38.1987 83.2935C38.4514 84.0021 38.8834 84.3564 39.4943 84.3564C39.9859 84.3563 40.3774 84.1398 40.669 83.7069Z" fill="#00539F"/>
<path d="M43.6144 79.7013V78.9787C44.298 78.9124 44.7747 78.8016 45.0446 78.6462C45.3145 78.4909 45.516 78.1235 45.6494 77.5439H46.396V85.0106H45.3864V79.7012L43.6144 79.7013Z" fill="#00539F"/>
<path d="M49.7667 79.4756H50.8657V80.617H49.7667V79.4756ZM49.7667 83.8686H50.8657V85.0102H49.7667V83.8686Z" fill="#00539F"/>
<path d="M52.3037 83.3245C52.5368 82.8464 52.9916 82.4117 53.6682 82.0207L54.6778 81.4396C55.1301 81.1777 55.4473 80.9541 55.6297 80.7688C55.9169 80.4785 56.0608 80.1463 56.0608 79.772C56.0608 79.3348 55.9294 78.9876 55.6665 78.7306C55.4035 78.4735 55.053 78.345 54.6148 78.345C53.9663 78.345 53.5175 78.5902 53.2687 79.0803C53.1354 79.3429 53.0618 79.7069 53.0478 80.1725H52.0855C52.0961 79.5197 52.217 78.9873 52.4483 78.5755C52.8584 77.8494 53.5823 77.4863 54.62 77.4863C55.4823 77.4863 56.1125 77.7185 56.5104 78.1828C56.9081 78.6471 57.1072 79.1637 57.1072 79.7327C57.1072 80.333 56.8951 80.8463 56.471 81.272C56.2255 81.5199 55.7855 81.8201 55.1511 82.1727L54.4306 82.5707C54.0871 82.7592 53.8172 82.939 53.621 83.1099C53.2704 83.4136 53.0495 83.7505 52.9583 84.1205H57.0704V85.0107H51.9015C51.9364 84.3648 52.0706 83.8028 52.3037 83.3245Z" fill="#00539F"/>
<path d="M62.5811 78.7118C62.9177 79.3296 63.0859 80.1762 63.0859 81.2513C63.0859 82.2706 62.9335 83.1135 62.6285 83.7804C62.1868 84.7368 61.4645 85.2151 60.4621 85.2151C59.5576 85.2151 58.8845 84.8242 58.4429 84.0422C58.0749 83.3894 57.8908 82.5132 57.8908 81.4137C57.8908 80.5619 58.0012 79.8306 58.222 79.2196C58.6356 78.0817 59.3841 77.5127 60.4673 77.5127C61.4418 77.5127 62.1464 77.9125 62.5811 78.7118ZM61.6287 83.7069C61.9202 83.2742 62.0658 82.4678 62.0658 81.2879C62.0658 80.4362 61.9604 79.7354 61.7497 79.1856C61.539 78.6358 61.13 78.361 60.5226 78.361C59.9642 78.361 59.556 78.6219 59.298 79.1438C59.0397 79.6657 58.9107 80.4344 58.9107 81.4503C58.9107 82.2148 58.9932 82.8292 59.1583 83.2935C59.4111 84.0021 59.8431 84.3564 60.454 84.3564C60.9457 84.3563 61.3371 84.1398 61.6287 83.7069Z" fill="#00539F"/>
<path d="M64.574 79.7013V78.9787C65.2576 78.9124 65.7342 78.8016 66.0044 78.6462C66.2742 78.4909 66.4757 78.1235 66.609 77.5439H67.3557V85.0106H66.346V79.7012L64.574 79.7013Z" fill="#00539F"/>
<path d="M70.8629 83.099C70.9261 83.6365 71.1766 84.0083 71.6149 84.2143C71.8393 84.319 72.0988 84.3714 72.3932 84.3714C72.9541 84.3714 73.3694 84.1934 73.6395 83.8372C73.9093 83.4812 74.0444 83.0868 74.0444 82.6539C74.0444 82.1303 73.884 81.7254 73.5633 81.4391C73.2425 81.1528 72.8578 81.0097 72.4091 81.0097C72.083 81.0097 71.8035 81.0726 71.5704 81.1982C71.3372 81.3238 71.1383 81.4984 70.9735 81.7218L70.1532 81.6747L70.7265 77.6377H74.6385V78.5487H71.4362L71.1154 80.6328C71.2907 80.5001 71.4572 80.4007 71.6149 80.3342C71.8953 80.2191 72.2197 80.1615 72.5877 80.1615C73.2782 80.1615 73.8637 80.3832 74.3439 80.8265C74.8242 81.2698 75.0643 81.8319 75.0643 82.5126C75.0643 83.2212 74.8443 83.8461 74.4044 84.3871C73.9644 84.9282 73.2624 85.1987 72.2984 85.1987C71.6849 85.1987 71.1424 85.0266 70.671 84.6829C70.1995 84.3392 69.9356 83.8112 69.8795 83.0991L70.8629 83.099Z" fill="#00539F"/>
</g>
<defs>
<clipPath id="clip0_273_22592">
<rect width="100" height="91" fill="white"/>
</clipPath>
</defs>
</svg>
