<svg width="100" height="105" viewBox="0 0 100 105" fill="none" xmlns="http://www.w3.org/2000/svg">
<path d="M72.9958 38.9357C85.6375 37.9193 92.9916 47.0416 89.3 59.3092C85.3458 72.4384 61.2458 70.9703 59.5166 57.1593C58.2333 46.9245 62.3625 39.789 73 38.9357H72.9958ZM78.1583 60.2461C78.4166 60.0077 78.85 59.3092 78.975 58.962C79.2458 58.2091 79.375 56.4692 79.425 55.6034C79.5375 53.6668 79.4916 50.9231 79.2125 49.0116C78.7625 45.9458 74.8583 45.5066 72.4458 46.3933C71.1708 46.8617 70.7458 47.4599 70.3916 48.7397C69.8083 50.8478 69.7791 57.0464 70.6083 59.054C71.6375 61.5594 76.3166 61.9484 78.1625 60.2461H78.1583Z" fill="#00539F"/>
<path d="M37.2083 57.3099C38.3875 59.4137 40.8958 61.0031 43.2458 61.4674C44.3583 61.6849 48.7125 61.8062 49.4333 61.07C50.4542 60.0286 48.8417 59.5141 48.075 59.2213C42.1583 56.9627 31.6125 56.4984 31.3083 48.2002C30.9792 39.0988 41.3792 37.568 48.1833 39.8726C49.1792 40.2114 50.3792 41.0354 51.1792 41.2738C51.7958 41.4578 51.1708 39.8893 51.7708 39.676H57.4583C57.5208 42.4784 57.9917 46.0461 57.6667 48.8025C57.6333 49.0952 57.6417 49.3169 57.3583 49.4926H51.7708C49.8917 46.4602 44.825 44.7202 41.4375 45.3309C39.9792 45.5944 39.5958 46.8534 40.8792 47.5937C47.5375 49.8816 60.4167 50.9147 58.3667 61.1244C56.7958 68.9375 46.7083 69.3348 40.6417 67.0762C39.9375 66.8127 38.8042 65.9971 38.1958 65.9218C37.7542 65.8675 37.9708 65.9846 37.8958 66.2146C37.75 66.6663 37.6958 67.2435 37.7 67.7245H31.5125V57.3057H37.2L37.2083 57.3099Z" fill="#00539F"/>
<path d="M29.725 46.2892H25.5333V60.6146L25.8333 60.9158H29.725C30.0292 63.1785 29.9542 65.4581 29.725 67.7292H11.5583C11.2708 65.4999 11.2167 63.1451 11.5583 60.9158H15.45L15.75 60.6146V46.2892L11.5583 46.0884V39.0742L29.3958 39.0993C30.3375 40.2328 29.7292 41.9058 29.7125 43.1732C29.7 44.1059 30.1417 45.1892 29.7208 46.2892H29.725Z" fill="#00539F"/>
<path d="M25.2166 73.0532C25.8708 73.7935 29.5541 77.6708 30.2208 77.6749C30.75 77.4282 33.3375 76.1525 33.2958 75.6757C33.2583 75.2574 29.5916 70.9828 29.9208 70.736C30.3708 70.736 30.825 70.6273 31.2333 70.92C31.6083 71.1877 32.9666 73.4171 33.5208 74.0361C33.7208 74.2578 34.6666 75.2783 34.8083 75.2909L40.3 73.3376L39.3041 70.736C40.8916 70.3136 40.9166 71.9322 41.6208 72.9528L49.2708 71.9239C48.925 70.0835 50.5 70.3638 50.2833 71.9322L57.9458 72.9026C58.7958 72.0954 58.6666 70.4014 60.2583 70.736L59.3458 73.1452L64.7583 75.1319C65.7291 75.0817 67.5166 71.3843 68.3291 70.9242C68.7166 70.7026 69.0041 70.69 69.4375 70.736C69.8416 71.125 66.5166 75.1236 66.05 75.6464L69.5416 77.6959C70.9 76.4829 72.3083 75.3034 73.5333 73.9482C74.0875 73.3376 75.4708 71.2128 75.9125 70.9242C76.3541 70.6356 76.7583 70.7318 77.225 70.7402C72.8041 77.9845 65 83.2211 56.7083 84.9067C43.4125 87.6044 29.9208 82.2591 22.3375 71.0372C22.1833 70.5227 23.275 70.7109 23.5333 70.8406C23.8083 70.9744 24.8458 72.6475 25.2125 73.0615L25.2166 73.0532ZM49.2833 80.0507V73.438C48.95 72.9988 48.3041 73.1075 47.7875 73.141C46.0583 73.2456 44 73.6973 42.2916 74.0403C42.2125 74.7137 45.675 79.9545 46.375 80.3602C47.1875 80.8286 48.075 80.2347 48.95 80.3183L49.2833 80.0507ZM57.4666 73.9399L50.4833 73.141C50.1 75.5293 50.3166 77.9552 50.4833 80.3518C51.4416 80.2138 52.4916 80.9081 53.3916 80.3644C53.6208 80.2263 55.5333 77.4742 55.8333 77.0057C56.0583 76.6544 57.6625 74.1114 57.4666 73.9399ZM40.8125 74.4083C40.1375 74.4125 35.7125 75.9308 35.7125 76.2445C36.7833 77.5578 41.9375 81.799 43.375 81.7488C43.7458 81.7362 45.1375 81.2218 45.0166 80.745L40.8166 74.4083H40.8125ZM63.6458 75.9559C61.9791 75.408 60.3291 74.3832 58.4958 74.5756C57.4125 76.8133 55.9833 78.8837 54.475 80.8537C55.2416 81.4435 55.9583 81.8785 56.9083 81.502C58.0458 81.0503 63.0458 77.5076 63.5541 76.5456C63.6541 76.3532 63.7 76.1692 63.6458 75.9559ZM41.9 82.3595C39.0916 81.021 36.7208 78.8252 34.3875 76.7799L31.5208 78.4529C31.4125 78.8921 33.9125 80.3309 34.3791 80.586C35.4541 81.1758 39.8166 83.2002 40.8083 83.1709C41.1125 83.1625 42.2166 82.6982 41.9 82.3595ZM68.2458 78.3525L65.1875 76.7882L57.875 82.6355C58 82.8321 58.1791 83.058 58.4083 83.1249C59.05 83.3131 62.6041 81.8324 63.4458 81.4476C65.15 80.6739 66.9416 79.7328 68.2416 78.3525H68.2458ZM56.6666 83.7564C57.0666 83.3089 55.1875 82.5142 54.925 82.4013C52.0333 81.1883 48.8333 81.0963 45.8458 82.0081C45.3166 82.1712 42.9041 83.0998 42.8916 83.6519C47.375 84.869 52.15 84.7143 56.6666 83.7523V83.7564Z" fill="#00539F"/>
<path d="M75.1167 33.3816C75.7917 34.2181 76.5542 34.9751 77.0292 35.9706C76.75 36.1797 76.1375 36.1044 75.8334 35.9706C75.575 35.8535 72.8084 32.315 72.1417 31.6541C71.7292 31.2484 69.4625 29.2701 69.15 29.2617L65.8542 31.1606C66.2417 31.4994 69.6875 35.8869 69.4417 36.0668C68.9792 36.0752 68.55 36.1588 68.1292 35.8828C67.3042 35.3432 65.5459 31.8173 64.5584 31.7462C64.2709 31.7252 59.3125 33.4192 59.1459 33.6534L60.0584 36.0668C58.2042 36.5269 58.7084 34.6405 57.5584 34.055L50.4042 34.8915L50.1042 35.1968L50.075 36.0668H49.1917L49.0792 34.8622C46.5 34.7325 43.9125 34.5736 41.4125 33.8918C40.5084 34.8455 40.925 36.4641 39.1 36.0626C39.3459 35.1926 40.0542 34.4272 39.8792 33.4736L34.6042 31.7211C34.3584 31.7503 33.0042 33.4192 32.7167 33.7622C31.8834 34.766 31.4542 36.4139 29.9167 36.0584C30.6625 34.1721 32.2959 32.8796 33.3125 31.1522C32.4625 30.7967 30.8542 29.4206 30.0125 29.429C29.2709 29.4374 26.575 32.2355 25.9209 32.9466C24.8667 34.0884 23.7667 36.6607 22.1334 36.0542C34.1292 17.7344 61.275 16.2496 75.1125 33.369L75.1167 33.3816ZM42.7 23.6403C46.8 26.1122 52.575 26.3088 56.4667 23.3433C56.2834 23.0296 56.0375 23.1049 55.775 23.038C51.6667 22.0132 47.1625 22.4524 43.0334 23.0756L42.7 23.6361V23.6403ZM34.9959 29.5461C37.1417 27.6849 39.3667 25.9825 41.6959 24.3471C41.2209 23.9665 40.9875 23.6152 40.35 23.7741C38.5042 24.23 32.9042 26.748 31.6209 28.0571C31.425 28.2579 31.1917 28.3122 31.4125 28.6594C31.5459 28.8685 33.7625 30.0648 34.1084 30.1735C34.2375 30.2153 34.35 30.3241 34.475 30.2195C34.5709 29.9727 34.7959 29.7134 34.9917 29.5419L34.9959 29.5461ZM67.8459 28.651C67.9209 28.3583 67.7792 28.3206 67.6542 28.1491C66.8 26.978 60.2459 23.9791 58.7375 23.8578C58.25 23.8201 57.9167 23.9205 57.4709 24.046L64.7959 30.0271L67.8459 28.6469V28.651ZM44.8917 25.8529C44.0042 25.6479 43.5167 25.0415 42.5542 25.4012C41.5209 25.7901 39.0834 27.6179 38.125 28.375C37.7209 28.6929 35.6292 30.4119 35.7084 30.7549C36.3584 31.2735 40.3375 32.7709 40.8709 32.4321L44.8917 25.8529ZM63.4459 30.8469C63.7625 30.3826 61.95 28.994 61.5542 28.6594C60.5917 27.8522 57.875 25.8152 56.8125 25.4053C55.675 24.9662 55.2792 25.5643 54.2709 25.8529L58.2875 32.4405C58.8292 32.7834 62.625 31.0602 63.4417 30.8511L63.4459 30.8469ZM49.0834 33.3648V27.1537C49.0834 26.4092 46.5667 26.2628 46.0917 26.5556C45.8459 26.7061 43.8292 29.5294 43.5334 29.9978C42.9834 30.872 42.4834 31.7964 42.0917 32.7583C42.0792 33.0846 46.4875 33.6451 46.9875 33.666C47.4459 33.6869 48.9417 33.8165 49.0834 33.369V33.3648ZM57.0667 32.8629C57.3584 32.5409 53.4667 26.773 53.075 26.5556C52.3459 26.1498 51.0875 26.7187 50.2834 26.6559C50.1792 29.0066 49.9042 31.3195 50.2834 33.6702C52.5709 33.6911 54.8459 33.3355 57.0709 32.8671L57.0667 32.8629Z" fill="#00539F"/>
<path d="M49.15 93.042C50.5834 91.3188 53.6084 92.172 53.875 94.6816C54.1792 97.5257 53.8125 101.508 49.8709 100.303C47.8709 99.6923 47.9917 94.4264 49.1459 93.042H49.15ZM50.825 93.4101C49.1 93.8743 49.6375 101.11 51.8709 99.0817C52.8459 98.195 52.9084 92.8496 50.825 93.4101Z" fill="#00539F"/>
<path d="M57.2208 92.2181C61.6542 91.5824 61.15 99.9267 58.3542 100.378C56.4292 100.692 55.1625 100.086 54.8875 98.0696C54.6125 96.0536 54.6542 92.5862 57.2167 92.2181H57.2208ZM57.4167 93.406C55.3375 93.8033 56.1667 101.332 58.3542 98.973C59.2 98.0612 59.3417 93.0338 57.4167 93.406Z" fill="#00539F"/>
<path d="M40.1042 92.3773V97.388H41.1042V98.5926H40.1042C40.1792 99.7052 40.275 100.935 38.7958 100.207L38.7083 98.5926H35.3167C35.2667 98.028 35.3083 97.593 35.4708 97.0451C35.5833 96.6686 37.8167 92.7454 38.0125 92.5822C38.5167 92.164 39.4625 92.4609 40.1083 92.3815L40.1042 92.3773ZM38.7042 97.3839V93.7785C37.8292 94.8116 37.1958 96.1918 36.5083 97.3839H38.7042Z" fill="#00539F"/>
<path d="M46.6875 92.377V93.5774H43.6917L43.8792 95.493C45.4 95.5515 47.1375 95.5725 47.2958 97.4839C47.5042 99.9851 45.4708 100.592 43.3833 100.399C42.3583 100.303 41.9542 100.144 42.0958 98.9896C42.2542 98.8223 45.6375 100.366 45.6958 97.8896C45.7333 96.3086 43.5542 96.5805 42.4958 96.5846V92.377H46.6875Z" fill="#00539F"/>
<path d="M65.0542 92.3766V99.19H66.65L66.4583 100.294L62.1875 100.37L61.8917 100.06L61.8584 99.19L63.3333 99.1649L63.6125 98.8889C63.6208 98.8094 63.4584 98.7383 63.4584 98.6881V93.9785L61.8625 94.7816C61.9084 94.4469 61.75 93.8865 61.9 93.6188C62.075 93.3176 64.4917 91.9667 65.05 92.3766H65.0542Z" fill="#00539F"/>
<path d="M24.3333 16.2287C25.3958 16.3458 27.775 14.6811 28.425 16.0279C29.2041 17.6466 26.7541 19.2527 25.2708 18.7968C24.5666 18.5793 24.725 17.6215 24.4916 17.1739C24.45 17.0945 23.6291 15.8271 23.55 15.7184C23.3666 15.4632 22.8875 15.4131 22.6875 14.9822C21.7916 13.0708 24.2291 12.1548 25.5291 11.4229C25.9 12.824 27.3375 13.7316 25.8416 15.0408C25.2875 15.526 24.3916 15.48 24.3333 16.2328V16.2287ZM23.5666 14.9948C27.2458 15.2541 25.7041 10.9084 23.225 13.832L23.5666 14.9948ZM27.7291 16.2287C27.1708 16.1659 25.3083 16.4085 25.15 16.9606C25.3083 19.2067 28.175 18.0732 27.7291 16.2287Z" fill="#00539F"/>
<path d="M15.4666 20.721C14.4583 19.5039 13.7041 18.4331 14.9833 16.9608C16.4833 15.2376 18.4625 16.4213 19.6458 17.8266C20.7541 19.1442 21.5 20.7503 19.8416 22.0343C18.0041 23.4564 16.65 22.1473 15.4666 20.7168V20.721ZM16.4958 16.8688C16.1625 16.9399 15.3875 17.5464 15.2541 17.8392C14.6208 19.232 17.3833 22.2937 18.9333 21.7374C21.6958 20.7419 18.15 16.5259 16.4958 16.8688Z" fill="#00539F"/>
<path d="M92.5375 31.1231C92.8667 31.4243 93.2833 32.3947 93.4 32.8631C93.5 32.9384 95.6625 31.3699 95.3667 32.838L89.2083 35.8704C88.9583 34.8498 87.925 34.0551 88.1458 32.9049C88.4292 31.4076 91.3667 30.0524 92.5375 31.1231ZM92.1417 31.7213C91.3125 31.0186 88.7708 32.3528 88.8083 33.3399C88.9042 35.8537 91.5 33.7456 92.7125 33.2646C92.8792 32.9969 92.3625 31.9053 92.1417 31.7213Z" fill="#00539F"/>
<path d="M97.3875 45.6861L99.3833 45.4853L99.0417 46.2424L92.7208 47.3006C91.6833 45.0838 91.9875 43.2978 94.6958 43.0845C96.6667 42.9298 97.4416 43.7077 97.3875 45.6861ZM96.3708 43.9043C95.1375 43.8667 93.3667 43.5906 92.8333 45.0294L92.9958 46.4892L96.7708 45.8701L96.3667 43.9043H96.3708Z" fill="#00539F"/>
<path d="M83.6125 17.032C83.1709 17.4796 81.6417 15.2042 80.9292 15.4217C79.0917 15.5639 81.7792 19.0564 80.6209 20.5454C79.3625 22.1641 77.3834 20.65 76.65 19.3115L76.925 18.8473C77.7459 19.3743 79.0667 21.2941 80.0334 19.9598C80.7834 18.9267 78.7959 17.0278 79.6459 15.3632C80.7459 13.2091 84.1625 16.4841 83.6084 17.0404L83.6125 17.032Z" fill="#00539F"/>
<path d="M84.2167 27.45C84.2083 26.4922 83.2625 26.3458 82.8417 25.7226C81.3958 23.5643 85.2167 22.1423 86.0333 24.8275C88.2417 24.2921 86.275 22.962 85.6125 21.9373C86.6958 21.5316 88.0167 23.4932 87.725 24.451C87.5458 25.045 84.5 27.6591 84.2167 27.45ZM83.9583 24.0746L83.45 24.5891C83.375 26.2579 84.7667 26.7389 85.7917 25.3503C85.325 24.7104 84.9167 23.9073 83.9583 24.0746Z" fill="#00539F"/>
<path d="M6.35416 57.9247C7.62499 60.9529 6.05416 62.6635 2.92499 62.0696C0.524991 61.6137 1.44582 57.3349 4.17082 58.1129C4.30416 59.0079 4.29999 60.1791 4.56666 61.024C4.64166 61.2582 4.42082 61.3711 4.86666 61.3167C7.03749 61.0616 5.50832 58.1631 5.76666 57.9121L6.34999 57.9247H6.35416ZM3.12082 58.941C1.43749 59.1836 2.39582 61.8145 3.66249 61.5008C4.15416 61.3795 4.04582 58.8072 3.12082 58.941Z" fill="#00539F"/>
<path d="M14.75 27.4548V27.7518C13.5084 28.3206 14.1584 30.069 12.4584 30.0773C11.2709 30.0857 10.55 29.245 10.8917 28.0906C11.2334 26.9362 12.5292 26.7354 10.8584 25.8864C10.2167 26.0746 9.55003 27.7058 9.26253 27.8522C8.32503 28.3165 9.3917 25.8571 10.0334 25.5308C11.85 24.6107 13.1584 26.8735 14.75 27.4548ZM11.5917 29.0233L12.75 29.3663C13.1834 29.0066 13.825 28.2454 13.4584 27.6556C12.35 26.129 11.0334 28.1199 11.5917 29.0233Z" fill="#00539F"/>
<path d="M3.775 45.6868C2.00833 45.3396 2.1625 46.7617 2.175 48.0918H1.57916C0.941665 43.9259 4.12916 44.6871 6.8875 45.4776C7.09166 45.7788 6.6875 46.1678 6.675 46.4564C6.64166 47.3264 7.02916 48.4013 5.78333 48.8028C3.61666 49.4971 3.52083 47.1883 3.77916 45.6868H3.775ZM4.39583 45.9085C3.29583 48.372 6.8 49.037 6.075 46.2849C5.84166 45.8834 4.83333 45.8123 4.39583 45.9085Z" fill="#00539F"/>
<path d="M5.03332 34.728C6.61249 33.3226 11.3625 35.6691 8.87082 38.2832C7.11249 40.1277 2.50415 36.974 5.03332 34.728ZM8.51249 35.92C7.89999 35.2801 5.95415 34.6694 5.28332 35.6816C3.98749 37.6307 8.29999 38.7558 8.72916 37.3337C8.83749 36.974 8.77082 36.1919 8.51249 35.92Z" fill="#00539F"/>
<path d="M46.6375 5.46267C47.2792 6.15698 47.1084 8.9886 47.2875 10.0217C46.3167 9.85022 44.9792 10.5445 44.0917 10.1221C43.4917 9.83767 43.3417 8.59962 43.6 8.02242C44.0792 6.94749 46.2792 7.57906 46.2917 6.72581C46.3084 5.38738 44.325 5.78473 43.4959 6.01477C42.8209 5.21171 45.8125 4.57177 46.6375 5.46685V5.46267ZM46.4917 7.81329C45.125 7.71709 43.8917 7.67108 44.3834 9.43196C45.8209 10.0175 46.8167 9.41523 46.4917 7.81329Z" fill="#00539F"/>
<path d="M31.9209 13.8232C30.9417 13.7814 30.4875 14.8145 29.5334 14.94C27.9334 15.1533 27.2709 12.9532 28.625 12.0205C29.2125 11.6148 30.6584 11.5102 29.4625 10.4813C28.5292 9.68245 27.6792 11.6943 26.7292 10.9205C29.8084 7.76264 30.9834 11.0627 31.9167 13.8232H31.9209ZM29.8709 12.0498C27.2834 12.4262 29.1667 15.7932 30.8875 13.2962C30.7417 12.7859 30.5334 11.9536 29.8709 12.0498Z" fill="#00539F"/>
<path d="M69.9 10.4816C70.3792 10.101 71.275 10.1679 71.8459 10.3185C74.5 11.017 72.8125 16.078 69.8334 15.1411C67.8334 14.5137 68.7125 11.4311 69.9042 10.4816H69.9ZM72.1834 11.2722C70.4917 9.47782 68.3 13.7315 70.0459 14.522C71.4875 15.1745 73.0042 12.1421 72.1834 11.2722Z" fill="#00539F"/>
<path d="M90.8 40.0776C91.0292 38.8312 89.4167 38.0532 90.1875 36.7566C91.1667 35.117 93.3292 36.5349 93.3792 38.1536C95.1708 38.2456 94.3708 37.0159 94.1333 36.0246C93.8958 35.0334 94.4375 35.1965 94.8292 35.9284C96.5167 39.0863 92.9417 39.3665 90.8 40.0776ZM91.3458 36.9072C91.025 36.9741 90.6125 37.179 90.6042 37.5555C90.9042 39.0779 91.6625 39.3916 92.9083 38.4756C92.6 37.5889 92.4708 36.6688 91.3458 36.9072Z" fill="#00539F"/>
<path d="M88.8042 72.1374C90.6833 72.3842 93.7667 75.358 93.5625 71.5686L89.8166 69.9123L90.1291 69.3184L94.7583 71.4348C93.6791 72.999 94.3333 74.944 91.6875 74.1534C91.2708 74.028 88.85 72.9614 88.6917 72.7439L88.8042 72.1416V72.1374Z" fill="#00539F"/>
<path d="M11.9583 32.0601C10.6875 31.7757 8.48331 29.2452 7.48748 30.8764C6.32081 32.7879 9.67498 32.9594 10.675 34.0636L10.4333 34.6742L5.97498 32.4533C6.86664 31.4703 6.67914 29.5003 8.27498 29.4376C9.37081 29.3916 10.8583 30.8346 11.9708 31.1566L11.9625 32.0559L11.9583 32.0601Z" fill="#00539F"/>
<path d="M89.4 25.6475C89.6375 26.8228 91.1833 27.492 90.7625 28.9099C90.5875 29.4913 87.1167 31.7666 86.8083 31.4571C86.7833 29.7422 91.9708 29.0395 89.3958 27.1532C88.4083 26.4338 86.675 28.3787 85.675 28.8262L85.0167 28.3536L89.4 25.6475Z" fill="#00539F"/>
<path d="M92.8958 65.0349C94.7916 65.0056 96.3791 65.8672 95.9416 67.9836C95.5541 69.8574 93.6 69.5396 92.2583 68.9707C90.2291 68.1091 90.5291 65.0684 92.8958 65.0349ZM95.1458 68.2806C96.7291 66.6828 92.7416 64.8049 91.8208 66.2437C90.6166 68.1258 94.2833 69.1506 95.1458 68.2806Z" fill="#00539F"/>
<path d="M36.5083 12.2217C36.275 12.2049 36.0791 12.3262 35.8958 12.0962C35.275 11.3266 34.6458 6.5124 32.8042 8.80028C32 9.79574 33.6 11.703 33.6375 12.8072C33.65 13.1125 33.5041 13.238 33.2166 13.2213C32.6833 13.1125 31.5042 9.15581 31.3167 8.41549C32.6125 8.64553 33.5292 6.85119 34.8125 7.80901C35.3667 8.22309 36.8041 11.9205 36.5041 12.2217H36.5083Z" fill="#00539F"/>
<path d="M55.8042 5.27836C57.8958 5.21144 58.0625 6.83847 57.8667 8.5157C57.5458 11.2804 54.1292 11.1256 53.8708 8.92141C53.7 7.46168 53.9625 5.33692 55.8042 5.27836ZM54.7375 9.3564C55.0167 9.74538 55.875 9.92105 56.3292 9.78302C57.3208 9.47769 57.9917 5.79282 55.7917 6.0145C54.5333 6.13998 54.2125 8.63281 54.7375 9.3564Z" fill="#00539F"/>
<path d="M6.3708 49.8938L6.2833 50.5045L6.04164 50.6634C4.17497 50.8098 0.458305 49.6638 2.27914 52.8969H6.1708V53.7H1.17914V50.7931C1.17914 50.5923 1.87497 49.8896 2.07914 49.8896H6.3708V49.8938Z" fill="#00539F"/>
<path d="M62.7959 6.87236C63.6459 7.93474 62.3375 10.5907 62.2542 11.8246L61.5 11.5318C61.5917 10.574 62.6209 8.19406 62.1584 7.41191C61.6667 6.93928 60.9209 6.94764 60.2875 7.04384L59.2584 11.0215L58.4625 10.8166L59.6625 6.01074C60.4584 6.40391 62.2917 6.24497 62.7959 6.87236Z" fill="#00539F"/>
<path d="M7.96669 65.9258L7.84585 66.5448C6.07919 67.2475 2.29169 67.5361 5.09585 69.8951L8.95835 68.7323L8.93752 69.5103L4.17086 70.9365C4.42919 69.6818 2.82919 68.6737 3.56252 67.4692C3.90002 66.9087 7.60419 65.5619 7.96669 65.93V65.9258Z" fill="#00539F"/>
<path d="M92.7958 58.5101C93.1792 56.3602 92.0167 54.3526 95.35 54.9465C96.0375 55.8207 95.7417 56.8705 95.7917 57.9078C97.65 58.2717 97.3875 56.6572 97.3917 55.302H97.9875C98.0667 55.8499 98.0708 58.5101 97.2917 58.5101H92.8H92.7958ZM93.6458 55.7537C93.1958 56.2013 93.5292 57.1758 93.6917 57.7112C96.775 59.0329 95.2042 54.1936 93.6458 55.7537Z" fill="#00539F"/>
<path d="M42.1 5.6084C42.6458 6.44074 40.0042 9.94994 40.3042 10.2176L42.9 10.021V10.6192L39.6958 11.1252C38.4833 10.4268 41.0833 7.38182 41.3042 6.41146C40.65 6.36545 40.075 6.60804 39.4167 6.62059C39.125 6.62477 38.6125 6.77953 38.7125 6.31526L42.1042 5.6084H42.1Z" fill="#00539F"/>
<path d="M92.9958 50.597L93.4541 50.3252L97.2833 52.9017L97.3875 50.2959C97.575 50.2081 97.9833 50.4716 97.9833 50.597V53.9013C96.25 53.7256 95.1625 52.061 93.6958 51.2955L93.5916 53.9055H92.9916V50.597H92.9958Z" fill="#00539F"/>
<path d="M70.2417 7.81264C69.3 7.74572 68.5333 7.67462 68.4458 8.81229C68.8417 8.96286 69.6833 8.8332 69.4417 9.51496C69.2333 10.1005 68.4333 9.33929 68.05 9.41458C67.6125 10.6401 67.2208 11.9618 66.6667 13.1371C66.5458 13.3922 66.6667 13.6348 66.1542 13.4215C65.8708 13.3044 65.8458 13.0493 65.8875 12.769C66 12.0287 67.4917 9.54842 67.4625 9.12598C67.1625 8.85411 66.5708 8.77882 66.6542 8.21417C68.1875 8.49441 67.6667 7.88793 68.2375 7.29818C69.0417 6.46585 70.625 7.49058 70.2458 7.80846L70.2417 7.81264Z" fill="#00539F"/>
<path d="M83.0167 18.6373C83.4167 18.5411 83.5583 19.043 83.9125 19.043C84.2417 19.043 84.5917 18.3947 85.0125 18.7376C85.3833 19.043 85.1958 19.0722 85.0125 19.3399C84.3792 20.2643 84.7667 19.7833 85.2125 20.7411C84.6708 21.5525 84.3958 20.3772 83.9417 20.4567C83.5042 20.967 81.6542 22.4309 81.6083 22.9579C81.5583 23.5142 82.3875 23.7986 81.7208 24.2461C79.0625 22.8199 82.2917 21.1677 83.325 19.846L83.0167 18.6414V18.6373Z" fill="#00539F"/>
<path d="M97.6125 60.6897L98.5584 60.9406L98.5834 61.7186L97.4084 61.7437L97.1709 62.7141L96.5875 62.7266V61.3213L93.125 60.9114L92.8 61.7897L92.2 61.9235C92.1584 58.7071 95.1 60.8152 96.9917 60.5224C96.9084 59.8532 96.9542 59.711 97.5875 59.5186L97.6167 60.6939L97.6125 60.6897Z" fill="#00539F"/>
<path d="M3.37503 40.877V42.2823L6.85003 42.8971L7.15003 41.9979L7.7667 41.8808C7.7667 45.2896 4.9292 42.7382 3.2792 43.077C2.49586 43.2359 3.1417 44.1185 2.1792 43.8842L2.3792 42.6838L1.40836 42.4538L1.38336 41.68L2.5792 41.8808L2.76253 40.9982L3.3792 40.8811L3.37503 40.877Z" fill="#00539F"/>
<path d="M3.39584 65.1442C3.325 65.2363 3.25417 67.5576 2.59167 65.6085L1.37917 65.5207C1.10417 64.6465 2.23334 64.818 2.36667 64.3956L2.17917 63.3164L2.79584 63.4336L2.99584 64.2993L6.37917 63.6218L6.67084 62.3084C6.97917 61.7061 7.41667 62.9776 7.39167 63.4168C7.29584 65.0104 3.8125 64.6298 3.40417 65.1401L3.39584 65.1442Z" fill="#00539F"/>
<path d="M49.6833 9.41941H50.8833V10.0217C46.9042 10.7829 50.575 5.7931 47.6875 5.3121L48.6583 4.98586L48.8875 3.81055L49.475 3.81891L49.7 5.00259L50.8833 5.31628L49.6875 5.61743V9.4236L49.6833 9.41941Z" fill="#00539F"/>
<path d="M9.96248 71.3344L3.70415 73.9569L3.39581 73.4174L9.11248 70.7656C9.55415 70.6318 10.0166 70.7907 9.96248 71.3302V71.3344Z" fill="#00539F"/>
<path d="M15.4625 25.5386C15.6208 25.6808 16.0417 25.9318 15.9458 26.1451C15.675 26.5048 15.5583 26.5006 15.1583 26.3459C14.725 26.1786 11.1 23.2256 10.5792 22.7237C9.94166 22.1089 10.175 21.6446 10.9542 21.9458C11.3833 22.1131 14.8833 25.0158 15.4625 25.5386Z" fill="#00539F"/>
<path d="M21.5375 14.2296L20.7625 15.9026C21.0834 16.4672 23.4584 18.8973 22.9334 19.4369C22.4334 19.5373 22.4334 19.37 22.1667 19.1065C21.85 18.7886 19.5333 15.7478 19.55 15.5262C19.9167 15.3881 21.1709 13.8824 21.5334 14.2296H21.5375Z" fill="#00539F"/>
<path d="M96.1875 39.8772C96.0209 40.7179 96.4834 41.3537 96.7875 42.0815L96.0209 42.048C95.55 39.7392 92.9542 41.9016 91.4 41.8807L91.5167 41.0567L96.1917 39.873L96.1875 39.8772Z" fill="#00539F"/>
<path d="M75.0667 13.4592L72.7375 16.8262C72.45 16.6087 72.4125 16.5292 72.4708 16.1695C72.5167 15.8851 74.8958 12.2253 75.1333 12.2295L76.8292 13.5219C76.3625 14.2371 75.6583 13.1078 75.0667 13.4592Z" fill="#00539F"/>
<path d="M1.7708 54.9094L2.31247 56.3189L6.3708 56.1056V56.7037C4.6833 56.779 2.8083 57.2474 1.17914 56.9045C1.79997 56.1265 0.499972 54.6584 1.7708 54.9094Z" fill="#00539F"/>
<path d="M8.14164 40.2993L8.16664 41.0773L3.36664 39.7765L3.37914 38.873L8.14164 40.2993Z" fill="#00539F"/>
<path d="M52.6792 5.01074V8.91729C52.6792 9.09714 52.3209 9.64506 52.475 10.0173H51.6833L51.9125 5.34117L52.0708 5.09858L52.6792 5.01074Z" fill="#00539F"/>
<path d="M97.7875 48.0911V48.89L92.925 49.5048L92.625 48.9527C92.5875 48.6265 92.825 48.5345 93.0958 48.4884C94.525 48.2459 96.325 48.4717 97.7833 48.0869L97.7875 48.0911Z" fill="#00539F"/>
<path d="M36.5084 6.6129C36.7875 6.58362 37 6.60035 37.225 6.79275C37.4167 6.96006 38.3 10.3396 38.3709 10.8582C38.5125 11.8788 37.9834 11.8788 37.6042 11.0172C37.0709 9.80422 36.9 7.92624 36.5084 6.60872V6.6129Z" fill="#00539F"/>
<path d="M92.025 63.4962L92.0916 62.7266C93.4 63.1825 95.0333 63.2661 96.3208 63.6886C97.3666 64.0315 97.1416 64.5418 96.1458 64.4791C95.7166 64.4498 92.1416 63.6718 92.0208 63.4962H92.025Z" fill="#00539F"/>
</svg>
